{"_v":2,"glyphs":{"0":{"ha":461,"x_min":48,"x_max":412,"o":"m 230 -10 l 230 -10 q 169 -10 129 30 q 88 69 68 151 q 48 232 48 358 l 48 358 q 48 476 67 558 q 85 640 126 683 q 166 725 230 725 l 230 725 q 296 725 336 682 q 376 638 394 557 q 412 475 412 359 l 412 359 q 412 270 402 202 q 392 133 370 86 q 348 39 314 15 q 279 -10 230 -10 z m 230 41 l 230 41 q 266 41 291 63 q 315 85 330 127 q 344 168 350 227 q 356 285 356 358 l 356 358 q 356 428 351 486 q 345 544 331 586 q 316 628 292 651 q 267 674 230 674 l 230 674 q 193 674 169 652 q 145 629 131 587 q 117 545 111 487 q 105 429 105 358 l 105 358 q 105 285 112 227 q 118 168 133 127 q 147 85 171 63 q 195 41 230 41 z"},"1":{"ha":461,"x_min":74,"x_max":292,"o":"m 292 714 l 292 0 l 237 0 l 237 527 q 237 562 238 592 q 238 621 239 650 l 239 650 q 231 640 221 630 q 210 619 196 605 l 196 605 l 107 523 l 74 559 l 244 714 l 292 714 z"},"2":{"ha":461,"x_min":41,"x_max":407,"o":"m 407 0 l 41 0 l 41 43 l 205 261 q 247 317 275 362 q 303 406 317 448 q 331 490 331 540 l 331 540 q 331 583 316 613 q 300 643 272 659 q 244 674 207 674 l 207 674 q 169 674 137 661 q 104 647 75 626 l 75 626 l 47 667 q 71 684 97 697 q 123 710 152 718 q 180 725 211 725 l 211 725 q 263 725 303 703 q 342 681 365 641 q 387 600 387 542 l 387 542 q 387 484 370 436 q 353 387 323 340 q 293 293 252 241 l 252 241 l 110 54 l 110 51 l 407 51 l 407 0 z"},"3":{"ha":461,"x_min":33,"x_max":400,"o":"m 192 -11 l 192 -11 q 147 -11 107 -4 q 66 3 33 17 l 33 17 l 33 71 q 67 56 105 48 q 143 39 188 39 l 188 39 q 265 39 304 81 q 342 122 342 196 l 342 196 q 342 248 321 281 q 299 313 260 329 q 220 345 165 345 l 165 345 l 118 345 l 118 394 l 168 394 q 217 394 254 413 q 290 432 310 467 q 330 501 330 546 l 330 546 q 330 610 297 643 q 263 675 206 675 l 206 675 q 163 675 129 661 q 94 647 61 623 l 61 623 l 33 664 q 75 694 118 710 q 160 725 209 725 l 209 725 q 262 725 302 705 q 342 684 364 646 q 386 607 386 552 l 386 552 q 386 504 370 468 q 353 432 324 409 q 295 385 256 374 l 256 374 l 256 371 q 324 359 362 315 q 400 270 400 194 l 400 194 q 400 131 375 85 q 350 39 304 14 q 257 -11 192 -11 z"},"4":{"ha":461,"x_min":20,"x_max":444,"o":"m 354 0 l 299 0 l 299 169 l 20 169 l 20 216 l 295 719 l 354 719 l 354 219 l 444 219 l 444 169 l 354 169 l 354 0 z m 256 555 l 74 219 l 299 219 l 299 536 q 299 556 300 574 q 300 592 301 610 q 301 627 301 645 l 301 645 l 299 645 q 289 621 279 599 q 268 577 256 555 l 256 555 z"},"5":{"ha":461,"x_min":54,"x_max":410,"o":"m 194 -11 l 194 -11 q 151 -11 116 -3 q 80 4 54 17 l 54 17 l 54 72 q 82 57 117 48 q 151 39 193 39 l 193 39 q 247 39 283 63 q 318 86 336 128 q 354 169 354 222 l 354 222 q 354 299 317 341 q 280 383 204 383 l 204 383 q 175 383 146 378 q 117 373 92 365 l 92 365 l 65 388 l 89 714 l 370 714 l 370 662 l 137 662 l 118 419 q 140 425 166 429 q 192 432 218 432 l 218 432 q 280 432 323 407 q 366 381 388 335 q 410 288 410 224 l 410 224 q 410 154 386 101 q 361 48 313 19 q 264 -11 194 -11 z"},"6":{"ha":461,"x_min":53,"x_max":416,"o":"m 241 -11 l 241 -11 q 192 -11 157 11 q 121 33 98 74 q 75 115 64 174 q 53 233 53 306 l 53 306 q 53 394 64 462 q 75 530 96 580 q 116 629 147 661 q 177 693 217 709 q 256 725 304 725 l 304 725 q 324 725 343 723 q 362 720 379 716 l 379 716 l 379 665 q 363 670 344 673 q 325 675 305 675 l 305 675 q 244 675 201 640 q 157 604 134 533 q 110 461 108 352 l 108 352 l 111 352 q 122 376 141 398 q 160 419 188 432 q 215 445 252 445 l 252 445 q 307 445 344 418 q 380 390 398 340 q 416 290 416 225 l 416 225 q 416 154 396 101 q 376 48 337 19 q 297 -11 241 -11 z m 239 39 l 239 39 q 298 39 330 87 q 361 134 361 224 l 361 224 q 361 305 332 351 q 303 396 242 396 l 242 396 q 202 396 173 376 q 143 356 127 324 q 111 291 111 252 l 111 252 q 111 220 118 183 q 124 146 139 114 q 153 81 178 60 q 202 39 239 39 z"},"7":{"ha":461,"x_min":35,"x_max":419,"o":"m 172 0 l 113 0 l 360 662 l 35 662 l 35 714 l 419 714 l 419 672 l 172 0 z"},"8":{"ha":461,"x_min":43,"x_max":419,"o":"m 233 -11 l 233 -11 q 175 -11 132 12 q 89 34 66 76 q 43 117 43 174 l 43 174 q 43 222 60 259 q 76 295 108 324 q 139 353 182 376 l 182 376 q 145 400 118 427 q 91 454 77 487 q 62 520 62 559 l 62 559 q 62 610 84 647 q 105 684 144 704 q 182 724 233 724 l 233 724 q 284 724 322 705 q 360 685 381 649 q 401 612 401 560 l 401 560 q 401 517 386 484 q 371 451 343 425 q 314 399 274 377 l 274 377 q 316 352 349 324 q 381 296 400 261 q 419 226 419 178 l 419 178 q 419 121 395 79 q 371 36 330 13 q 288 -11 233 -11 z m 231 37 l 231 37 q 292 37 328 75 q 363 113 363 177 l 363 177 q 363 209 351 237 q 339 265 313 291 q 286 317 244 340 l 244 340 l 225 350 q 186 330 158 305 q 129 280 114 249 q 98 217 98 174 l 98 174 q 98 111 134 74 q 170 37 231 37 z m 232 402 l 232 402 q 268 423 294 445 q 319 467 333 495 q 346 522 346 558 l 346 558 q 346 616 316 646 q 285 676 232 676 l 232 676 q 179 676 148 645 q 116 613 116 556 l 116 556 q 116 521 130 494 q 144 467 170 445 q 195 423 232 402 z"},"9":{"ha":461,"x_min":45,"x_max":408,"o":"m 158 -11 l 158 -11 q 140 -11 118 -8 q 96 -6 81 -2 l 81 -2 l 81 50 q 96 44 116 42 q 136 39 157 39 l 157 39 q 206 39 242 61 q 278 82 303 124 q 327 165 340 226 q 353 286 354 363 l 354 363 l 351 363 q 340 338 321 317 q 302 295 275 282 q 247 269 209 269 l 209 269 q 155 269 119 297 q 82 325 64 375 q 45 424 45 489 l 45 489 q 45 560 66 613 q 86 666 126 696 q 166 725 223 725 l 223 725 q 272 725 307 704 q 342 682 365 641 q 387 600 398 542 q 408 484 408 411 l 408 411 q 408 323 398 254 q 387 185 366 135 q 345 85 315 53 q 284 20 245 5 q 205 -11 158 -11 z m 220 318 l 220 318 q 261 318 290 339 q 319 359 335 393 q 351 426 351 465 l 351 465 q 351 496 346 532 q 340 567 326 600 q 311 633 286 654 q 261 674 223 674 l 223 674 q 164 674 133 627 q 101 580 101 490 l 101 490 q 101 410 130 364 q 159 318 220 318 z"},"\r":{"ha":247,"x_min":0,"x_max":0,"o":""}," ":{"ha":247,"x_min":0,"x_max":0,"o":""},"ഀ":{"ha":0,"x_min":-399,"x_max":-158,"o":"m -399 724 l -399 724 q -399 789 -365 827 q -332 864 -279 864 l -279 864 q -225 864 -191 827 q -158 790 -158 725 l -158 725 q -158 660 -191 623 q -224 585 -279 585 l -279 585 q -333 585 -366 623 q -399 660 -399 724 z m -351 725 l -351 725 q -351 682 -333 656 q -315 629 -279 629 l -279 629 q -242 629 -223 656 q -205 682 -205 725 l -205 725 q -205 768 -224 794 q -243 820 -279 820 l -279 820 q -314 820 -332 794 q -351 768 -351 725 z"},"ഁ":{"ha":0,"x_min":-416,"x_max":-140,"o":"m -278 663 l -278 663 q -341 663 -378 699 q -416 734 -416 809 l -416 809 q -416 820 -414 834 q -413 848 -409 860 l -409 860 l -365 853 q -367 843 -368 831 q -370 818 -370 808 l -370 808 q -370 772 -358 750 q -347 727 -326 718 q -306 708 -279 708 l -279 708 q -249 708 -228 719 q -208 729 -197 752 q -187 774 -187 809 l -187 809 q -187 818 -188 831 q -189 843 -192 853 l -192 853 l -147 860 q -144 848 -142 834 q -140 820 -140 809 l -140 809 q -140 735 -178 699 q -217 663 -278 663 z m -278 769 l -278 769 q -296 769 -304 781 q -313 792 -313 810 l -313 810 q -313 827 -304 839 q -296 850 -278 850 l -278 850 q -260 850 -251 839 q -243 827 -243 810 l -243 810 q -243 792 -251 781 q -260 769 -278 769 z"},"ം":{"ha":369,"x_min":34,"x_max":335,"o":"m 184 -12 l 184 -12 q 138 -12 105 10 q 71 32 53 73 q 34 114 34 171 l 34 171 q 34 229 53 270 q 72 310 106 332 q 139 354 185 354 l 185 354 q 230 354 264 333 q 297 311 316 271 q 335 231 335 172 l 335 172 q 335 113 316 72 q 297 31 264 10 q 230 -12 184 -12 z m 185 308 l 185 308 q 140 308 114 275 q 87 241 87 171 l 87 171 q 87 100 114 67 q 140 34 184 34 l 184 34 q 228 34 255 68 q 282 101 282 172 l 282 172 q 282 241 256 275 q 229 308 185 308 z"},"ഃ":{"ha":281,"x_min":33,"x_max":248,"o":"m 33 435 l 33 435 q 33 494 63 528 q 92 562 140 562 l 140 562 q 188 562 218 529 q 248 495 248 435 l 248 435 q 248 376 219 342 q 189 308 140 308 l 140 308 q 92 308 63 342 q 33 376 33 435 z m 80 436 l 80 436 q 80 397 96 375 q 111 352 140 352 l 140 352 q 170 352 186 375 q 202 397 202 436 l 202 436 q 202 474 186 496 q 170 518 140 518 l 140 518 q 112 518 96 496 q 80 474 80 436 z m 33 115 l 33 115 q 33 174 63 208 q 92 242 140 242 l 140 242 q 188 242 218 209 q 248 175 248 115 l 248 115 q 248 56 219 22 q 189 -12 140 -12 l 140 -12 q 92 -12 63 22 q 33 56 33 115 z m 80 115 l 80 115 q 80 76 96 54 q 111 31 140 31 l 140 31 q 170 31 186 54 q 202 76 202 115 l 202 115 q 202 154 186 176 q 170 198 140 198 l 140 198 q 112 198 96 176 q 80 154 80 115 z"},"ഄ":{"ha":488,"x_min":38,"x_max":450,"o":"m 52 311 l 52 311 l 103 301 q 97 277 95 254 q 92 230 92 205 l 92 205 q 92 129 125 84 q 158 39 243 39 l 243 39 q 329 39 363 84 q 396 129 396 204 l 396 204 q 396 230 394 254 q 391 277 384 301 l 384 301 l 436 311 q 441 290 446 262 q 450 234 450 203 l 450 203 q 450 141 430 93 q 409 45 364 18 q 318 -9 243 -9 l 243 -9 q 169 -9 124 18 q 78 45 58 93 q 38 141 38 203 l 38 203 q 38 234 42 262 q 46 290 52 311 z m 220 165 l 220 397 l 270 397 l 270 165 l 220 165 z"},"അ":{"ha":1195,"x_min":40,"x_max":1155,"o":"m 307 562 l 307 562 q 340 562 375 556 q 410 550 443 534 l 443 534 q 447 533 451 530 q 454 526 458 523 l 458 523 q 492 510 515 488 q 538 466 551 437 q 563 408 563 371 l 563 371 q 563 340 553 316 q 543 291 521 274 q 498 257 459 248 l 459 248 l 459 256 q 513 248 543 215 q 572 182 572 128 l 572 128 q 572 87 556 56 q 540 24 509 6 q 477 -12 429 -12 l 429 -12 q 370 -12 331 17 q 292 46 273 101 q 253 155 253 232 l 253 232 q 253 288 267 342 q 281 395 311 440 q 340 485 385 514 l 385 514 q 389 517 393 521 q 397 524 401 527 l 401 527 q 430 544 463 553 q 496 562 535 562 l 535 562 q 595 562 634 543 q 673 524 696 490 q 718 456 729 412 l 729 412 l 743 275 l 743 0 l 689 0 l 689 302 q 689 374 680 414 q 670 453 645 478 l 645 478 q 627 497 599 507 q 571 517 530 517 l 530 517 q 505 517 485 512 q 464 507 445 499 l 445 499 q 410 484 384 456 q 357 428 340 392 q 322 356 314 315 q 305 274 305 231 l 305 231 q 305 134 336 84 q 366 33 428 33 l 428 33 q 472 33 496 57 q 519 80 519 128 l 519 128 q 519 172 492 200 q 464 228 409 228 l 409 228 l 398 228 l 398 275 l 406 275 q 459 275 485 302 q 510 329 510 371 l 510 371 q 510 423 483 455 q 455 486 408 500 l 408 500 q 381 511 357 514 q 333 516 310 516 l 310 516 q 235 516 188 485 q 140 454 118 401 q 95 348 95 283 l 95 283 q 95 221 109 175 q 122 128 147 93 q 171 58 202 31 l 202 31 l 166 -7 q 134 20 105 60 q 76 99 58 155 q 40 211 40 285 l 40 285 q 40 343 56 393 q 72 443 105 481 q 138 519 189 541 q 239 562 307 562 z m 996 -12 l 996 -12 q 944 -12 911 15 q 878 41 862 88 q 846 134 846 193 l 846 193 q 846 291 887 341 q 927 391 994 391 l 994 391 q 1032 391 1059 375 q 1086 359 1106 331 q 1125 302 1138 266 l 1138 266 l 1121 250 q 1112 272 1096 294 q 1080 316 1058 331 q 1035 345 1003 345 l 1003 345 q 950 345 925 305 q 900 265 900 193 l 900 193 q 900 145 910 109 q 919 73 941 54 q 962 34 997 34 l 997 34 q 1030 34 1054 55 q 1078 75 1091 121 q 1103 167 1103 243 l 1103 243 q 1103 253 1102 271 q 1101 288 1100 301 l 1100 301 q 1099 305 1100 311 q 1100 316 1099 321 l 1099 321 q 1091 371 1068 415 q 1045 459 1004 487 q 962 514 898 514 l 898 514 q 863 514 838 506 q 812 497 793 480 l 793 480 q 776 465 765 443 q 754 421 749 390 q 743 359 743 314 l 743 314 l 743 234 l 707 416 q 719 461 743 494 q 767 527 806 545 q 844 562 896 562 l 896 562 q 961 562 1010 539 q 1058 516 1091 473 q 1123 430 1139 371 q 1155 312 1155 240 l 1155 240 q 1155 146 1135 91 q 1114 35 1078 12 q 1042 -12 996 -12 z"},"ആ":{"ha":1310,"x_min":40,"x_max":1284,"o":"m 307 562 l 307 562 q 340 562 375 556 q 410 550 443 534 l 443 534 q 447 533 451 530 q 454 526 458 523 l 458 523 q 492 510 515 488 q 538 466 551 437 q 563 408 563 371 l 563 371 q 563 340 553 316 q 543 291 521 274 q 498 257 459 248 l 459 248 l 459 256 q 513 248 543 215 q 572 182 572 128 l 572 128 q 572 87 556 56 q 540 24 509 6 q 477 -12 429 -12 l 429 -12 q 370 -12 331 17 q 292 46 273 101 q 253 155 253 232 l 253 232 q 253 288 267 342 q 281 395 311 440 q 340 485 385 514 l 385 514 q 389 517 393 521 q 397 524 401 527 l 401 527 q 430 544 463 553 q 496 562 535 562 l 535 562 q 595 562 634 543 q 673 524 696 490 q 718 456 729 412 l 729 412 l 743 275 l 743 0 l 689 0 l 689 302 q 689 374 680 414 q 670 453 645 478 l 645 478 q 627 497 599 507 q 571 517 530 517 l 530 517 q 505 517 485 512 q 464 507 445 499 l 445 499 q 410 484 384 456 q 357 428 340 392 q 322 356 314 315 q 305 274 305 231 l 305 231 q 305 134 336 84 q 366 33 428 33 l 428 33 q 472 33 496 57 q 519 80 519 128 l 519 128 q 519 172 492 200 q 464 228 409 228 l 409 228 l 398 228 l 398 275 l 406 275 q 459 275 485 302 q 510 329 510 371 l 510 371 q 510 423 483 455 q 455 486 408 500 l 408 500 q 381 511 357 514 q 333 516 310 516 l 310 516 q 235 516 188 485 q 140 454 118 401 q 95 348 95 283 l 95 283 q 95 221 109 175 q 122 128 147 93 q 171 58 202 31 l 202 31 l 166 -7 q 134 20 105 60 q 76 99 58 155 q 40 211 40 285 l 40 285 q 40 343 56 393 q 72 443 105 481 q 138 519 189 541 q 239 562 307 562 z m 892 562 l 892 562 q 965 562 1014 531 q 1063 500 1092 448 q 1120 396 1131 332 l 1131 332 q 1135 307 1137 280 q 1139 252 1139 225 l 1139 225 q 1139 138 1119 86 q 1098 34 1063 11 q 1027 -12 979 -12 l 979 -12 q 928 -12 896 13 q 864 37 850 78 q 836 118 836 164 l 836 164 q 836 264 893 317 q 949 369 1045 369 l 1045 369 q 1056 369 1068 368 q 1079 367 1090 365 l 1090 365 l 1106 363 q 1165 349 1205 310 q 1244 270 1264 212 q 1284 154 1284 86 l 1284 86 q 1284 19 1268 -34 q 1252 -88 1220 -125 q 1187 -162 1140 -181 q 1092 -201 1029 -201 l 1029 -201 q 995 -201 965 -195 q 935 -190 909 -181 l 909 -181 l 925 -136 q 948 -144 974 -148 q 1000 -153 1030 -153 l 1030 -153 q 1084 -153 1123 -135 q 1161 -117 1185 -85 q 1209 -53 1220 -9 q 1231 35 1231 89 l 1231 89 q 1231 140 1219 185 q 1207 229 1183 262 q 1158 294 1120 310 l 1120 310 l 1100 314 q 1087 319 1073 321 q 1059 323 1047 323 l 1047 323 q 1000 323 965 307 q 929 291 910 257 q 890 222 890 166 l 890 166 q 890 131 898 101 q 906 71 926 53 q 946 35 980 35 l 980 35 q 1034 35 1061 82 q 1087 128 1087 228 l 1087 228 q 1087 254 1085 282 q 1082 310 1077 337 l 1077 337 l 1074 354 q 1064 397 1043 434 q 1021 470 985 492 q 948 514 893 514 l 893 514 q 862 514 837 506 q 811 497 792 480 l 792 480 q 775 465 765 443 q 754 421 749 390 q 743 359 743 314 l 743 314 l 743 224 l 707 416 q 718 462 743 495 q 768 528 805 545 q 842 562 892 562 z"},"ഇ":{"ha":782,"x_min":39,"x_max":742,"o":"m 260 562 l 260 562 q 311 562 345 548 q 378 533 400 506 q 422 479 436 440 l 436 440 l 421 445 q 441 508 477 535 q 513 562 562 562 l 562 562 q 608 562 642 542 q 676 522 699 487 q 721 451 732 405 q 742 358 742 306 l 742 306 q 742 221 722 160 q 702 99 658 61 l 658 61 q 632 40 600 26 q 568 12 523 6 q 478 0 411 0 l 411 0 l 237 0 q 192 0 167 -4 q 142 -8 126 -21 l 126 -21 q 113 -30 107 -43 q 101 -57 101 -75 l 101 -75 q 101 -94 108 -108 q 114 -122 127 -131 l 127 -131 q 142 -143 168 -148 q 193 -153 236 -153 l 236 -153 l 727 -153 l 727 -201 l 230 -201 q 183 -201 151 -194 q 118 -187 93 -170 l 93 -170 q 71 -155 59 -132 q 46 -109 46 -77 l 46 -77 q 46 -48 56 -25 q 66 -3 86 12 l 86 12 q 100 24 119 32 q 137 39 163 43 q 189 47 227 47 l 227 47 l 405 47 q 469 47 510 53 q 550 58 576 70 q 602 81 622 98 l 622 98 q 659 131 673 185 q 687 238 687 304 l 687 304 q 687 358 674 406 q 661 454 633 485 q 605 515 560 515 l 560 515 q 538 515 522 508 q 505 501 493 487 l 493 487 q 472 464 464 427 q 455 389 455 328 l 455 328 l 455 119 l 401 119 l 401 326 q 401 388 391 425 q 381 461 357 483 l 357 483 q 340 499 317 507 q 294 515 259 515 l 259 515 q 221 515 192 502 q 162 488 142 465 q 121 442 108 413 q 95 384 89 353 l 89 353 q 88 350 90 346 q 91 342 90 339 l 90 339 q 89 332 88 323 q 87 314 87 304 l 87 304 q 87 231 107 193 q 127 154 172 154 l 172 154 q 208 154 226 183 q 243 212 243 258 l 243 258 q 243 285 236 307 q 229 329 213 342 q 197 355 170 355 l 170 355 q 137 355 113 338 q 88 320 67 295 l 67 295 l 52 330 q 66 349 85 365 q 104 381 128 391 q 151 401 178 401 l 178 401 q 220 401 246 382 q 272 362 285 330 q 297 297 297 258 l 297 258 q 297 214 283 181 q 269 147 242 128 q 214 109 172 109 l 172 109 q 131 109 101 131 q 71 152 55 197 q 39 241 39 309 l 39 309 q 39 380 65 437 q 91 494 141 528 q 190 562 260 562 z"},"ഈ":{"ha":1393,"x_min":39,"x_max":1351,"o":"m 260 562 l 260 562 q 311 562 345 548 q 378 533 400 506 q 422 479 436 440 l 436 440 l 421 445 q 441 508 477 535 q 513 562 562 562 l 562 562 q 608 562 642 542 q 676 522 699 487 q 721 451 732 405 q 742 358 742 306 l 742 306 q 742 221 722 160 q 702 99 658 61 l 658 61 q 632 40 600 26 q 568 12 523 6 q 478 0 411 0 l 411 0 l 237 0 q 192 0 167 -4 q 142 -8 126 -21 l 126 -21 q 113 -30 107 -43 q 101 -57 101 -75 l 101 -75 q 101 -94 108 -108 q 114 -122 127 -131 l 127 -131 q 142 -143 168 -148 q 193 -153 236 -153 l 236 -153 l 727 -153 l 727 -201 l 230 -201 q 183 -201 151 -194 q 118 -187 93 -170 l 93 -170 q 71 -155 59 -132 q 46 -109 46 -77 l 46 -77 q 46 -48 56 -25 q 66 -3 86 12 l 86 12 q 100 24 119 32 q 137 39 163 43 q 189 47 227 47 l 227 47 l 405 47 q 469 47 510 53 q 550 58 576 70 q 602 81 622 98 l 622 98 q 659 131 673 185 q 687 238 687 304 l 687 304 q 687 358 674 406 q 661 454 633 485 q 605 515 560 515 l 560 515 q 538 515 522 508 q 505 501 493 487 l 493 487 q 472 464 464 427 q 455 389 455 328 l 455 328 l 455 119 l 401 119 l 401 326 q 401 388 391 425 q 381 461 357 483 l 357 483 q 340 499 317 507 q 294 515 259 515 l 259 515 q 221 515 192 502 q 162 488 142 465 q 121 442 108 413 q 95 384 89 353 l 89 353 q 88 350 90 346 q 91 342 90 339 l 90 339 q 89 332 88 323 q 87 314 87 304 l 87 304 q 87 231 107 193 q 127 154 172 154 l 172 154 q 208 154 226 183 q 243 212 243 258 l 243 258 q 243 285 236 307 q 229 329 213 342 q 197 355 170 355 l 170 355 q 137 355 113 338 q 88 320 67 295 l 67 295 l 52 330 q 66 349 85 365 q 104 381 128 391 q 151 401 178 401 l 178 401 q 220 401 246 382 q 272 362 285 330 q 297 297 297 258 l 297 258 q 297 214 283 181 q 269 147 242 128 q 214 109 172 109 l 172 109 q 131 109 101 131 q 71 152 55 197 q 39 241 39 309 l 39 309 q 39 380 65 437 q 91 494 141 528 q 190 562 260 562 z m 1195 562 l 1195 562 q 1244 562 1279 532 q 1314 502 1333 445 q 1351 387 1351 303 l 1351 303 q 1351 196 1327 126 q 1302 56 1251 22 q 1200 -12 1121 -12 l 1121 -12 q 1078 -12 1037 -3 q 996 6 955 27 l 955 27 l 981 71 q 1013 55 1046 46 q 1078 37 1118 37 l 1118 37 q 1186 37 1225 68 q 1264 98 1280 157 q 1296 216 1296 303 l 1296 303 q 1296 409 1268 462 q 1240 514 1191 514 l 1191 514 q 1170 514 1156 507 q 1142 499 1132 485 l 1132 485 q 1117 463 1112 431 q 1106 398 1106 349 l 1106 349 l 1106 257 l 1053 257 l 1053 350 q 1053 400 1048 432 q 1042 463 1028 483 l 1028 483 q 1018 498 1002 506 q 986 514 966 514 l 966 514 q 920 514 897 478 q 873 442 873 387 l 873 387 q 873 354 878 324 q 882 293 889 265 l 889 265 l 839 254 q 830 285 825 320 q 819 354 819 390 l 819 390 q 819 438 836 477 q 852 516 884 539 q 916 562 963 562 l 963 562 q 1007 562 1038 538 q 1069 513 1083 459 l 1083 459 l 1074 459 q 1089 514 1121 538 q 1152 562 1195 562 z"},"ഉ":{"ha":554,"x_min":39,"x_max":514,"o":"m 278 562 l 278 562 q 339 562 384 541 q 428 519 457 481 q 486 443 500 394 q 514 344 514 288 l 514 288 q 514 207 497 151 q 479 95 439 60 l 439 60 q 414 38 384 25 q 354 12 316 6 q 278 0 229 0 l 229 0 l 221 0 q 188 0 165 -4 q 142 -8 126 -21 l 126 -21 q 113 -29 107 -43 q 101 -57 101 -75 l 101 -75 q 101 -94 108 -108 q 114 -122 127 -131 l 127 -131 q 142 -143 168 -148 q 193 -153 236 -153 l 236 -153 l 498 -153 l 498 -201 l 230 -201 q 183 -201 151 -194 q 118 -187 93 -170 l 93 -170 q 71 -155 59 -132 q 46 -109 46 -77 l 46 -77 q 46 -48 56 -25 q 66 -2 86 13 l 86 13 q 107 30 138 38 q 169 46 217 47 l 217 47 l 221 47 q 272 47 306 53 q 339 58 362 69 q 385 80 402 96 l 402 96 q 436 127 448 176 q 459 225 459 287 l 459 287 q 459 334 448 375 q 437 416 415 448 q 393 480 358 498 q 323 515 275 515 l 275 515 q 231 515 199 502 q 166 488 144 465 q 121 441 108 412 q 95 383 89 353 l 89 353 q 88 350 90 346 q 91 342 90 339 l 90 339 q 89 332 88 323 q 87 314 87 304 l 87 304 q 87 231 107 193 q 127 154 172 154 l 172 154 q 208 154 226 183 q 243 212 243 258 l 243 258 q 243 285 236 307 q 229 329 213 342 q 197 355 170 355 l 170 355 q 137 355 113 338 q 88 320 67 295 l 67 295 l 52 330 q 66 349 85 365 q 104 381 128 391 q 151 401 178 401 l 178 401 q 220 401 246 382 q 272 362 285 330 q 297 297 297 258 l 297 258 q 297 214 283 181 q 269 147 242 128 q 214 109 172 109 l 172 109 q 131 109 101 131 q 71 152 55 197 q 39 241 39 309 l 39 309 q 39 362 55 408 q 70 454 100 489 q 130 523 175 543 q 219 562 278 562 z"},"ഊ":{"ha":1163,"x_min":39,"x_max":1121,"o":"m 278 562 l 278 562 q 339 562 384 541 q 428 519 457 481 q 486 443 500 394 q 514 344 514 288 l 514 288 q 514 207 497 151 q 479 95 439 60 l 439 60 q 414 38 384 25 q 354 12 316 6 q 278 0 229 0 l 229 0 l 221 0 q 188 0 165 -4 q 142 -8 126 -21 l 126 -21 q 113 -29 107 -43 q 101 -57 101 -75 l 101 -75 q 101 -94 108 -108 q 114 -122 127 -131 l 127 -131 q 142 -143 168 -148 q 193 -153 236 -153 l 236 -153 l 498 -153 l 498 -201 l 230 -201 q 183 -201 151 -194 q 118 -187 93 -170 l 93 -170 q 71 -155 59 -132 q 46 -109 46 -77 l 46 -77 q 46 -48 56 -25 q 66 -2 86 13 l 86 13 q 107 30 138 38 q 169 46 217 47 l 217 47 l 221 47 q 272 47 306 53 q 339 58 362 69 q 385 80 402 96 l 402 96 q 436 127 448 176 q 459 225 459 287 l 459 287 q 459 334 448 375 q 437 416 415 448 q 393 480 358 498 q 323 515 275 515 l 275 515 q 231 515 199 502 q 166 488 144 465 q 121 441 108 412 q 95 383 89 353 l 89 353 q 88 350 90 346 q 91 342 90 339 l 90 339 q 89 332 88 323 q 87 314 87 304 l 87 304 q 87 231 107 193 q 127 154 172 154 l 172 154 q 208 154 226 183 q 243 212 243 258 l 243 258 q 243 285 236 307 q 229 329 213 342 q 197 355 170 355 l 170 355 q 137 355 113 338 q 88 320 67 295 l 67 295 l 52 330 q 66 349 85 365 q 104 381 128 391 q 151 401 178 401 l 178 401 q 220 401 246 382 q 272 362 285 330 q 297 297 297 258 l 297 258 q 297 214 283 181 q 269 147 242 128 q 214 109 172 109 l 172 109 q 131 109 101 131 q 71 152 55 197 q 39 241 39 309 l 39 309 q 39 362 55 408 q 70 454 100 489 q 130 523 175 543 q 219 562 278 562 z m 965 562 l 965 562 q 1014 562 1049 532 q 1084 502 1103 445 q 1121 387 1121 303 l 1121 303 q 1121 196 1097 126 q 1072 56 1021 22 q 970 -12 891 -12 l 891 -12 q 848 -12 807 -3 q 766 6 725 27 l 725 27 l 751 71 q 783 55 816 46 q 848 37 888 37 l 888 37 q 956 37 995 68 q 1034 98 1050 157 q 1066 216 1066 303 l 1066 303 q 1066 409 1038 462 q 1010 514 961 514 l 961 514 q 940 514 926 507 q 912 499 902 485 l 902 485 q 887 463 882 431 q 876 398 876 349 l 876 349 l 876 257 l 823 257 l 823 350 q 823 400 818 432 q 812 463 798 483 l 798 483 q 788 498 772 506 q 756 514 736 514 l 736 514 q 690 514 667 478 q 643 442 643 387 l 643 387 q 643 354 648 324 q 652 293 659 265 l 659 265 l 609 254 q 600 285 595 320 q 589 354 589 390 l 589 390 q 589 438 606 477 q 622 516 654 539 q 686 562 733 562 l 733 562 q 777 562 808 538 q 839 513 853 459 l 853 459 l 844 459 q 859 514 891 538 q 922 562 965 562 z"},"ഋ":{"ha":706,"x_min":38,"x_max":668,"o":"m 527 562 l 527 562 q 593 562 631 510 q 668 457 668 364 l 668 364 q 668 304 653 259 q 637 213 607 180 l 607 180 q 570 139 514 120 q 457 100 377 100 l 377 100 l 329 100 q 276 100 234 108 q 191 116 159 134 q 126 151 102 177 l 102 177 q 71 210 55 256 q 38 302 38 361 l 38 361 q 38 422 56 467 q 73 512 106 537 q 139 562 186 562 l 186 562 q 229 562 257 542 q 284 522 298 489 q 312 455 312 412 l 312 412 q 312 367 298 334 q 283 301 255 283 q 227 264 184 264 l 184 264 q 155 264 132 273 q 109 282 90 297 q 71 312 54 330 l 54 330 l 70 369 q 84 353 99 340 q 113 326 132 318 q 151 310 175 310 l 175 310 q 219 310 240 337 q 260 364 260 413 l 260 413 q 260 458 241 487 q 222 515 184 515 l 184 515 q 152 515 130 496 q 108 477 98 443 q 87 409 87 363 l 87 363 q 87 353 88 342 q 89 330 91 320 l 91 320 l 90 306 q 98 261 120 229 q 141 197 174 178 q 206 158 249 149 q 291 139 342 139 l 342 139 l 362 139 q 415 139 458 149 q 501 158 534 178 q 566 198 587 230 q 607 262 616 306 l 616 306 l 614 321 q 616 330 617 342 q 618 353 618 363 l 618 363 q 618 411 608 445 q 598 479 578 497 q 558 515 526 515 l 526 515 q 486 515 466 486 q 446 456 446 409 l 446 409 q 446 362 466 336 q 486 310 528 310 l 528 310 q 553 310 572 318 q 591 325 607 339 q 622 352 635 368 l 635 368 l 651 329 q 635 312 616 297 q 597 282 573 273 q 549 264 521 264 l 521 264 q 478 264 450 283 q 421 301 408 334 q 394 367 394 410 l 394 410 q 394 453 409 487 q 423 521 453 542 q 482 562 527 562 z m 353 -208 l 353 -208 q 256 -208 192 -189 q 128 -170 97 -131 q 65 -93 65 -35 l 65 -35 q 65 8 84 39 q 103 69 137 88 q 170 107 215 116 q 259 124 309 124 l 309 124 l 396 124 q 446 124 491 116 q 535 107 569 88 q 602 69 622 39 q 641 8 641 -35 l 641 -35 q 641 -91 611 -129 q 580 -168 517 -188 q 453 -208 353 -208 z m 353 -160 l 353 -160 q 437 -160 488 -146 q 539 -132 563 -104 q 586 -76 586 -34 l 586 -34 q 586 0 571 24 q 555 47 526 63 q 496 78 454 85 q 412 92 358 92 l 358 92 l 347 92 q 275 92 224 79 q 173 66 147 38 q 120 10 120 -34 l 120 -34 q 120 -76 143 -104 q 166 -132 218 -146 q 269 -160 353 -160 z"},"ഌ":{"ha":930,"x_min":42,"x_max":890,"o":"m 286 562 l 286 562 q 356 562 397 530 q 438 497 459 437 l 459 437 l 468 390 l 477 272 l 477 0 l 424 0 l 424 321 q 424 384 414 422 q 404 459 380 482 l 380 482 q 363 498 341 506 q 319 514 286 514 l 286 514 q 228 514 185 479 q 141 444 118 383 q 94 321 94 241 l 94 241 l 94 223 q 94 155 106 114 q 118 72 141 54 q 163 35 193 35 l 193 35 q 215 35 233 47 q 250 58 260 84 q 270 110 270 154 l 270 154 q 270 209 249 239 q 227 268 186 268 l 186 268 q 152 268 125 251 q 97 233 73 204 l 73 204 l 60 244 q 88 277 123 296 q 157 314 195 314 l 195 314 q 233 314 262 297 q 290 280 307 245 q 323 210 323 156 l 323 156 q 323 97 307 60 q 290 23 261 6 q 232 -12 193 -12 l 193 -12 q 151 -12 117 11 q 83 34 63 88 q 42 142 42 233 l 42 233 q 42 340 74 414 q 106 487 161 525 q 216 562 286 562 z m 730 -12 l 730 -12 q 678 -12 645 15 q 612 41 596 88 q 580 134 580 193 l 580 193 q 580 291 621 341 q 661 391 728 391 l 728 391 q 766 391 793 375 q 820 359 840 331 q 860 302 872 266 l 872 266 l 856 250 q 846 272 831 294 q 815 316 792 331 q 769 345 738 345 l 738 345 q 684 345 659 305 q 634 265 634 193 l 634 193 q 634 145 644 109 q 653 73 675 54 q 696 34 731 34 l 731 34 q 764 34 788 55 q 812 75 825 121 q 838 167 838 243 l 838 243 q 838 253 837 271 q 836 288 834 301 l 834 301 q 834 305 834 311 q 834 316 833 321 l 833 321 q 825 371 802 415 q 779 459 738 487 q 696 514 632 514 l 632 514 q 597 514 572 506 q 546 497 527 480 l 527 480 q 510 465 499 443 q 488 421 483 390 q 477 359 477 314 l 477 314 l 477 234 l 441 416 q 453 461 478 494 q 502 527 540 545 q 578 562 630 562 l 630 562 q 695 562 744 539 q 792 516 825 473 q 857 430 874 371 q 890 312 890 240 l 890 240 q 890 146 869 91 q 848 35 813 12 q 777 -12 730 -12 z"},"എ":{"ha":1005,"x_min":33,"x_max":962,"o":"m 184 337 l 184 337 q 233 337 267 315 q 300 293 318 256 q 335 219 335 172 l 335 172 q 335 127 321 91 q 306 55 285 34 l 285 34 l 278 47 l 690 47 l 690 0 l 257 0 l 235 36 q 257 62 270 94 q 282 126 282 166 l 282 166 q 282 226 256 258 q 230 290 185 290 l 185 290 q 154 290 132 275 q 109 259 98 232 q 86 205 86 170 l 86 170 q 86 123 103 89 q 119 55 145 26 l 145 26 l 109 -7 q 77 27 55 70 q 33 113 33 170 l 33 170 q 33 220 52 258 q 71 295 105 316 q 139 337 184 337 z m 713 562 l 713 562 q 775 562 822 537 q 869 511 900 462 q 931 413 947 343 q 962 273 962 185 l 962 185 q 962 106 948 32 q 933 -42 905 -108 q 876 -174 834 -228 l 834 -228 l 791 -198 q 828 -149 854 -91 q 879 -33 893 36 q 907 105 907 185 l 907 185 q 907 252 897 312 q 887 371 864 417 q 841 463 804 489 q 766 514 712 514 l 712 514 q 647 514 602 471 q 557 427 534 344 q 510 261 510 144 l 510 144 q 510 112 511 86 q 512 59 514 36 l 514 36 q 514 32 514 28 q 514 24 515 20 l 515 20 q 520 -54 535 -98 q 550 -142 573 -162 q 595 -182 621 -182 l 621 -182 q 643 -182 655 -170 l 655 -170 q 667 -160 671 -140 q 675 -121 675 -87 l 675 -87 l 675 411 l 729 411 l 729 -77 q 729 -122 722 -151 q 715 -181 697 -199 l 697 -199 q 685 -212 667 -220 q 649 -228 624 -228 l 624 -228 q 573 -228 535 -192 q 497 -156 477 -73 q 456 9 456 145 l 456 145 q 456 247 474 325 q 491 402 524 455 q 557 508 605 535 q 653 562 713 562 z"},"ഏ":{"ha":1007,"x_min":33,"x_max":975,"o":"m 184 337 l 184 337 q 233 337 267 315 q 300 293 318 256 q 335 219 335 172 l 335 172 q 335 127 321 91 q 306 55 285 34 l 285 34 l 278 47 l 690 47 l 690 0 l 257 0 l 235 36 q 257 62 270 94 q 282 126 282 166 l 282 166 q 282 226 256 258 q 230 290 185 290 l 185 290 q 154 290 132 275 q 109 259 98 232 q 86 205 86 170 l 86 170 q 86 123 103 89 q 119 55 145 26 l 145 26 l 109 -7 q 77 27 55 70 q 33 113 33 170 l 33 170 q 33 220 52 258 q 71 295 105 316 q 139 337 184 337 z m 747 562 l 747 562 q 805 562 847 544 q 889 525 916 494 q 942 462 955 422 q 967 382 967 339 l 967 339 q 967 284 951 244 q 935 204 906 178 q 877 151 837 135 l 837 135 l 838 145 q 898 131 937 86 q 975 40 975 -39 l 975 -39 q 975 -107 955 -148 q 935 -190 901 -209 q 866 -228 821 -228 l 821 -228 q 803 -228 786 -226 q 769 -224 756 -221 l 756 -221 l 767 -175 q 779 -178 792 -179 q 804 -181 816 -181 l 816 -181 q 848 -181 872 -167 q 895 -154 908 -123 q 920 -92 920 -39 l 920 -39 q 920 28 887 70 q 853 111 789 113 l 789 113 l 789 160 q 825 171 853 192 q 881 213 897 249 q 912 284 912 337 l 912 337 q 912 386 895 427 q 877 467 841 491 q 804 514 746 514 l 746 514 q 665 514 613 469 q 561 424 536 341 q 510 257 510 144 l 510 144 q 510 113 511 86 q 512 59 514 36 l 514 36 q 514 32 514 28 q 514 24 515 20 l 515 20 q 520 -54 535 -98 q 550 -142 573 -162 q 595 -182 621 -182 l 621 -182 q 643 -182 655 -170 l 655 -170 q 667 -160 671 -140 q 675 -121 675 -87 l 675 -87 l 675 411 l 729 411 l 729 -77 q 729 -122 722 -151 q 715 -181 697 -199 l 697 -199 q 685 -212 667 -220 q 649 -228 624 -228 l 624 -228 q 573 -228 536 -192 q 498 -156 477 -73 q 456 9 456 145 l 456 145 q 456 245 475 323 q 494 400 531 454 q 568 507 623 535 q 677 562 747 562 z"},"ഐ":{"ha":1577,"x_min":40,"x_max":1535,"o":"m 191 -12 l 191 -12 q 149 -12 115 11 q 81 34 61 87 q 40 140 40 231 l 40 231 q 40 311 60 373 q 79 434 115 477 q 150 519 197 541 q 244 562 298 562 l 298 562 q 357 562 401 542 q 445 521 475 484 q 504 446 518 396 q 532 346 532 287 l 532 287 q 532 212 515 158 q 497 103 469 63 q 440 23 406 -8 l 406 -8 l 370 30 q 397 54 422 88 q 446 122 462 170 q 477 217 477 282 l 477 282 q 477 352 457 405 q 436 457 396 486 q 356 514 297 514 l 297 514 q 238 514 192 480 q 145 445 118 381 q 91 317 91 229 l 91 229 q 91 158 104 116 q 116 73 139 54 q 161 35 191 35 l 191 35 q 213 35 230 47 q 247 58 258 84 q 268 110 268 154 l 268 154 q 268 209 247 239 q 225 268 184 268 l 184 268 q 150 268 123 251 q 95 233 71 204 l 71 204 l 58 244 q 86 277 121 296 q 155 314 193 314 l 193 314 q 230 314 259 297 q 288 280 305 245 q 321 210 321 156 l 321 156 q 321 97 305 60 q 288 23 259 6 q 230 -12 191 -12 z m 757 337 l 757 337 q 806 337 840 315 q 873 293 891 256 q 908 219 908 172 l 908 172 q 908 127 894 91 q 879 55 858 34 l 858 34 l 851 47 l 1263 47 l 1263 0 l 830 0 l 808 36 q 830 62 843 94 q 855 126 855 166 l 855 166 q 855 226 829 258 q 803 290 758 290 l 758 290 q 727 290 705 275 q 682 259 671 232 q 659 205 659 170 l 659 170 q 659 123 676 89 q 692 55 718 26 l 718 26 l 682 -7 q 650 27 628 70 q 606 113 606 170 l 606 170 q 606 220 625 258 q 644 295 678 316 q 712 337 757 337 z m 1286 562 l 1286 562 q 1348 562 1395 537 q 1442 511 1473 462 q 1504 413 1520 343 q 1535 273 1535 185 l 1535 185 q 1535 106 1521 32 q 1506 -42 1478 -108 q 1449 -174 1407 -228 l 1407 -228 l 1364 -198 q 1401 -149 1427 -91 q 1452 -33 1466 36 q 1480 105 1480 185 l 1480 185 q 1480 252 1470 312 q 1460 371 1437 417 q 1414 463 1377 489 q 1339 514 1285 514 l 1285 514 q 1220 514 1175 471 q 1130 427 1107 344 q 1083 261 1083 144 l 1083 144 q 1083 112 1084 86 q 1085 59 1087 36 l 1087 36 q 1087 32 1087 28 q 1087 24 1088 20 l 1088 20 q 1093 -54 1108 -98 q 1123 -142 1146 -162 q 1168 -182 1194 -182 l 1194 -182 q 1216 -182 1228 -170 l 1228 -170 q 1240 -160 1244 -140 q 1248 -121 1248 -87 l 1248 -87 l 1248 411 l 1302 411 l 1302 -77 q 1302 -122 1295 -151 q 1288 -181 1270 -199 l 1270 -199 q 1258 -212 1240 -220 q 1222 -228 1197 -228 l 1197 -228 q 1146 -228 1108 -192 q 1070 -156 1050 -73 q 1029 9 1029 145 l 1029 145 q 1029 247 1047 325 q 1064 402 1097 455 q 1130 508 1178 535 q 1226 562 1286 562 z"},"ഒ":{"ha":610,"x_min":39,"x_max":573,"o":"m 364 562 l 364 562 q 435 562 480 540 q 524 518 545 482 q 565 446 565 402 l 565 402 q 565 370 554 344 q 543 317 518 298 q 493 279 451 270 l 451 270 l 450 277 q 507 268 540 230 q 573 192 573 136 l 573 136 q 573 67 536 29 q 498 -10 429 -10 l 429 -10 q 409 -10 389 -7 q 368 -4 352 0 l 352 0 l 363 45 q 379 40 394 38 q 409 36 423 36 l 423 36 q 470 36 494 60 q 518 84 518 136 l 518 136 q 518 164 509 185 q 500 206 483 220 l 483 220 q 466 235 442 243 q 418 250 383 250 l 383 250 l 375 250 l 375 297 l 383 297 q 418 297 443 304 q 467 311 484 327 l 484 327 q 497 340 504 358 q 510 376 510 400 l 510 400 q 510 454 473 484 q 435 514 363 514 l 363 514 q 298 514 248 492 q 198 470 163 432 q 128 393 110 342 q 91 290 91 231 l 91 231 l 91 217 q 91 153 103 113 q 115 72 138 54 q 160 35 190 35 l 190 35 q 212 35 230 46 q 247 57 257 84 q 267 110 267 154 l 267 154 q 267 209 246 239 q 224 268 183 268 l 183 268 q 150 268 123 252 q 96 235 73 206 l 73 206 l 62 249 q 91 280 124 297 q 157 314 192 314 l 192 314 q 230 314 259 297 q 287 280 304 245 q 320 210 320 156 l 320 156 q 320 97 304 60 q 287 23 258 6 q 229 -12 190 -12 l 190 -12 q 149 -12 115 11 q 80 34 60 85 q 39 136 39 222 l 39 222 q 39 296 61 358 q 82 420 124 466 q 165 512 226 537 q 286 562 364 562 z"},"ഓ":{"ha":1019,"x_min":39,"x_max":977,"o":"m 364 562 l 364 562 q 435 562 480 540 q 524 518 545 482 q 565 446 565 402 l 565 402 q 565 370 554 344 q 543 317 518 298 q 493 279 451 270 l 451 270 l 450 277 q 507 268 540 230 q 573 192 573 136 l 573 136 q 573 67 536 29 q 498 -10 429 -10 l 429 -10 q 409 -10 389 -7 q 368 -4 352 0 l 352 0 l 363 45 q 379 40 394 38 q 409 36 423 36 l 423 36 q 470 36 494 60 q 518 84 518 136 l 518 136 q 518 164 509 185 q 500 206 483 220 l 483 220 q 466 235 442 243 q 418 250 383 250 l 383 250 l 375 250 l 375 297 l 383 297 q 418 297 443 304 q 467 311 484 327 l 484 327 q 497 340 504 358 q 510 376 510 400 l 510 400 q 510 454 473 484 q 435 514 363 514 l 363 514 q 298 514 248 492 q 198 470 163 432 q 128 393 110 342 q 91 290 91 231 l 91 231 l 91 217 q 91 153 103 113 q 115 72 138 54 q 160 35 190 35 l 190 35 q 212 35 230 46 q 247 57 257 84 q 267 110 267 154 l 267 154 q 267 209 246 239 q 224 268 183 268 l 183 268 q 150 268 123 252 q 96 235 73 206 l 73 206 l 62 249 q 91 280 124 297 q 157 314 192 314 l 192 314 q 230 314 259 297 q 287 280 304 245 q 320 210 320 156 l 320 156 q 320 97 304 60 q 287 23 258 6 q 229 -12 190 -12 l 190 -12 q 149 -12 115 11 q 80 34 60 85 q 39 136 39 222 l 39 222 q 39 296 61 358 q 82 420 124 466 q 165 512 226 537 q 286 562 364 562 z m 977 277 l 977 277 q 977 212 968 159 q 958 105 938 67 q 917 29 884 9 q 850 -12 802 -12 l 802 -12 q 762 -12 733 3 q 703 17 683 42 q 663 67 651 99 q 639 131 632 165 l 632 165 l 686 176 q 694 141 707 109 q 719 76 742 56 q 765 35 800 35 l 800 35 q 844 35 871 63 q 897 91 910 145 q 922 199 922 277 l 922 277 q 922 353 910 406 q 897 459 871 487 q 845 515 803 515 l 803 515 q 770 515 747 496 q 724 476 711 445 q 697 413 688 376 l 688 376 l 635 387 q 643 421 656 453 q 669 484 690 509 q 710 534 739 548 q 768 562 807 562 l 807 562 q 853 562 886 541 q 918 520 938 483 q 958 445 968 393 q 977 340 977 277 z"},"ഔ":{"ha":1217,"x_min":39,"x_max":1175,"o":"m 364 562 l 364 562 q 435 562 480 540 q 524 518 545 482 q 565 446 565 402 l 565 402 q 565 370 554 344 q 543 317 518 298 q 493 279 451 270 l 451 270 l 450 277 q 507 268 540 230 q 573 192 573 136 l 573 136 q 573 67 536 29 q 498 -10 429 -10 l 429 -10 q 409 -10 389 -7 q 368 -4 352 0 l 352 0 l 363 45 q 379 40 394 38 q 409 36 423 36 l 423 36 q 470 36 494 60 q 518 84 518 136 l 518 136 q 518 164 509 185 q 500 206 483 220 l 483 220 q 466 235 442 243 q 418 250 383 250 l 383 250 l 375 250 l 375 297 l 383 297 q 418 297 443 304 q 467 311 484 327 l 484 327 q 497 340 504 358 q 510 376 510 400 l 510 400 q 510 454 473 484 q 435 514 363 514 l 363 514 q 298 514 248 492 q 198 470 163 432 q 128 393 110 342 q 91 290 91 231 l 91 231 l 91 217 q 91 153 103 113 q 115 72 138 54 q 160 35 190 35 l 190 35 q 212 35 230 46 q 247 57 257 84 q 267 110 267 154 l 267 154 q 267 209 246 239 q 224 268 183 268 l 183 268 q 150 268 123 252 q 96 235 73 206 l 73 206 l 62 249 q 91 280 124 297 q 157 314 192 314 l 192 314 q 230 314 259 297 q 287 280 304 245 q 320 210 320 156 l 320 156 q 320 97 304 60 q 287 23 258 6 q 229 -12 190 -12 l 190 -12 q 149 -12 115 11 q 80 34 60 85 q 39 136 39 222 l 39 222 q 39 296 61 358 q 82 420 124 466 q 165 512 226 537 q 286 562 364 562 z m 1019 562 l 1019 562 q 1068 562 1103 532 q 1138 502 1157 445 q 1175 387 1175 303 l 1175 303 q 1175 196 1151 126 q 1126 56 1075 22 q 1024 -12 945 -12 l 945 -12 q 902 -12 861 -3 q 820 6 779 27 l 779 27 l 805 71 q 837 55 870 46 q 902 37 942 37 l 942 37 q 1010 37 1049 68 q 1088 98 1104 157 q 1120 216 1120 303 l 1120 303 q 1120 409 1092 462 q 1064 514 1015 514 l 1015 514 q 994 514 980 507 q 966 499 956 485 l 956 485 q 941 463 936 431 q 930 398 930 349 l 930 349 l 930 257 l 877 257 l 877 350 q 877 400 872 432 q 866 463 852 483 l 852 483 q 842 498 826 506 q 810 514 790 514 l 790 514 q 744 514 721 478 q 697 442 697 387 l 697 387 q 697 354 702 324 q 706 293 713 265 l 713 265 l 663 254 q 654 285 649 320 q 643 354 643 390 l 643 390 q 643 438 660 477 q 676 516 708 539 q 740 562 787 562 l 787 562 q 831 562 862 538 q 893 513 907 459 l 907 459 l 898 459 q 913 514 945 538 q 976 562 1019 562 z"},"ക":{"ha":837,"x_min":33,"x_max":804,"o":"m 181 -12 l 181 -12 q 113 -12 73 29 q 33 70 33 147 l 33 147 q 33 190 50 221 q 66 251 95 272 l 95 272 q 117 287 144 297 q 171 306 208 310 q 245 314 296 314 l 296 314 l 550 314 q 626 314 671 305 q 715 295 746 272 l 746 272 q 773 253 789 221 q 804 189 804 144 l 804 144 q 804 73 767 31 q 729 -12 659 -12 l 659 -12 q 642 -12 624 -10 q 606 -8 587 -2 l 587 -2 l 598 43 q 612 39 626 38 q 640 36 655 36 l 655 36 q 704 36 728 64 q 751 92 751 144 l 751 144 q 751 176 741 198 q 730 220 712 235 l 712 235 q 687 253 651 261 q 614 268 550 268 l 550 268 l 288 268 q 227 268 189 261 q 151 253 125 233 l 125 233 q 106 218 96 197 q 86 176 86 146 l 86 146 q 86 106 100 82 q 113 57 135 46 q 157 35 185 35 l 185 35 q 217 35 243 46 q 269 56 302 81 l 302 81 l 330 44 q 305 24 282 12 q 258 -1 234 -6 q 210 -12 181 -12 z m 420 562 l 420 562 q 482 562 522 529 q 561 495 580 432 q 599 368 599 277 l 599 277 q 599 174 577 110 q 555 46 515 17 q 474 -12 419 -12 l 419 -12 q 375 -12 344 5 q 313 22 291 52 l 291 52 q 264 91 252 150 q 240 208 240 277 l 240 277 q 240 419 287 491 q 334 562 420 562 z m 420 515 l 420 515 q 357 515 326 458 q 294 400 294 276 l 294 276 q 294 189 309 136 q 323 82 351 59 q 379 35 419 35 l 419 35 q 459 35 488 59 q 516 82 531 136 q 545 189 545 277 l 545 277 q 545 362 531 415 q 517 467 489 491 q 461 515 420 515 z"},"ഖ":{"ha":805,"x_min":40,"x_max":740,"o":"m 301 562 l 301 562 q 359 562 403 542 q 447 521 476 484 q 505 447 519 397 q 533 346 533 287 l 533 287 q 533 222 519 174 q 505 126 484 92 q 462 58 440 34 l 440 34 l 441 0 l 404 0 l 380 38 q 403 60 426 93 q 448 126 463 173 q 478 219 478 282 l 478 282 q 478 352 458 405 q 437 457 398 486 q 358 514 300 514 l 300 514 q 236 514 190 478 q 143 441 118 379 q 92 316 92 236 l 92 236 l 92 219 q 92 153 104 113 q 116 72 139 54 q 161 35 191 35 l 191 35 q 213 35 231 47 q 248 58 258 84 q 268 110 268 154 l 268 154 q 268 209 247 239 q 225 268 184 268 l 184 268 q 151 268 125 252 q 98 235 74 206 l 74 206 l 63 249 q 92 280 125 297 q 158 314 193 314 l 193 314 q 231 314 260 297 q 288 280 305 245 q 321 210 321 156 l 321 156 q 321 97 305 60 q 288 23 260 6 q 231 -12 192 -12 l 192 -12 q 150 -12 116 11 q 81 34 61 87 q 40 139 40 228 l 40 228 q 40 335 74 410 q 107 484 167 523 q 226 562 301 562 z m 686 550 l 740 550 l 740 0 l 421 0 l 429 47 l 686 47 l 686 550 z"},"ഗ":{"ha":715,"x_min":40,"x_max":675,"o":"m 491 562 l 491 562 q 549 562 590 531 q 631 499 653 441 q 675 382 675 300 l 675 300 q 675 224 659 169 q 643 113 616 71 q 588 28 555 -8 l 555 -8 l 516 28 q 545 59 568 97 q 591 134 605 184 q 619 233 619 298 l 619 298 q 619 364 604 413 q 589 461 561 488 q 532 514 491 514 l 491 514 q 464 514 446 506 q 428 497 416 482 l 416 482 q 397 458 391 419 q 384 380 384 313 l 384 313 l 384 213 q 384 171 380 138 q 376 105 367 79 q 357 53 338 33 l 338 33 q 319 12 291 0 q 263 -12 224 -12 l 224 -12 q 166 -12 125 20 q 83 51 62 110 q 40 169 40 251 l 40 251 q 40 327 56 383 q 72 438 100 481 q 127 524 160 560 l 160 560 l 200 523 q 171 493 147 455 q 123 417 109 368 q 95 318 95 252 l 95 252 q 95 186 110 138 q 125 89 154 63 q 183 36 223 36 l 223 36 q 251 36 269 44 q 287 52 299 68 l 299 68 q 318 92 324 132 q 330 172 330 242 l 330 242 l 330 336 q 330 399 340 443 q 349 486 376 516 l 376 516 q 396 538 424 550 q 452 562 491 562 z"},"ഘ":{"ha":1053,"x_min":32,"x_max":987,"o":"m 183 562 l 183 562 q 232 562 266 541 q 299 519 317 483 q 334 446 334 399 l 334 399 q 334 355 320 320 q 306 285 285 263 l 285 263 l 279 276 l 446 276 l 452 230 l 258 230 l 235 266 q 256 291 269 323 q 281 354 281 394 l 281 394 q 281 453 255 484 q 229 515 183 515 l 183 515 q 153 515 131 500 q 108 485 97 459 q 85 432 85 397 l 85 397 q 85 352 101 318 q 116 284 142 255 l 142 255 l 106 222 q 74 256 53 299 q 32 341 32 397 l 32 397 q 32 447 51 484 q 70 521 104 542 q 138 562 183 562 z m 934 550 l 987 550 l 987 0 l 424 0 l 424 330 q 424 402 438 446 q 452 489 481 515 l 481 515 q 504 539 536 551 q 568 562 609 562 l 609 562 q 650 562 681 551 q 712 540 734 519 l 734 519 q 764 491 778 447 q 791 403 791 337 l 791 337 l 791 230 l 477 230 l 477 47 l 934 47 l 934 550 z m 608 516 l 608 516 q 542 516 510 472 q 477 428 477 331 l 477 331 l 477 276 l 738 276 l 738 330 q 738 429 707 473 q 675 516 608 516 z"},"ങ":{"ha":848,"x_min":42,"x_max":811,"o":"m 286 562 l 286 562 q 356 562 398 529 q 440 496 460 433 l 460 433 l 467 381 l 477 260 l 477 0 l 424 0 l 424 321 q 424 384 414 422 q 404 459 380 482 l 380 482 q 363 498 341 506 q 319 514 286 514 l 286 514 q 228 514 185 479 q 141 444 118 383 q 94 321 94 241 l 94 241 l 94 223 q 94 155 106 114 q 118 72 141 54 q 163 35 193 35 l 193 35 q 215 35 233 47 q 250 58 260 84 q 270 110 270 154 l 270 154 q 270 209 249 239 q 227 268 186 268 l 186 268 q 152 268 125 251 q 97 233 73 204 l 73 204 l 60 244 q 88 277 123 296 q 157 314 195 314 l 195 314 q 233 314 262 297 q 290 280 307 245 q 323 210 323 156 l 323 156 q 323 97 307 60 q 290 23 261 6 q 232 -12 193 -12 l 193 -12 q 151 -12 117 11 q 83 34 63 88 q 42 142 42 233 l 42 233 q 42 340 74 414 q 106 487 161 525 q 216 562 286 562 z m 641 562 l 641 562 q 693 562 729 543 q 765 523 785 489 q 804 455 804 412 l 804 412 q 804 376 793 348 q 781 319 756 300 q 731 280 690 271 l 690 271 l 688 277 q 745 268 778 231 q 811 193 811 136 l 811 136 q 811 66 774 28 q 736 -10 668 -10 l 668 -10 q 647 -10 627 -7 q 607 -4 590 0 l 590 0 l 601 45 q 617 40 632 38 q 647 36 661 36 l 661 36 q 706 36 732 59 q 757 81 757 136 l 757 136 q 757 164 748 185 q 739 206 722 220 l 722 220 q 704 235 680 243 q 655 250 617 250 l 617 250 l 607 250 l 607 297 l 618 297 q 655 297 680 304 q 705 311 721 327 l 721 327 q 734 340 742 360 q 749 379 749 408 l 749 408 q 749 460 719 487 q 688 514 639 514 l 639 514 q 606 514 580 504 q 553 494 533 474 l 533 474 q 515 458 503 434 q 490 409 484 375 q 477 341 477 294 l 477 294 l 477 201 l 442 203 l 436 303 l 444 401 q 455 451 482 487 q 508 523 549 543 q 590 562 641 562 z"},"ച":{"ha":747,"x_min":16,"x_max":681,"o":"m 628 550 l 681 550 l 681 0 l 16 0 l 16 47 l 335 47 l 303 33 q 329 60 349 99 q 369 138 369 190 l 369 190 q 369 246 345 277 q 321 308 278 308 l 278 308 q 234 308 210 279 q 186 249 186 194 l 186 194 q 186 182 187 169 q 188 156 190 145 l 190 145 l 138 138 q 136 150 134 166 q 132 181 132 197 l 132 197 q 132 272 173 314 q 214 355 278 355 l 278 355 q 315 355 342 343 q 369 330 387 308 q 405 285 414 256 q 422 226 422 192 l 422 192 q 422 156 414 126 q 405 96 391 73 q 377 50 362 32 l 362 32 l 347 47 l 628 47 l 628 550 z"},"ഛ":{"ha":1078,"x_min":16,"x_max":1038,"o":"m 278 355 l 278 355 q 315 355 342 343 q 369 330 387 308 q 405 285 414 256 q 422 226 422 192 l 422 192 q 422 156 414 126 q 405 96 391 73 q 377 50 362 32 l 362 32 l 347 47 l 634 47 l 645 0 l 16 0 l 16 47 l 335 47 l 303 33 q 329 60 349 99 q 369 138 369 190 l 369 190 q 369 246 345 277 q 321 308 278 308 l 278 308 q 234 308 210 279 q 186 249 186 194 l 186 194 q 186 182 187 169 q 188 156 190 145 l 190 145 l 138 138 q 136 150 134 166 q 132 181 132 197 l 132 197 q 132 272 173 314 q 214 355 278 355 z m 778 562 l 778 562 q 843 562 892 539 q 940 516 973 473 q 1005 429 1022 371 q 1038 312 1038 240 l 1038 240 q 1038 146 1018 91 q 997 35 961 12 q 925 -12 878 -12 l 878 -12 q 827 -12 794 15 q 761 41 745 88 q 729 134 729 193 l 729 193 q 729 291 769 341 q 809 391 876 391 l 876 391 q 914 391 942 375 q 969 359 989 331 q 1008 302 1021 266 l 1021 266 l 1004 250 q 994 272 979 294 q 963 316 940 331 q 917 345 886 345 l 886 345 q 833 345 808 305 q 782 265 782 193 l 782 193 q 782 145 792 109 q 801 73 823 54 q 844 34 879 34 l 879 34 q 912 34 936 55 q 960 75 973 121 q 986 167 986 243 l 986 243 q 986 252 985 271 q 984 289 982 303 l 982 303 q 982 307 982 312 q 982 317 981 321 l 981 321 q 973 371 950 416 q 926 460 885 487 q 843 514 780 514 l 780 514 q 719 514 675 485 q 631 456 608 404 q 584 352 584 283 l 584 283 q 584 224 597 179 q 610 134 633 100 q 655 65 681 38 l 681 38 l 656 0 l 627 0 l 620 36 q 599 60 578 94 q 556 128 542 176 q 528 223 528 286 l 528 286 q 528 342 544 392 q 559 442 591 480 q 622 518 669 540 q 716 562 778 562 z"},"ജ":{"ha":752,"x_min":34,"x_max":712,"o":"m 240 562 l 240 562 q 285 562 320 549 q 354 536 378 510 q 401 483 416 441 l 416 441 l 396 434 q 414 503 454 533 q 493 562 547 562 l 547 562 q 604 562 640 536 q 676 510 694 469 q 712 427 712 380 l 712 380 q 712 337 701 305 q 689 272 667 249 q 644 226 610 211 l 610 211 l 549 198 l 504 187 q 482 183 452 180 q 421 177 384 177 l 384 177 l 218 177 q 175 177 152 173 q 128 169 113 158 l 113 158 q 100 150 94 138 q 87 125 87 107 l 87 107 q 87 81 98 65 q 108 49 127 42 q 145 34 167 34 l 167 34 q 197 34 224 41 q 251 48 281 64 q 311 80 350 107 l 350 107 q 379 127 399 141 q 419 154 435 164 q 451 173 465 180 q 479 187 495 194 l 495 194 q 506 199 518 205 q 530 210 542 215 q 554 219 565 222 q 576 225 586 225 l 586 225 q 615 225 640 214 q 664 202 679 177 q 693 152 693 111 l 693 111 q 693 49 661 19 q 629 -12 579 -12 l 579 -12 q 537 -12 512 6 q 487 24 476 52 q 465 80 465 111 l 465 111 q 465 144 477 167 q 488 190 513 212 l 513 212 l 547 213 q 538 202 530 188 q 521 173 516 155 q 510 137 510 113 l 510 113 q 510 72 528 52 q 545 31 577 31 l 577 31 q 611 31 627 52 q 643 73 643 112 l 643 112 q 643 142 634 159 q 625 176 610 184 q 595 191 576 191 l 576 191 q 558 191 541 183 q 524 175 506 160 l 506 160 l 498 165 q 487 155 473 143 q 458 130 437 114 q 416 97 386 75 l 386 75 q 342 44 306 25 q 270 6 237 -3 q 204 -12 165 -12 l 165 -12 q 132 -12 102 0 q 71 12 53 38 q 34 64 34 106 l 34 106 q 34 135 45 157 q 55 178 76 193 l 76 193 q 97 208 126 215 q 155 222 209 222 l 209 222 l 439 222 q 482 222 515 226 q 547 230 571 239 q 594 247 611 261 l 611 261 q 634 279 646 308 q 658 337 658 377 l 658 377 q 658 410 647 442 q 636 474 611 495 q 586 516 544 516 l 544 516 q 518 516 501 509 q 483 502 471 489 l 471 489 q 448 466 440 428 q 432 390 432 333 l 432 333 l 432 259 l 381 259 l 381 332 q 381 386 372 424 q 362 462 336 486 l 336 486 q 319 501 296 509 q 272 517 238 517 l 238 517 q 189 517 154 500 q 119 482 100 449 l 100 449 q 98 445 97 441 q 96 436 95 431 l 95 431 q 91 420 89 407 q 87 394 87 380 l 87 380 q 87 327 107 306 q 127 285 157 285 l 157 285 q 181 285 195 297 q 209 308 215 327 q 221 346 221 366 l 221 366 q 221 403 205 422 q 188 441 155 441 l 155 441 q 129 441 106 428 q 82 415 63 393 l 63 393 l 61 426 q 81 448 109 463 q 136 477 166 477 l 166 477 q 202 477 225 463 q 248 448 260 423 q 271 398 271 366 l 271 366 q 271 330 258 302 q 245 274 220 259 q 195 243 157 243 l 157 243 q 103 243 72 279 q 41 314 41 382 l 41 382 q 41 433 64 474 q 87 514 131 538 q 175 562 240 562 z"},"ഝ":{"ha":1323,"x_min":40,"x_max":1283,"o":"m 532 562 l 532 562 q 574 562 606 551 q 637 540 661 520 l 661 520 q 698 487 712 438 q 726 388 726 307 l 726 307 l 726 219 q 726 158 733 123 q 739 88 758 65 l 758 65 q 770 51 788 44 q 805 36 830 36 l 830 36 q 853 36 871 44 q 888 51 899 66 l 899 66 q 918 88 925 125 q 932 161 932 221 l 932 221 l 932 550 l 985 550 l 985 226 q 985 165 994 128 q 1002 90 1022 67 l 1022 67 q 1035 52 1053 44 q 1071 36 1096 36 l 1096 36 q 1138 36 1167 65 q 1196 94 1212 143 q 1228 192 1228 251 l 1228 251 q 1228 317 1214 367 q 1200 416 1176 454 q 1152 491 1124 521 l 1124 521 l 1164 557 q 1195 522 1223 480 q 1250 438 1267 383 q 1283 327 1283 250 l 1283 250 q 1283 175 1261 116 q 1239 56 1197 22 q 1155 -12 1095 -12 l 1095 -12 q 1041 -12 1007 17 q 973 45 954 104 l 954 104 l 963 106 q 953 67 935 41 q 917 14 890 1 q 863 -12 826 -12 l 826 -12 q 790 -12 764 0 q 737 11 718 31 l 718 31 q 703 49 693 71 q 682 93 677 127 q 672 160 672 209 l 672 209 l 672 297 q 672 346 668 381 q 663 416 653 441 q 642 465 624 482 l 624 482 q 607 498 583 507 q 559 516 527 516 l 527 516 q 503 516 480 510 q 457 503 435 489 l 435 489 l 419 478 q 383 453 358 411 q 333 368 320 316 q 307 263 307 209 l 307 209 q 307 141 320 103 q 333 65 356 50 q 378 35 406 35 l 406 35 q 434 35 457 50 q 479 65 492 104 q 505 142 505 210 l 505 210 q 505 263 492 316 q 478 369 452 413 q 426 456 389 481 l 389 481 l 377 489 q 356 504 334 510 q 311 516 285 516 l 285 516 q 222 516 180 485 q 138 454 117 402 q 95 349 95 283 l 95 283 q 95 221 109 175 q 122 128 147 93 q 171 58 202 31 l 202 31 l 166 -7 q 134 20 105 60 q 76 99 58 155 q 40 211 40 285 l 40 285 q 40 344 56 394 q 71 444 102 482 q 132 520 177 541 q 222 562 281 562 l 281 562 q 321 562 354 551 q 386 540 416 517 l 416 517 l 432 504 q 491 459 526 383 q 560 306 560 210 l 560 210 q 560 133 541 84 q 522 35 488 12 q 453 -12 405 -12 l 405 -12 q 359 -12 324 12 q 289 35 271 85 q 252 134 252 209 l 252 209 q 252 271 267 327 q 281 382 310 428 q 339 473 380 504 l 380 504 l 392 516 q 423 539 459 551 q 494 562 532 562 z"},"ഞ":{"ha":1151,"x_min":42,"x_max":1112,"o":"m 286 562 l 286 562 q 356 562 398 529 q 440 496 460 433 l 460 433 l 468 388 l 477 254 l 477 0 l 424 0 l 424 321 q 424 385 414 422 q 404 459 380 482 l 380 482 q 363 498 341 506 q 319 514 286 514 l 286 514 q 228 514 185 479 q 141 444 118 383 q 94 321 94 241 l 94 241 l 94 223 q 94 155 106 114 q 118 72 141 54 q 163 35 193 35 l 193 35 q 215 35 233 47 q 250 58 260 84 q 270 110 270 154 l 270 154 q 270 209 249 239 q 227 268 186 268 l 186 268 q 152 268 125 251 q 97 233 73 204 l 73 204 l 60 244 q 88 277 123 296 q 157 314 195 314 l 195 314 q 233 314 262 297 q 290 280 307 245 q 323 210 323 156 l 323 156 q 323 97 307 60 q 290 23 261 6 q 232 -12 193 -12 l 193 -12 q 151 -12 117 11 q 83 34 63 88 q 42 142 42 233 l 42 233 q 42 340 74 414 q 106 487 161 525 q 216 562 286 562 z m 620 562 l 620 562 q 660 562 693 551 q 726 540 756 517 l 756 517 l 772 504 q 830 459 865 383 q 899 306 899 210 l 899 210 q 899 133 880 84 q 861 35 827 12 q 792 -12 744 -12 l 744 -12 q 697 -12 663 12 q 628 35 609 85 q 590 134 590 209 l 590 209 q 590 271 606 326 q 622 381 651 427 q 680 472 721 504 l 721 504 l 734 515 q 765 539 801 551 q 837 562 879 562 l 879 562 q 936 562 980 541 q 1023 520 1053 483 q 1082 445 1097 394 q 1112 343 1112 284 l 1112 284 q 1112 211 1094 157 q 1076 103 1048 63 q 1019 23 985 -8 l 985 -8 l 949 30 q 976 54 1001 88 q 1025 122 1041 169 q 1056 216 1056 281 l 1056 281 q 1056 348 1036 401 q 1015 454 975 485 q 935 516 875 516 l 875 516 q 846 516 822 509 q 797 502 776 489 l 776 489 l 760 477 q 724 452 699 410 q 673 367 659 315 q 645 263 645 209 l 645 209 q 645 141 659 103 q 672 65 694 50 q 716 35 745 35 l 745 35 q 773 35 796 50 q 818 65 831 104 q 844 142 844 210 l 844 210 q 844 264 831 317 q 817 369 792 413 q 766 456 729 481 l 729 481 l 717 489 q 703 499 689 505 q 674 510 658 513 q 642 516 622 516 l 622 516 q 589 516 565 507 q 541 497 524 481 l 524 481 q 498 456 488 417 q 477 377 477 316 l 477 316 l 477 45 l 429 45 l 430 235 l 440 419 q 453 466 477 498 q 501 530 537 546 q 573 562 620 562 z"},"ട":{"ha":443,"x_min":19,"x_max":417,"o":"m 225 562 l 225 562 q 282 562 327 551 q 372 539 417 518 l 417 518 l 389 474 q 349 495 311 505 q 272 514 226 514 l 226 514 q 174 514 144 499 q 113 484 100 459 q 86 434 86 406 l 86 406 q 86 380 93 363 q 99 345 112 333 l 112 333 q 130 316 158 310 q 186 304 224 304 l 224 304 l 228 304 q 279 303 315 292 q 350 281 374 256 l 374 256 q 392 237 401 212 q 410 186 410 151 l 410 151 q 410 103 389 67 q 368 30 324 9 q 280 -12 214 -12 l 214 -12 q 163 -12 114 0 q 64 12 19 35 l 19 35 l 47 78 q 72 65 98 56 q 123 46 152 41 q 181 36 214 36 l 214 36 q 268 36 299 52 q 330 67 343 93 q 356 118 356 149 l 356 149 q 356 175 349 195 q 342 214 329 226 l 329 226 q 312 242 288 249 q 263 255 225 256 l 225 256 l 220 256 q 168 256 131 267 q 93 278 70 301 l 70 301 q 51 320 41 346 q 31 371 31 406 l 31 406 q 31 448 53 484 q 74 519 118 541 q 161 562 225 562 z"},"ഠ":{"ha":530,"x_min":40,"x_max":490,"o":"m 266 562 l 266 562 q 336 562 386 529 q 436 495 463 431 q 490 367 490 275 l 490 275 q 490 185 463 121 q 436 56 385 22 q 334 -12 263 -12 l 263 -12 q 189 -12 140 24 q 90 60 65 125 q 40 190 40 276 l 40 276 q 40 367 68 431 q 95 494 146 528 q 196 562 266 562 z m 264 36 l 264 36 q 320 36 358 66 q 396 95 415 149 q 434 203 434 276 l 434 276 q 434 352 415 406 q 395 459 358 487 q 320 514 266 514 l 266 514 q 186 514 141 452 q 95 390 95 276 l 95 276 q 95 159 139 98 q 183 36 264 36 z"},"ഡ":{"ha":981,"x_min":40,"x_max":941,"o":"m 484 -12 l 484 -12 q 449 -12 422 0 q 395 11 376 31 l 376 31 q 361 49 351 71 q 340 93 335 127 q 330 160 330 209 l 330 209 l 330 312 q 330 379 324 419 q 318 458 299 482 l 299 482 q 287 498 270 506 q 252 514 223 514 l 223 514 q 183 514 154 488 q 125 461 110 413 q 95 364 95 298 l 95 298 q 95 233 109 183 q 123 133 147 96 q 171 58 199 27 l 199 27 l 160 -9 q 127 27 100 70 q 72 112 56 168 q 40 224 40 299 l 40 299 q 40 381 62 440 q 83 498 125 530 q 167 562 226 562 l 226 562 q 264 562 291 550 q 318 538 337 518 l 337 518 q 356 497 366 471 q 376 445 380 412 q 384 379 384 336 l 384 336 l 384 220 q 384 159 391 124 q 397 88 416 65 l 416 65 q 428 51 446 44 q 463 36 488 36 l 488 36 q 511 36 529 44 q 546 51 557 66 l 557 66 q 576 88 583 125 q 590 161 590 221 l 590 221 l 590 550 l 643 550 l 643 226 q 643 165 652 128 q 660 90 680 67 l 680 67 q 693 52 711 44 q 729 36 754 36 l 754 36 q 796 36 825 65 q 854 94 870 143 q 886 192 886 251 l 886 251 q 886 317 872 367 q 858 416 834 454 q 810 491 782 521 l 782 521 l 822 557 q 854 522 881 480 q 908 438 925 383 q 941 327 941 250 l 941 250 q 941 175 919 116 q 897 56 855 22 q 813 -12 753 -12 l 753 -12 q 699 -12 666 17 q 632 45 612 104 l 612 104 l 621 106 q 606 46 573 17 q 539 -12 484 -12 z"},"ഢ":{"ha":1067,"x_min":40,"x_max":1025,"o":"m 484 -12 l 484 -12 q 449 -12 422 0 q 395 11 376 31 l 376 31 q 361 49 351 71 q 340 93 335 127 q 330 160 330 209 l 330 209 l 330 312 q 330 379 324 419 q 318 458 299 482 l 299 482 q 287 498 270 506 q 252 514 223 514 l 223 514 q 183 514 154 488 q 125 461 110 413 q 95 364 95 298 l 95 298 q 95 233 109 183 q 123 133 147 96 q 171 58 199 27 l 199 27 l 160 -10 q 127 27 100 70 q 72 112 56 168 q 40 224 40 300 l 40 300 q 40 381 62 440 q 83 498 125 530 q 167 562 226 562 l 226 562 q 264 562 291 550 q 318 538 337 518 l 337 518 q 356 497 366 471 q 376 445 380 412 q 384 379 384 336 l 384 336 l 384 219 q 384 159 391 124 q 397 88 416 65 l 416 65 q 428 51 446 44 q 463 36 488 36 l 488 36 q 511 36 529 44 q 546 51 557 66 l 557 66 q 576 88 583 125 q 590 161 590 221 l 590 221 l 590 550 l 643 550 l 643 251 l 621 106 q 606 46 573 17 q 539 -12 484 -12 z m 874 562 l 874 562 q 916 562 950 539 q 984 516 1005 463 q 1025 409 1025 317 l 1025 317 q 1025 211 994 137 q 962 63 907 26 q 851 -12 781 -12 l 781 -12 q 711 -12 671 21 q 630 53 609 114 l 609 114 l 602 261 l 602 523 l 643 523 l 643 230 q 643 165 654 128 q 664 91 687 68 l 687 68 q 704 52 726 44 q 748 36 781 36 l 781 36 q 840 36 883 71 q 926 106 950 168 q 974 229 974 309 l 974 309 l 974 327 q 974 396 962 437 q 949 478 927 497 q 904 515 874 515 l 874 515 q 852 515 835 504 q 818 492 808 467 q 797 441 797 396 l 797 396 q 797 341 819 312 q 840 282 881 282 l 881 282 q 915 282 943 300 q 970 317 994 346 l 994 346 l 1007 306 q 979 273 945 255 q 910 236 873 236 l 873 236 q 835 236 806 253 q 777 270 761 306 q 744 341 744 395 l 744 395 q 744 453 761 490 q 777 526 807 544 q 836 562 874 562 z"},"ണ":{"ha":1091,"x_min":42,"x_max":1051,"o":"m 286 562 l 286 562 q 356 562 396 531 q 436 499 458 440 l 458 440 l 444 441 q 462 502 498 532 q 534 562 589 562 l 589 562 q 646 562 682 533 q 717 504 731 444 l 731 444 l 721 445 q 741 506 776 534 q 810 562 864 562 l 864 562 q 924 562 966 528 q 1007 494 1029 435 q 1051 375 1051 300 l 1051 300 q 1051 224 1035 169 q 1018 113 991 71 q 963 29 930 -7 l 930 -7 l 891 29 q 920 60 944 98 q 967 135 981 184 q 995 233 995 299 l 995 299 q 995 359 980 408 q 964 456 935 485 q 906 514 864 514 l 864 514 q 838 514 820 507 q 802 499 789 483 l 789 483 q 769 461 761 424 q 753 386 753 324 l 753 324 l 753 0 l 699 0 l 699 327 q 699 390 692 425 q 685 460 666 482 l 666 482 q 654 497 635 506 q 616 514 588 514 l 588 514 q 561 514 543 505 q 525 496 512 482 l 512 482 q 492 458 485 422 q 477 386 477 325 l 477 325 l 477 0 l 424 0 l 424 320 q 424 384 414 422 q 404 459 380 482 l 380 482 q 363 498 341 506 q 318 514 286 514 l 286 514 q 228 514 185 480 q 141 445 118 384 q 94 322 94 241 l 94 241 l 94 223 q 94 155 106 114 q 118 72 141 54 q 163 35 193 35 l 193 35 q 215 35 233 47 q 250 58 260 84 q 270 110 270 154 l 270 154 q 270 209 249 239 q 227 268 186 268 l 186 268 q 152 268 125 251 q 97 233 73 204 l 73 204 l 60 244 q 88 277 123 296 q 157 314 195 314 l 195 314 q 233 314 262 297 q 290 280 307 245 q 323 210 323 156 l 323 156 q 323 97 307 60 q 290 23 261 6 q 232 -12 193 -12 l 193 -12 q 151 -12 117 11 q 83 34 63 88 q 42 142 42 233 l 42 233 q 42 340 74 414 q 106 487 161 525 q 216 562 286 562 z"},"ത":{"ha":813,"x_min":40,"x_max":773,"o":"m 405 -12 l 405 -12 q 359 -12 324 12 q 289 35 271 85 q 252 134 252 209 l 252 209 q 252 271 268 326 q 283 381 313 427 q 342 473 383 504 l 383 504 l 395 515 q 426 539 462 551 q 498 562 540 562 l 540 562 q 598 562 642 541 q 685 520 714 483 q 743 445 758 394 q 773 343 773 284 l 773 284 q 773 211 756 157 q 738 103 709 63 q 680 23 646 -8 l 646 -8 l 610 30 q 637 54 662 88 q 686 122 702 169 q 717 216 717 281 l 717 281 q 717 348 697 401 q 677 454 637 485 q 596 516 536 516 l 536 516 q 507 516 483 509 q 459 502 437 489 l 437 489 l 422 477 q 385 452 360 410 q 334 367 321 315 q 307 263 307 209 l 307 209 q 307 141 320 103 q 333 65 356 50 q 378 35 406 35 l 406 35 q 434 35 457 50 q 479 65 492 104 q 505 142 505 210 l 505 210 q 505 264 492 317 q 478 369 452 413 q 426 456 389 481 l 389 481 l 377 489 q 356 504 334 510 q 311 516 285 516 l 285 516 q 222 516 180 485 q 138 454 117 402 q 95 349 95 283 l 95 283 q 95 221 109 175 q 122 128 147 93 q 171 58 202 31 l 202 31 l 166 -7 q 134 20 105 60 q 76 99 58 155 q 40 211 40 285 l 40 285 q 40 344 56 394 q 71 444 102 482 q 132 520 177 541 q 222 562 281 562 l 281 562 q 321 562 354 551 q 386 540 416 517 l 416 517 l 432 504 q 491 459 526 383 q 560 306 560 210 l 560 210 q 560 133 541 84 q 522 35 488 12 q 453 -12 405 -12 z"},"ഥ":{"ha":723,"x_min":66,"x_max":663,"o":"m 66 550 l 119 550 l 119 47 l 313 47 l 313 0 l 66 0 l 66 550 z m 474 562 l 474 562 q 519 562 551 549 q 583 536 605 514 l 605 514 q 640 481 652 434 q 663 386 663 319 l 663 319 l 663 0 l 285 0 l 285 323 q 285 367 290 402 q 295 436 308 465 q 321 493 343 514 l 343 514 q 365 536 398 549 q 431 562 474 562 z m 475 514 l 475 514 q 443 514 419 505 q 395 495 379 478 l 379 478 q 356 452 347 412 q 338 371 338 309 l 338 309 l 338 47 l 610 47 l 610 308 q 610 369 601 411 q 592 453 568 478 l 568 478 q 553 495 530 505 q 507 514 475 514 z"},"ദ":{"ha":514,"x_min":48,"x_max":477,"o":"m 304 562 l 304 562 q 357 562 394 543 q 431 524 450 490 q 469 456 469 412 l 469 412 q 469 356 443 321 q 416 285 358 271 l 358 271 l 357 277 q 413 268 445 230 q 477 192 477 135 l 477 135 q 477 66 438 28 q 398 -10 327 -10 l 327 -10 q 301 -10 279 -7 q 257 -4 241 0 l 241 0 l 253 45 q 269 41 286 39 q 303 36 321 36 l 321 36 q 371 36 397 60 q 422 83 422 135 l 422 135 q 422 163 414 184 q 406 205 389 219 l 389 219 q 372 234 347 242 q 322 250 278 250 l 278 250 l 257 250 l 257 297 l 278 297 q 319 297 344 304 q 369 310 386 326 l 386 326 q 400 339 408 359 q 415 379 415 408 l 415 408 q 415 461 385 488 q 354 514 302 514 l 302 514 q 238 514 194 477 q 149 440 126 375 q 102 309 102 223 l 102 223 q 102 165 109 110 q 116 54 127 5 l 127 5 l 75 -5 q 63 46 56 106 q 48 166 48 221 l 48 221 q 48 325 78 402 q 108 478 166 520 q 223 562 304 562 z"},"ധ":{"ha":729,"x_min":40,"x_max":689,"o":"m 499 -12 l 499 -12 q 462 -12 435 2 q 407 16 389 43 q 371 69 360 105 l 360 105 l 369 104 q 350 44 316 16 q 281 -12 227 -12 l 227 -12 q 167 -12 126 23 q 84 57 62 116 q 40 175 40 250 l 40 250 q 40 326 56 382 q 72 437 100 479 q 127 521 160 557 l 160 557 l 200 521 q 171 491 147 454 q 123 416 109 367 q 95 317 95 251 l 95 251 q 95 192 111 143 q 126 94 156 65 q 185 36 227 36 l 227 36 q 253 36 271 44 q 289 52 302 67 l 302 67 q 321 90 330 127 q 338 164 338 226 l 338 226 l 338 550 l 392 550 l 392 228 q 392 165 400 128 q 408 91 427 68 l 427 68 q 440 53 458 45 q 475 36 499 36 l 499 36 q 541 36 572 64 q 602 92 618 142 q 634 191 634 253 l 634 253 q 634 319 620 368 q 606 417 583 454 q 559 491 530 521 l 530 521 l 570 557 q 602 522 630 481 q 657 439 673 384 q 689 328 689 252 l 689 252 q 689 174 666 115 q 643 55 601 22 q 558 -12 499 -12 z"},"ന":{"ha":729,"x_min":40,"x_max":689,"o":"m 230 562 l 230 562 q 268 562 295 548 q 322 534 341 508 q 359 482 370 445 l 370 445 l 360 446 q 380 506 414 534 q 448 562 503 562 l 503 562 q 562 562 604 528 q 646 494 668 435 q 689 375 689 300 l 689 300 q 689 224 673 169 q 657 113 630 71 q 602 29 569 -7 l 569 -7 l 530 29 q 559 60 583 97 q 606 134 620 184 q 634 233 634 299 l 634 299 q 634 359 619 408 q 603 456 574 485 q 544 514 502 514 l 502 514 q 477 514 459 507 q 441 499 428 483 l 428 483 q 408 461 400 424 q 391 386 391 324 l 391 324 l 391 0 l 338 0 l 338 322 q 338 385 330 423 q 322 460 302 482 l 302 482 q 289 498 272 506 q 254 514 230 514 l 230 514 q 188 514 158 486 q 128 458 112 409 q 95 360 95 297 l 95 297 q 95 232 110 183 q 124 134 148 97 q 171 60 199 29 l 199 29 l 159 -7 q 127 28 100 70 q 73 111 57 167 q 40 222 40 298 l 40 298 q 40 377 63 437 q 86 496 129 529 q 172 562 230 562 z"},"ഩ":{"ha":815,"x_min":42,"x_max":775,"o":"m 286 562 l 286 562 q 356 562 397 530 q 437 498 458 441 l 458 441 l 446 447 q 465 507 500 535 q 535 562 589 562 l 589 562 q 648 562 690 528 q 732 494 754 435 q 775 375 775 300 l 775 300 q 775 224 759 169 q 743 113 716 71 q 688 29 655 -7 l 655 -7 l 616 29 q 645 60 669 97 q 692 134 706 184 q 720 233 720 299 l 720 299 q 720 359 705 408 q 689 456 660 485 q 630 514 589 514 l 589 514 q 563 514 545 507 q 527 499 514 483 l 514 483 q 494 461 486 424 q 477 386 477 323 l 477 323 l 477 0 l 424 0 l 424 320 q 424 384 414 422 q 404 459 380 482 l 380 482 q 363 498 341 506 q 319 514 286 514 l 286 514 q 228 514 185 479 q 141 444 118 383 q 94 321 94 241 l 94 241 l 94 223 q 94 155 106 114 q 118 72 141 54 q 163 35 193 35 l 193 35 q 215 35 233 47 q 250 58 260 84 q 270 110 270 154 l 270 154 q 270 209 249 239 q 227 268 186 268 l 186 268 q 152 268 125 251 q 97 233 73 204 l 73 204 l 60 244 q 88 277 123 296 q 157 314 195 314 l 195 314 q 233 314 262 297 q 290 280 307 245 q 323 210 323 156 l 323 156 q 323 97 307 60 q 290 23 261 6 q 232 -12 193 -12 l 193 -12 q 151 -12 117 11 q 83 34 63 88 q 42 142 42 233 l 42 233 q 42 340 74 414 q 106 487 161 525 q 216 562 286 562 z"},"പ":{"ha":717,"x_min":33,"x_max":651,"o":"m 184 337 l 184 337 q 233 337 267 315 q 300 293 318 256 q 335 219 335 172 l 335 172 q 335 127 321 91 q 306 55 285 34 l 285 34 l 279 47 l 597 47 l 597 550 l 651 550 l 651 0 l 257 0 l 235 36 q 257 62 270 94 q 282 126 282 166 l 282 166 q 282 226 256 258 q 230 290 185 290 l 185 290 q 154 290 132 275 q 109 259 98 232 q 86 205 86 170 l 86 170 q 86 123 103 89 q 119 55 145 26 l 145 26 l 109 -7 q 77 27 55 70 q 33 113 33 170 l 33 170 q 33 220 52 258 q 71 295 105 316 q 139 337 184 337 z"},"ഫ":{"ha":907,"x_min":33,"x_max":847,"o":"m 184 337 l 184 337 q 233 337 267 315 q 300 293 318 256 q 335 219 335 172 l 335 172 q 335 127 321 91 q 306 55 285 34 l 285 34 l 279 47 l 501 47 l 501 0 l 257 0 l 235 36 q 257 62 270 94 q 282 126 282 166 l 282 166 q 282 226 256 258 q 230 290 185 290 l 185 290 q 154 290 132 275 q 109 259 98 232 q 86 205 86 170 l 86 170 q 86 123 103 89 q 119 55 145 26 l 145 26 l 109 -7 q 77 27 55 70 q 33 113 33 170 l 33 170 q 33 220 52 258 q 71 295 105 316 q 139 337 184 337 z m 658 562 l 658 562 q 702 562 735 549 q 767 536 789 514 l 789 514 q 823 481 835 434 q 847 386 847 319 l 847 319 l 847 0 l 469 0 l 469 323 q 469 367 474 402 q 479 436 492 465 q 504 493 527 514 l 527 514 q 549 536 582 549 q 614 562 658 562 z m 658 514 l 658 514 q 627 514 603 505 q 579 495 563 478 l 563 478 q 539 452 531 412 q 522 371 522 309 l 522 309 l 522 47 l 793 47 l 793 308 q 793 369 785 411 q 776 453 752 478 l 752 478 q 736 495 713 505 q 690 514 658 514 z"},"ബ":{"ha":1047,"x_min":42,"x_max":981,"o":"m 286 562 l 286 562 q 356 562 397 530 q 437 498 458 441 l 458 441 l 468 394 l 477 267 l 477 0 l 424 0 l 424 321 q 424 384 414 422 q 404 459 380 482 l 380 482 q 363 498 341 506 q 319 514 286 514 l 286 514 q 228 514 185 479 q 141 444 118 383 q 94 321 94 241 l 94 241 l 94 223 q 94 155 106 114 q 118 72 141 54 q 163 35 193 35 l 193 35 q 215 35 233 47 q 250 58 260 84 q 270 110 270 154 l 270 154 q 270 209 249 239 q 227 268 186 268 l 186 268 q 152 268 125 251 q 97 233 73 204 l 73 204 l 60 244 q 88 277 123 296 q 157 314 195 314 l 195 314 q 233 314 262 297 q 290 280 307 245 q 323 210 323 156 l 323 156 q 323 97 307 60 q 290 23 261 6 q 232 -12 193 -12 l 193 -12 q 151 -12 117 11 q 83 34 63 88 q 42 142 42 233 l 42 233 q 42 340 74 414 q 106 487 161 525 q 216 562 286 562 z m 928 550 l 981 550 l 981 0 l 649 0 l 626 34 q 651 66 672 102 q 693 138 707 186 q 720 233 720 299 l 720 299 q 720 359 705 408 q 689 456 660 485 q 630 514 589 514 l 589 514 q 563 514 545 507 q 527 499 514 483 l 514 483 q 494 461 486 424 q 477 386 477 324 l 477 324 l 477 9 l 428 9 l 428 264 l 448 390 l 446 447 q 465 507 500 535 q 535 562 589 562 l 589 562 q 648 562 690 528 q 732 494 754 435 q 775 375 775 300 l 775 300 q 775 234 763 185 q 750 136 730 100 q 710 64 687 35 l 687 35 l 681 47 l 928 47 l 928 550 z"},"ഭ":{"ha":525,"x_min":48,"x_max":493,"o":"m 323 562 l 323 562 q 373 562 412 546 q 450 530 472 500 q 493 469 493 426 l 493 426 q 493 401 486 382 q 479 362 465 349 l 465 349 q 451 335 429 328 q 407 321 371 321 l 371 321 l 360 321 q 335 320 319 317 q 303 314 292 307 l 292 307 q 283 301 278 292 q 273 282 273 269 l 273 269 q 273 239 294 227 q 314 215 357 215 l 357 215 l 361 215 q 396 215 422 207 q 448 198 465 181 l 465 181 q 478 168 486 150 q 493 131 493 108 l 493 108 q 493 73 478 46 q 463 18 430 3 q 397 -12 343 -12 l 343 -12 q 324 -12 300 -9 q 276 -7 252 -1 q 228 4 208 12 l 208 12 l 227 58 q 257 46 286 41 q 315 36 345 36 l 345 36 q 399 36 420 55 q 440 74 440 107 l 440 107 q 440 137 420 153 q 400 168 357 169 l 357 169 l 351 169 q 313 169 289 177 q 264 184 249 198 l 249 198 q 236 211 229 229 q 221 246 221 268 l 221 268 q 221 291 230 310 q 238 329 255 341 l 255 341 q 272 354 296 361 q 320 367 359 367 l 359 367 l 372 367 q 409 368 425 382 q 440 395 440 426 l 440 426 q 440 468 409 491 q 378 514 321 514 l 321 514 q 247 514 199 477 q 150 440 126 375 q 102 309 102 223 l 102 223 q 102 165 109 110 q 116 54 127 5 l 127 5 l 75 -5 q 63 46 56 106 q 48 166 48 221 l 48 221 q 48 324 79 401 q 110 477 172 520 q 233 562 323 562 z"},"മ":{"ha":580,"x_min":56,"x_max":524,"o":"m 289 562 l 289 562 q 346 562 388 546 q 429 530 457 501 l 457 501 q 481 476 496 444 q 510 411 517 370 q 524 328 524 273 l 524 273 l 524 0 l 56 0 l 56 272 q 56 326 63 368 q 70 409 85 442 q 99 474 121 498 l 121 498 q 150 529 191 546 q 232 562 289 562 z m 249 512 l 249 512 q 219 512 194 497 q 169 481 152 453 l 152 453 q 132 423 121 378 q 110 333 110 259 l 110 259 l 110 44 l 115 45 q 175 101 222 162 q 268 222 296 285 q 323 347 323 406 l 323 406 q 323 436 316 460 q 309 484 293 498 q 277 512 249 512 z m 377 402 l 377 402 q 377 337 351 275 q 324 212 277 151 q 230 90 168 28 l 168 28 l 165 43 q 190 45 224 46 q 257 47 283 47 l 283 47 l 470 47 l 470 267 q 470 344 456 397 q 441 450 408 480 q 374 510 319 516 l 319 516 l 318 521 q 350 504 364 473 q 377 442 377 402 z"},"യ":{"ha":836,"x_min":40,"x_max":793,"o":"m 540 -12 l 540 -12 q 503 -12 470 -3 q 437 6 408 25 l 408 25 q 404 28 400 32 q 395 35 391 38 l 391 38 q 347 73 320 122 q 292 170 279 227 q 265 284 265 344 l 265 344 q 265 385 274 423 q 282 460 299 489 l 299 489 l 307 501 q 321 521 339 535 q 356 548 378 555 q 400 562 426 562 l 426 562 q 500 562 543 506 q 585 449 585 341 l 585 341 q 585 241 553 163 q 520 84 457 37 l 457 37 q 454 34 449 31 q 444 28 439 25 l 439 25 q 410 6 376 -3 q 341 -12 299 -12 l 299 -12 q 237 -12 189 13 q 141 37 108 83 q 74 128 57 191 q 40 253 40 329 l 40 329 q 40 404 62 456 q 84 508 124 535 q 163 562 212 562 l 212 562 q 258 562 289 544 q 319 525 344 497 l 344 497 l 306 463 q 289 487 267 501 q 245 515 216 515 l 216 515 q 182 515 155 496 q 127 476 111 435 q 94 394 94 327 l 94 327 q 94 240 118 174 q 142 108 188 71 q 234 34 301 34 l 301 34 q 329 34 352 39 q 375 43 395 53 l 395 53 q 400 55 406 58 q 411 61 416 63 l 416 63 q 454 89 480 132 q 505 174 518 229 q 530 283 530 340 l 530 340 q 530 404 517 443 q 503 481 480 498 q 456 515 426 515 l 426 515 q 393 515 369 496 q 345 477 333 438 q 320 399 320 341 l 320 341 q 320 292 332 239 q 343 185 368 139 q 393 92 432 64 l 432 64 q 437 62 441 60 q 445 58 450 55 l 450 55 q 468 45 491 40 q 513 34 539 34 l 539 34 q 610 34 654 67 q 697 100 718 160 q 738 219 738 298 l 738 298 q 738 364 720 426 q 701 487 668 536 l 668 536 l 715 562 q 752 506 773 440 q 793 374 793 302 l 793 302 q 793 232 778 174 q 763 115 732 74 q 701 32 653 10 q 605 -12 540 -12 z"},"ര":{"ha":589,"x_min":40,"x_max":549,"o":"m 290 562 l 290 562 q 355 562 404 539 q 452 516 485 473 q 517 429 533 371 q 549 312 549 240 l 549 240 q 549 146 529 91 q 508 35 472 12 q 436 -12 390 -12 l 390 -12 q 338 -12 305 15 q 272 41 256 88 q 240 134 240 193 l 240 193 q 240 291 281 341 q 321 391 388 391 l 388 391 q 426 391 453 375 q 480 359 500 331 q 519 302 532 266 l 532 266 l 515 250 q 506 272 490 294 q 474 316 452 331 q 429 345 397 345 l 397 345 q 344 345 319 305 q 294 265 294 193 l 294 193 q 294 145 304 109 q 313 73 335 54 q 356 34 391 34 l 391 34 q 424 34 448 55 q 472 75 485 121 q 497 167 497 243 l 497 243 q 497 252 496 271 q 495 289 493 303 l 493 303 q 493 307 494 312 q 494 317 493 321 l 493 321 q 485 371 462 416 q 438 460 397 487 q 355 514 292 514 l 292 514 q 231 514 187 485 q 142 456 119 404 q 95 352 95 283 l 95 283 q 95 222 109 176 q 122 129 147 94 q 171 59 202 31 l 202 31 l 166 -7 q 134 20 105 60 q 76 100 58 156 q 40 212 40 285 l 40 285 q 40 342 56 392 q 71 442 102 480 q 133 518 180 540 q 227 562 290 562 z"},"റ":{"ha":541,"x_min":40,"x_max":501,"o":"m 273 562 l 273 562 q 330 562 373 541 q 415 520 444 483 q 472 446 487 396 q 501 346 501 287 l 501 287 q 501 212 483 158 q 465 103 437 63 q 408 23 374 -8 l 374 -8 l 338 30 q 365 54 390 88 q 414 122 430 170 q 445 217 445 282 l 445 282 q 445 352 425 404 q 405 456 367 485 q 328 514 272 514 l 272 514 q 215 514 176 484 q 136 454 116 402 q 95 349 95 283 l 95 283 q 95 223 109 177 q 122 130 147 95 q 171 59 202 31 l 202 31 l 166 -7 q 134 20 105 60 q 76 100 58 156 q 40 212 40 285 l 40 285 q 40 345 55 395 q 70 445 100 483 q 130 520 174 541 q 217 562 273 562 z"},"ല":{"ha":690,"x_min":61,"x_max":624,"o":"m 571 550 l 624 550 l 624 0 l 61 0 l 61 330 q 61 397 73 439 q 85 480 110 508 l 110 508 q 134 535 168 549 q 202 562 246 562 l 246 562 q 291 562 325 549 q 358 536 380 510 l 380 510 q 405 482 417 440 q 429 398 429 337 l 429 337 l 429 230 l 114 230 l 114 47 l 571 47 l 571 550 z m 245 516 l 245 516 q 179 516 147 472 q 114 428 114 331 l 114 331 l 114 276 l 375 276 l 375 330 q 375 429 344 473 q 312 516 245 516 z"},"ള":{"ha":581,"x_min":39,"x_max":545,"o":"m 325 515 l 325 515 q 273 515 233 503 q 193 490 164 467 q 135 444 117 416 q 99 387 90 354 l 90 354 q 90 350 91 346 q 91 341 90 336 l 90 336 q 89 329 88 320 q 87 310 87 302 l 87 302 q 87 231 107 193 q 127 154 172 154 l 172 154 q 208 154 226 183 q 243 212 243 258 l 243 258 q 243 285 236 307 q 229 329 213 342 q 197 355 170 355 l 170 355 q 137 355 113 338 q 88 320 67 295 l 67 295 l 52 330 q 67 349 86 365 q 105 381 128 391 q 151 401 178 401 l 178 401 q 220 401 246 382 q 272 362 285 330 q 297 297 297 258 l 297 258 q 297 214 283 181 q 269 147 242 128 q 214 109 172 109 l 172 109 q 131 109 101 131 q 71 152 55 195 q 39 237 39 301 l 39 301 q 39 354 57 402 q 75 449 111 485 q 147 521 201 542 q 255 562 327 562 l 327 562 q 397 562 444 542 q 490 521 514 485 q 537 449 537 401 l 537 401 q 537 370 525 342 q 513 313 485 293 q 456 273 407 266 l 407 266 l 353 276 l 353 297 l 359 297 q 388 297 411 303 q 434 308 450 322 l 450 322 q 465 334 474 353 q 482 371 482 398 l 482 398 q 482 434 465 460 q 447 486 413 501 q 378 515 325 515 z m 545 145 l 545 145 q 545 110 534 83 q 523 56 502 38 l 502 38 q 486 24 467 16 q 448 8 423 4 q 397 0 360 0 l 360 0 l 237 0 q 192 0 167 -4 q 142 -8 126 -21 l 126 -21 q 113 -30 107 -43 q 101 -57 101 -75 l 101 -75 q 101 -94 108 -108 q 114 -122 127 -131 l 127 -131 q 142 -143 168 -148 q 193 -153 236 -153 l 236 -153 l 522 -153 l 522 -201 l 230 -201 q 183 -201 151 -194 q 118 -187 93 -170 l 93 -170 q 71 -155 59 -132 q 46 -109 46 -77 l 46 -77 q 46 -48 56 -25 q 66 -3 86 12 l 86 12 q 100 24 119 32 q 137 39 163 43 q 189 47 227 47 l 227 47 l 355 47 q 398 47 423 53 q 447 58 463 73 l 463 73 q 476 85 483 104 q 490 122 490 147 l 490 147 q 490 173 481 193 q 471 213 453 226 l 453 226 q 437 238 415 244 q 393 250 361 250 l 361 250 l 353 250 l 353 281 l 409 281 q 472 274 509 238 q 545 202 545 145 z"},"ഴ":{"ha":531,"x_min":37,"x_max":493,"o":"m 220 416 l 220 416 q 220 479 257 521 q 293 562 356 562 l 356 562 q 404 562 434 539 q 464 516 479 479 q 493 442 493 399 l 493 399 q 493 330 468 276 q 442 222 395 191 q 348 160 282 160 l 282 160 l 271 160 q 198 160 146 188 q 93 216 65 269 q 37 321 37 395 l 37 395 q 37 439 49 480 q 61 521 84 561 l 84 561 l 128 537 q 108 499 100 466 q 91 432 91 396 l 91 396 q 91 330 114 288 q 137 246 178 226 q 218 206 270 206 l 270 206 l 282 206 q 334 206 369 231 q 403 256 421 300 q 439 343 439 399 l 439 399 q 439 448 420 482 q 400 516 356 516 l 356 516 q 329 516 311 502 q 292 488 283 466 q 273 443 273 414 l 273 414 q 273 372 285 335 q 296 298 311 263 q 325 228 337 193 q 348 157 348 119 l 348 119 q 348 85 336 56 q 323 26 295 7 q 266 -12 216 -12 l 216 -12 q 184 -12 152 -5 q 119 2 89 17 l 89 17 l 110 61 q 134 48 160 42 q 185 35 213 35 l 213 35 q 259 35 277 59 q 295 82 295 121 l 295 121 q 295 158 284 193 q 273 227 258 262 q 242 297 231 335 q 220 373 220 416 z"},"വ":{"ha":772,"x_min":40,"x_max":707,"o":"m 273 562 l 273 562 q 330 562 373 541 q 415 520 444 483 q 472 446 487 396 q 501 346 501 287 l 501 287 q 501 222 487 174 q 472 125 450 91 q 428 56 406 33 l 406 33 l 403 47 l 653 47 l 653 550 l 707 550 l 707 0 l 371 0 l 347 39 q 370 60 393 93 q 415 125 430 172 q 445 219 445 282 l 445 282 q 445 352 425 404 q 405 456 367 485 q 328 514 272 514 l 272 514 q 215 514 176 484 q 136 454 116 402 q 95 349 95 283 l 95 283 q 95 223 109 177 q 122 130 147 95 q 171 59 202 31 l 202 31 l 166 -7 q 134 20 105 60 q 76 100 58 156 q 40 212 40 285 l 40 285 q 40 345 55 395 q 70 445 100 483 q 130 520 174 541 q 217 562 273 562 z"},"ശ":{"ha":827,"x_min":40,"x_max":788,"o":"m 539 562 l 539 562 q 600 562 646 539 q 692 516 724 473 q 755 430 772 371 q 788 312 788 240 l 788 240 q 788 146 767 91 q 746 35 711 12 q 675 -12 628 -12 l 628 -12 q 576 -12 543 15 q 510 41 494 88 q 478 134 478 193 l 478 193 q 478 291 519 341 q 559 391 626 391 l 626 391 q 664 391 691 375 q 718 359 738 331 q 758 302 771 266 l 771 266 l 754 250 q 744 272 729 294 q 713 316 690 331 q 667 345 636 345 l 636 345 q 582 345 557 305 q 532 265 532 193 l 532 193 q 532 145 542 109 q 551 73 573 54 q 594 34 629 34 l 629 34 q 662 34 686 55 q 710 75 723 121 q 736 167 736 243 l 736 243 q 736 252 735 271 q 734 289 732 303 l 732 303 q 731 307 732 312 q 733 317 731 321 l 731 321 q 723 373 700 417 q 676 461 637 488 q 597 514 539 514 l 539 514 q 506 514 481 506 q 456 498 437 481 l 437 481 q 407 454 396 409 q 384 364 384 283 l 384 283 l 384 213 q 384 150 375 107 q 365 63 337 33 l 337 33 q 318 12 291 0 q 263 -12 224 -12 l 224 -12 q 166 -12 125 20 q 83 51 62 110 q 40 169 40 251 l 40 251 q 40 327 56 383 q 72 438 100 481 q 127 524 160 560 l 160 560 l 200 523 q 171 493 147 455 q 123 417 109 368 q 95 318 95 252 l 95 252 q 95 186 110 138 q 125 89 154 63 q 183 36 223 36 l 223 36 q 250 36 268 44 q 286 52 298 68 l 298 68 q 317 92 323 132 q 329 172 329 237 l 329 237 l 329 308 q 329 381 344 429 q 358 477 393 511 l 393 511 q 418 535 456 549 q 493 562 539 562 z"},"ഷ":{"ha":918,"x_min":33,"x_max":852,"o":"m 184 337 l 184 337 q 233 337 267 315 q 300 293 318 256 q 335 219 335 172 l 335 172 q 335 127 321 91 q 306 55 285 34 l 285 34 l 278 47 l 551 47 l 558 0 l 257 0 l 235 36 q 257 62 270 94 q 282 126 282 166 l 282 166 q 282 226 256 258 q 230 290 185 290 l 185 290 q 154 290 132 275 q 109 259 98 232 q 86 205 86 170 l 86 170 q 86 123 103 89 q 119 55 145 26 l 145 26 l 109 -7 q 77 27 55 70 q 33 113 33 170 l 33 170 q 33 220 52 258 q 71 295 105 316 q 139 337 184 337 z m 852 0 l 533 0 l 533 397 q 533 437 528 462 q 523 487 510 500 l 510 500 q 504 507 495 511 q 485 515 472 515 l 472 515 q 442 515 424 489 q 405 463 405 415 l 405 415 q 405 377 418 349 q 430 321 457 306 q 484 291 529 291 l 529 291 l 554 291 q 599 291 635 309 q 671 327 701 361 q 730 395 755 443 q 780 490 801 550 l 801 550 l 852 550 l 852 0 z m 474 562 l 474 562 q 498 562 517 555 q 535 548 547 536 l 547 536 q 570 515 578 483 q 586 451 586 401 l 586 401 l 586 47 l 799 47 l 799 354 q 799 375 800 397 q 800 418 802 438 q 803 457 804 470 l 804 470 l 807 467 q 781 391 744 342 q 706 292 659 269 q 611 245 556 245 l 556 245 l 535 245 q 473 245 433 266 q 392 287 372 326 q 352 364 352 416 l 352 416 q 352 454 366 487 q 379 520 407 541 q 434 562 474 562 z"},"സ":{"ha":981,"x_min":40,"x_max":941,"o":"m 499 562 l 499 562 q 532 562 559 551 q 586 539 605 519 l 605 519 q 621 501 631 479 q 641 457 646 424 q 651 391 651 341 l 651 341 l 651 238 q 651 171 658 132 q 664 92 682 68 l 682 68 q 694 52 712 44 q 729 36 758 36 l 758 36 q 799 36 828 63 q 856 89 871 138 q 886 187 886 252 l 886 252 q 886 318 872 368 q 858 417 835 455 q 811 493 782 523 l 782 523 l 821 560 q 854 524 882 481 q 909 438 925 383 q 941 327 941 251 l 941 251 q 941 169 919 110 q 897 51 856 20 q 815 -12 757 -12 l 757 -12 q 718 -12 690 0 q 662 12 643 33 l 643 33 q 625 53 615 79 q 605 105 601 139 q 597 172 597 214 l 597 214 l 597 330 q 597 391 591 427 q 584 463 565 485 l 565 485 q 553 499 536 507 q 518 514 493 514 l 493 514 q 470 514 453 507 q 436 499 424 484 l 424 484 q 406 463 399 426 q 391 389 391 329 l 391 329 l 391 0 l 338 0 l 338 324 q 338 386 330 424 q 321 461 301 483 l 301 483 q 288 499 271 507 q 253 514 227 514 l 227 514 q 186 514 157 485 q 127 456 111 408 q 95 359 95 299 l 95 299 q 95 233 110 184 q 124 134 148 97 q 171 60 199 29 l 199 29 l 159 -7 q 128 28 101 70 q 73 112 57 168 q 40 223 40 300 l 40 300 q 40 376 62 435 q 84 494 126 528 q 168 562 228 562 l 228 562 q 282 562 316 534 q 350 506 369 446 l 369 446 l 360 444 q 375 504 409 533 q 443 562 499 562 z"},"ഹ":{"ha":952,"x_min":33,"x_max":912,"o":"m 184 337 l 184 337 q 233 337 267 315 q 300 293 318 256 q 335 219 335 172 l 335 172 q 335 127 321 91 q 306 55 285 34 l 285 34 l 278 47 l 563 47 l 573 0 l 257 0 l 235 36 q 257 62 270 94 q 282 126 282 166 l 282 166 q 282 226 256 258 q 230 290 185 290 l 185 290 q 154 290 132 275 q 109 259 98 232 q 86 205 86 170 l 86 170 q 86 123 103 89 q 119 55 145 26 l 145 26 l 109 -7 q 77 27 55 70 q 33 113 33 170 l 33 170 q 33 220 52 258 q 71 295 105 316 q 139 337 184 337 z m 684 562 l 684 562 q 741 562 784 541 q 827 520 856 483 q 884 446 898 396 q 912 346 912 287 l 912 287 q 912 212 895 158 q 877 103 849 63 q 820 23 786 -8 l 786 -8 l 750 30 q 777 54 802 88 q 826 122 842 170 q 857 217 857 282 l 857 282 q 857 352 837 404 q 816 456 778 485 q 740 514 684 514 l 684 514 q 627 514 588 484 q 548 454 528 402 q 507 349 507 283 l 507 283 q 507 225 520 180 q 533 135 555 100 q 577 65 605 39 l 605 39 l 579 0 l 558 0 l 539 39 q 520 63 500 97 q 479 130 466 177 q 452 224 452 286 l 452 286 q 452 345 467 395 q 482 445 512 483 q 542 520 585 541 q 628 562 684 562 z"},"ഺ":{"ha":618,"x_min":22,"x_max":602,"o":"m 82 47 l 602 47 l 602 0 l 370 0 l 370 -202 l 316 -202 l 316 0 l 54 0 l 22 38 l 219 558 l 270 541 l 82 47 z"},"഻":{"ha":0,"x_min":-302,"x_max":-255,"o":"m -302 583 l -302 864 l -255 864 l -255 583 l -302 583 z"},"഼":{"ha":0,"x_min":-201,"x_max":14,"o":"m -201 723 l -201 723 q -201 782 -171 816 q -142 850 -94 850 l -94 850 q -46 850 -16 817 q 14 783 14 723 l 14 723 q 14 664 -16 630 q -46 596 -94 596 l -94 596 q -143 596 -172 630 q -201 664 -201 723 z m -155 724 l -155 724 q -155 685 -139 663 q -123 640 -94 640 l -94 640 q -64 640 -48 663 q -33 685 -33 724 l -33 724 q -33 762 -49 784 q -65 806 -94 806 l -94 806 q -123 806 -139 784 q -155 762 -155 724 z"},"ഽ":{"ha":372,"x_min":-63,"x_max":435,"o":"m 299 788 l 299 788 q 339 788 366 770 q 393 751 410 719 q 427 687 435 647 l 435 647 l 382 636 q 375 665 366 689 q 356 713 340 727 q 324 741 298 741 l 298 741 q 280 741 267 736 q 254 730 244 720 l 244 720 q 226 701 220 667 q 213 633 213 579 l 213 579 l 213 -38 q 213 -107 202 -146 q 191 -185 166 -210 l 166 -210 q 148 -227 125 -235 q 102 -244 72 -244 l 72 -244 q 33 -244 6 -225 q -21 -207 -38 -175 q -55 -143 -63 -102 l -63 -102 l -10 -92 q -3 -121 7 -145 q 16 -169 33 -183 q 49 -197 74 -197 l 74 -197 q 92 -197 105 -191 q 118 -186 128 -176 l 128 -176 q 146 -157 153 -123 q 159 -90 159 -37 l 159 -37 l 159 580 q 159 653 170 691 q 181 729 206 753 l 206 753 q 223 771 247 780 q 270 788 299 788 z"},"ാ":{"ha":407,"x_min":20,"x_max":365,"o":"m 365 277 l 365 277 q 365 212 356 159 q 346 105 326 67 q 305 29 272 9 q 238 -12 190 -12 l 190 -12 q 150 -12 121 3 q 91 17 71 42 q 51 67 39 99 q 27 131 20 165 l 20 165 l 74 176 q 82 141 95 109 q 107 76 130 56 q 153 35 188 35 l 188 35 q 232 35 259 63 q 285 91 298 145 q 310 199 310 277 l 310 277 q 310 353 298 406 q 285 459 259 487 q 233 515 191 515 l 191 515 q 158 515 135 496 q 112 476 99 445 q 85 413 76 376 l 76 376 l 23 387 q 31 421 44 453 q 57 484 78 509 q 98 534 127 548 q 156 562 195 562 l 195 562 q 241 562 274 541 q 306 520 326 483 q 346 445 356 393 q 365 340 365 277 z"},"ി":{"ha":185,"x_min":-172,"x_max":119,"o":"m -32 843 l -32 843 q -3 843 21 835 q 45 827 63 811 l 63 811 q 84 792 97 766 q 109 740 114 702 q 119 663 119 606 l 119 606 l 119 0 l 66 0 l 66 579 q 66 630 64 667 q 61 704 53 731 q 45 757 29 773 l 29 773 q 18 785 4 791 q -11 796 -31 796 l -31 796 q -54 796 -74 786 q -94 775 -106 752 q -118 729 -118 693 l -118 693 q -118 677 -116 663 q -114 648 -112 637 l -112 637 l -165 629 q -168 642 -170 658 q -172 674 -172 693 l -172 693 q -172 741 -153 775 q -134 808 -102 826 q -70 843 -32 843 z"},"ീ":{"ha":185,"x_min":-233,"x_max":119,"o":"m -86 843 l -86 843 q -48 843 -16 833 q 16 823 40 804 l 40 804 q 85 771 102 716 q 119 661 119 573 l 119 573 l 119 0 l 66 0 l 66 554 q 66 605 63 643 q 59 681 49 710 q 39 738 19 758 l 19 758 q 1 780 -24 790 q -50 800 -92 800 l -92 800 q -115 800 -136 791 q -158 781 -171 761 q -185 741 -185 710 l -185 710 q -185 670 -168 652 q -152 634 -123 634 l -123 634 q -90 634 -75 654 q -60 674 -60 708 l -60 708 q -60 738 -71 764 q -83 789 -103 807 l -103 807 l -50 802 q -36 786 -26 763 q -16 739 -16 707 l -16 707 q -16 674 -27 647 q -38 620 -62 604 q -86 588 -124 588 l -124 588 q -154 588 -179 602 q -204 616 -218 644 q -233 671 -233 711 l -233 711 q -233 751 -214 781 q -196 811 -162 827 q -129 843 -86 843 z"},"ു":{"ha":263,"x_min":-16,"x_max":266,"o":"m 125 -223 l 125 -223 q 59 -223 22 -178 q -16 -133 -16 -54 l -16 -54 q -16 -1 2 37 q 19 75 51 95 q 82 115 124 115 l 124 115 q 168 115 200 95 q 231 75 249 38 q 266 0 266 -53 l 266 -53 q 266 -106 249 -144 q 231 -183 200 -203 q 168 -223 125 -223 z m 125 -179 l 125 -179 q 166 -179 191 -147 q 215 -116 215 -53 l 215 -53 q 215 7 191 39 q 167 71 124 71 l 124 71 q 83 71 59 39 q 35 7 35 -54 l 35 -54 q 35 -115 59 -147 q 83 -179 125 -179 z m 83 562 l 83 562 q 129 562 157 542 q 184 521 197 487 q 209 452 209 411 l 209 411 q 209 346 193 261 q 177 176 153 86 l 153 86 l 103 96 q 126 186 140 265 q 154 344 154 406 l 154 406 q 154 457 136 486 q 118 514 75 514 l 75 514 q 62 514 48 512 q 34 510 23 506 l 23 506 l 12 552 q 25 556 44 559 q 62 562 83 562 z"},"ൂ":{"ha":263,"x_min":-16,"x_max":266,"o":"m 125 -223 l 125 -223 q 59 -223 22 -178 q -16 -133 -16 -54 l -16 -54 q -16 -1 2 37 q 19 75 51 95 q 82 115 124 115 l 124 115 q 167 115 199 95 q 231 75 249 38 q 266 0 266 -53 l 266 -53 q 266 -106 249 -144 q 231 -183 200 -203 q 168 -223 125 -223 z m 124 73 l 124 73 q 80 73 54 43 q 28 12 28 -54 l 28 -54 q 28 -117 54 -148 q 80 -180 125 -180 l 125 -180 q 169 -180 196 -148 q 222 -117 222 -54 l 222 -54 q 222 13 196 43 q 170 73 124 73 z m 124 -91 l 124 -91 q 74 -91 53 -62 q 31 -33 31 10 l 31 10 q 31 33 42 53 q 52 72 68 93 l 68 93 l 93 75 q 76 62 69 47 q 61 32 61 13 l 61 13 q 61 -2 67 -15 q 73 -29 88 -37 q 102 -46 125 -46 l 125 -46 q 147 -46 161 -38 q 175 -30 182 -16 q 188 -2 188 13 l 188 13 q 188 32 181 47 q 173 62 157 74 l 157 74 l 183 93 q 200 71 209 52 q 218 33 218 11 l 218 11 q 218 -15 210 -38 q 201 -62 181 -76 q 160 -91 124 -91 z m 83 562 l 83 562 q 129 562 157 542 q 184 521 197 487 q 209 452 209 411 l 209 411 q 209 346 193 261 q 177 176 153 86 l 153 86 l 103 96 q 126 186 140 265 q 154 344 154 406 l 154 406 q 154 457 136 486 q 118 514 75 514 l 75 514 q 62 514 48 512 q 34 510 23 506 l 23 506 l 12 552 q 25 556 44 559 q 62 562 83 562 z"},"ൃ":{"ha":195,"x_min":-119,"x_max":189,"o":"m 24 -307 l 24 -307 q -18 -307 -50 -291 q -82 -276 -100 -245 q -119 -214 -119 -169 l -119 -169 q -119 -109 -82 -72 q -45 -36 17 -36 l 17 -36 q 59 -36 97 -53 q 134 -70 168 -105 l 168 -105 l 157 -149 q 122 -114 89 -98 q 55 -83 20 -83 l 20 -83 q -18 -83 -42 -104 q -67 -126 -67 -171 l -67 -171 q -67 -216 -42 -238 q -17 -260 24 -260 l 24 -260 q 56 -260 82 -246 q 108 -233 123 -203 q 137 -174 137 -124 l 137 -124 q 137 -92 132 -61 q 126 -31 115 6 q 104 42 87 91 l 87 91 q 68 145 56 195 q 44 244 44 300 l 44 300 q 44 365 62 427 q 79 489 107 550 l 107 550 l 164 550 q 141 501 127 461 q 112 420 105 383 q 98 345 98 303 l 98 303 q 98 249 109 205 q 120 161 139 105 l 139 105 q 157 52 168 13 q 179 -27 184 -59 q 189 -91 189 -124 l 189 -124 q 189 -188 167 -228 q 145 -269 108 -288 q 70 -307 24 -307 z"},"ൄ":{"ha":195,"x_min":-216,"x_max":189,"o":"m -23 -307 l -23 -307 q -81 -307 -124 -289 q -168 -272 -192 -237 q -216 -202 -216 -150 l -216 -150 q -216 -102 -190 -72 q -165 -42 -123 -42 l -123 -42 q -95 -42 -77 -57 q -59 -73 -51 -99 l -51 -99 l -58 -98 q -48 -71 -29 -56 q -10 -42 16 -42 l 16 -42 q 40 -42 56 -51 q 71 -61 80 -76 q 89 -91 93 -110 q 97 -129 97 -148 l 97 -148 l 97 -175 l 54 -175 l 54 -158 q 54 -124 44 -105 q 34 -87 12 -87 l 12 -87 q -13 -87 -22 -105 q -32 -124 -32 -157 l -32 -157 l -32 -175 l -76 -175 l -76 -157 q -76 -124 -86 -105 q -96 -87 -119 -87 l -119 -87 q -141 -87 -154 -103 q -168 -119 -168 -150 l -168 -150 q -168 -206 -129 -233 q -91 -260 -23 -260 l -23 -260 q 52 -260 94 -228 q 136 -196 136 -123 l 136 -123 q 136 -91 131 -61 q 125 -31 115 6 q 104 42 87 91 l 87 91 q 68 144 56 194 q 43 243 43 300 l 43 300 q 43 365 60 427 q 76 488 104 550 l 104 550 l 161 550 q 139 501 125 461 q 110 420 104 382 q 98 344 98 302 l 98 302 q 98 244 110 201 q 121 157 139 106 l 139 106 q 157 52 168 13 q 179 -26 184 -58 q 189 -91 189 -125 l 189 -125 q 189 -189 162 -229 q 134 -269 86 -288 q 38 -307 -23 -307 z"},"െ":{"ha":573,"x_min":40,"x_max":532,"o":"m 191 -12 l 191 -12 q 149 -12 115 11 q 81 34 61 87 q 40 140 40 231 l 40 231 q 40 311 60 373 q 79 434 115 477 q 150 519 197 541 q 244 562 298 562 l 298 562 q 357 562 401 542 q 445 521 475 484 q 504 446 518 396 q 532 346 532 287 l 532 287 q 532 212 515 158 q 497 103 469 63 q 440 23 406 -8 l 406 -8 l 370 30 q 397 54 422 88 q 446 122 462 170 q 477 217 477 282 l 477 282 q 477 352 457 405 q 436 457 396 486 q 356 514 297 514 l 297 514 q 238 514 192 480 q 145 445 118 381 q 91 317 91 229 l 91 229 q 91 158 104 116 q 116 73 139 54 q 161 35 191 35 l 191 35 q 213 35 230 47 q 247 58 258 84 q 268 110 268 154 l 268 154 q 268 209 247 239 q 225 268 184 268 l 184 268 q 150 268 123 251 q 95 233 71 204 l 71 204 l 58 244 q 86 277 121 296 q 155 314 193 314 l 193 314 q 230 314 259 297 q 288 280 305 245 q 321 210 321 156 l 321 156 q 321 97 305 60 q 288 23 259 6 q 230 -12 191 -12 z"},"േ":{"ha":476,"x_min":40,"x_max":442,"o":"m 288 -12 l 288 -12 q 238 -12 193 5 q 148 22 114 58 q 79 93 60 149 q 40 204 40 279 l 40 279 q 40 353 62 407 q 83 460 119 495 q 155 529 200 546 q 245 562 293 562 l 293 562 q 345 562 378 544 q 411 526 427 496 q 442 465 442 428 l 442 428 q 442 388 428 361 q 414 333 390 320 q 366 306 335 306 l 335 306 q 296 306 271 322 q 246 337 234 365 q 222 392 222 426 l 222 426 q 222 456 233 482 q 243 507 257 525 l 257 525 l 310 530 q 293 513 282 485 q 270 457 270 428 l 270 428 q 270 395 285 373 q 299 351 333 351 l 333 351 q 363 351 378 371 q 392 390 392 427 l 392 427 q 392 472 368 496 q 343 519 303 519 l 303 519 q 296 519 287 519 q 277 519 269 518 l 269 518 q 217 513 178 482 q 138 450 117 398 q 95 346 95 279 l 95 279 q 95 206 116 153 q 136 100 174 70 q 211 40 260 33 l 260 33 q 270 32 280 32 q 290 31 297 31 l 297 31 q 324 31 344 42 q 364 53 376 74 q 387 94 387 124 l 387 124 q 387 159 373 179 q 358 199 328 199 l 328 199 q 294 199 279 177 q 264 155 264 123 l 264 123 q 264 93 276 66 q 287 39 304 21 l 304 21 l 252 26 q 238 44 228 70 q 217 96 217 127 l 217 127 q 217 159 229 186 q 241 212 266 228 q 290 244 327 244 l 327 244 q 358 244 383 231 q 408 218 423 191 q 437 164 437 123 l 437 123 q 437 85 421 54 q 405 23 372 6 q 339 -12 288 -12 z"},"ൈ":{"ha":1144,"x_min":40,"x_max":1104,"o":"m 191 -12 l 191 -12 q 149 -12 115 11 q 81 34 61 87 q 40 140 40 231 l 40 231 q 40 311 60 373 q 79 434 115 477 q 150 519 197 541 q 244 562 298 562 l 298 562 q 357 562 401 542 q 445 521 475 484 q 504 446 518 396 q 532 346 532 287 l 532 287 q 532 212 515 158 q 497 103 469 63 q 440 23 406 -8 l 406 -8 l 370 30 q 397 54 422 88 q 446 122 462 170 q 477 217 477 282 l 477 282 q 477 352 457 405 q 436 457 396 486 q 356 514 297 514 l 297 514 q 238 514 192 480 q 145 445 118 381 q 91 317 91 229 l 91 229 q 91 158 104 116 q 116 73 139 54 q 161 35 191 35 l 191 35 q 213 35 230 47 q 247 58 258 84 q 268 110 268 154 l 268 154 q 268 209 247 239 q 225 268 184 268 l 184 268 q 150 268 123 251 q 95 233 71 204 l 71 204 l 58 244 q 86 277 121 296 q 155 314 193 314 l 193 314 q 230 314 259 297 q 288 280 305 245 q 321 210 321 156 l 321 156 q 321 97 305 60 q 288 23 259 6 q 230 -12 191 -12 z m 763 -12 l 763 -12 q 721 -12 687 11 q 653 34 633 87 q 612 140 612 231 l 612 231 q 612 311 632 373 q 651 434 687 477 q 722 519 769 541 q 816 562 870 562 l 870 562 q 929 562 973 542 q 1017 521 1047 484 q 1076 446 1090 396 q 1104 346 1104 287 l 1104 287 q 1104 212 1087 158 q 1069 103 1041 63 q 1012 23 978 -8 l 978 -8 l 942 30 q 969 54 994 88 q 1018 122 1034 170 q 1049 217 1049 282 l 1049 282 q 1049 352 1029 405 q 1008 457 968 486 q 928 514 869 514 l 869 514 q 810 514 764 480 q 717 445 690 381 q 663 317 663 229 l 663 229 q 663 158 676 116 q 688 73 711 54 q 733 35 763 35 l 763 35 q 785 35 802 47 q 819 58 830 84 q 840 110 840 154 l 840 154 q 840 209 819 239 q 797 268 756 268 l 756 268 q 722 268 695 251 q 667 233 643 204 l 643 204 l 630 244 q 658 277 693 296 q 727 314 765 314 l 765 314 q 802 314 831 297 q 860 280 877 245 q 893 210 893 156 l 893 156 q 893 97 877 60 q 860 23 831 6 q 802 -12 763 -12 z"},"ൊ":{"ha":1106,"x_min":40,"x_max":1064,"o":"m 191 -12 l 191 -12 q 149 -12 115 11 q 81 34 61 87 q 40 140 40 231 l 40 231 q 40 311 60 373 q 79 434 115 477 q 150 519 197 541 q 244 562 298 562 l 298 562 q 357 562 401 542 q 445 521 475 484 q 504 446 518 396 q 532 346 532 287 l 532 287 q 532 212 515 158 q 497 103 469 63 q 440 23 406 -8 l 406 -8 l 370 30 q 397 54 422 88 q 446 122 462 170 q 477 217 477 282 l 477 282 q 477 352 457 405 q 436 457 396 486 q 356 514 297 514 l 297 514 q 238 514 192 480 q 145 445 118 381 q 91 317 91 229 l 91 229 q 91 158 104 116 q 116 73 139 54 q 161 35 191 35 l 191 35 q 213 35 230 47 q 247 58 258 84 q 268 110 268 154 l 268 154 q 268 209 247 239 q 225 268 184 268 l 184 268 q 150 268 123 251 q 95 233 71 204 l 71 204 l 58 244 q 86 277 121 296 q 155 314 193 314 l 193 314 q 230 314 259 297 q 288 280 305 245 q 321 210 321 156 l 321 156 q 321 97 305 60 q 288 23 259 6 q 230 -12 191 -12 z m 640 251 l 640 251 q 620 251 610 264 q 600 276 600 299 l 600 299 q 600 322 610 335 q 620 347 640 347 l 640 347 q 662 347 672 335 q 682 323 682 299 l 682 299 q 682 276 672 264 q 661 251 640 251 z m 1064 277 l 1064 277 q 1064 212 1055 159 q 1045 105 1025 67 q 1004 29 971 9 q 937 -12 889 -12 l 889 -12 q 849 -12 820 3 q 790 17 770 42 q 750 67 738 99 q 726 131 719 165 l 719 165 l 773 176 q 781 141 794 109 q 806 76 829 56 q 852 35 887 35 l 887 35 q 931 35 958 63 q 984 91 997 145 q 1009 199 1009 277 l 1009 277 q 1009 353 997 406 q 984 459 958 487 q 932 515 890 515 l 890 515 q 857 515 834 496 q 811 476 798 445 q 784 413 775 376 l 775 376 l 722 387 q 730 421 743 453 q 756 484 777 509 q 797 534 826 548 q 855 562 894 562 l 894 562 q 940 562 973 541 q 1005 520 1025 483 q 1045 445 1055 393 q 1064 340 1064 277 z"},"ോ":{"ha":997,"x_min":40,"x_max":955,"o":"m 288 -12 l 288 -12 q 238 -12 193 5 q 148 22 114 58 q 79 93 60 149 q 40 204 40 279 l 40 279 q 40 353 62 407 q 83 460 119 495 q 155 529 200 546 q 245 562 293 562 l 293 562 q 345 562 378 544 q 411 526 427 496 q 442 465 442 428 l 442 428 q 442 388 428 361 q 414 333 390 320 q 366 306 335 306 l 335 306 q 296 306 271 322 q 246 337 234 365 q 222 392 222 426 l 222 426 q 222 456 233 482 q 243 507 257 525 l 257 525 l 310 530 q 293 513 282 485 q 270 457 270 428 l 270 428 q 270 395 285 373 q 299 351 333 351 l 333 351 q 363 351 378 371 q 392 390 392 427 l 392 427 q 392 472 368 496 q 343 519 303 519 l 303 519 q 296 519 287 519 q 277 519 269 518 l 269 518 q 217 513 178 482 q 138 450 117 398 q 95 346 95 279 l 95 279 q 95 206 116 153 q 136 100 174 70 q 211 40 260 33 l 260 33 q 270 32 280 32 q 290 31 297 31 l 297 31 q 324 31 344 42 q 364 53 376 74 q 387 94 387 124 l 387 124 q 387 159 373 179 q 358 199 328 199 l 328 199 q 294 199 279 177 q 264 155 264 123 l 264 123 q 264 93 276 66 q 287 39 304 21 l 304 21 l 252 26 q 238 44 228 70 q 217 96 217 127 l 217 127 q 217 159 229 186 q 241 212 266 228 q 290 244 327 244 l 327 244 q 358 244 383 231 q 408 218 423 191 q 437 164 437 123 l 437 123 q 437 85 421 54 q 405 23 372 6 q 339 -12 288 -12 z m 531 251 l 531 251 q 511 251 501 264 q 491 276 491 299 l 491 299 q 491 322 501 335 q 511 347 531 347 l 531 347 q 553 347 563 335 q 573 323 573 299 l 573 299 q 573 276 563 264 q 552 251 531 251 z m 955 277 l 955 277 q 955 212 946 159 q 936 105 916 67 q 895 29 862 9 q 828 -12 780 -12 l 780 -12 q 740 -12 711 3 q 681 17 661 42 q 641 67 629 99 q 617 131 610 165 l 610 165 l 664 176 q 672 141 685 109 q 697 76 720 56 q 743 35 778 35 l 778 35 q 822 35 849 63 q 875 91 888 145 q 900 199 900 277 l 900 277 q 900 353 888 406 q 875 459 849 487 q 823 515 781 515 l 781 515 q 748 515 725 496 q 702 476 689 445 q 675 413 666 376 l 666 376 l 613 387 q 621 421 634 453 q 647 484 668 509 q 688 534 717 548 q 746 562 785 562 l 785 562 q 831 562 864 541 q 896 520 916 483 q 936 445 946 393 q 955 340 955 277 z"},"ൌ":{"ha":1319,"x_min":40,"x_max":1277,"o":"m 191 -12 l 191 -12 q 149 -12 115 11 q 81 34 61 87 q 40 140 40 231 l 40 231 q 40 311 60 373 q 79 434 115 477 q 150 519 197 541 q 244 562 298 562 l 298 562 q 357 562 401 542 q 445 521 475 484 q 504 446 518 396 q 532 346 532 287 l 532 287 q 532 212 515 158 q 497 103 469 63 q 440 23 406 -8 l 406 -8 l 370 30 q 397 54 422 88 q 446 122 462 170 q 477 217 477 282 l 477 282 q 477 352 457 405 q 436 457 396 486 q 356 514 297 514 l 297 514 q 238 514 192 480 q 145 445 118 381 q 91 317 91 229 l 91 229 q 91 158 104 116 q 116 73 139 54 q 161 35 191 35 l 191 35 q 213 35 230 47 q 247 58 258 84 q 268 110 268 154 l 268 154 q 268 209 247 239 q 225 268 184 268 l 184 268 q 150 268 123 251 q 95 233 71 204 l 71 204 l 58 244 q 86 277 121 296 q 155 314 193 314 l 193 314 q 230 314 259 297 q 288 280 305 245 q 321 210 321 156 l 321 156 q 321 97 305 60 q 288 23 259 6 q 230 -12 191 -12 z m 640 251 l 640 251 q 620 251 610 264 q 600 276 600 299 l 600 299 q 600 322 610 335 q 620 347 640 347 l 640 347 q 662 347 672 335 q 682 323 682 299 l 682 299 q 682 276 672 264 q 661 251 640 251 z m 1120 562 l 1120 562 q 1169 562 1204 532 q 1239 502 1258 445 q 1276 387 1276 303 l 1276 303 q 1276 196 1252 126 q 1227 56 1176 22 q 1125 -12 1046 -12 l 1046 -12 q 1003 -12 962 -3 q 921 6 880 27 l 880 27 l 906 71 q 938 55 971 46 q 1003 37 1043 37 l 1043 37 q 1111 37 1150 68 q 1189 98 1205 157 q 1221 216 1221 303 l 1221 303 q 1221 409 1193 462 q 1165 514 1116 514 l 1116 514 q 1095 514 1081 507 q 1067 499 1057 485 l 1057 485 q 1042 463 1037 431 q 1031 398 1031 349 l 1031 349 l 1031 257 l 978 257 l 978 350 q 978 400 973 432 q 967 463 953 483 l 953 483 q 943 498 927 506 q 911 514 891 514 l 891 514 q 845 514 822 478 q 798 442 798 387 l 798 387 q 798 354 803 324 q 807 293 814 265 l 814 265 l 764 254 q 755 285 750 320 q 744 354 744 390 l 744 390 q 744 438 761 477 q 777 516 809 539 q 841 562 888 562 l 888 562 q 932 562 963 538 q 994 513 1008 459 l 1008 459 l 999 459 q 1014 514 1046 538 q 1077 562 1120 562 z"},"്":{"ha":0,"x_min":-231,"x_max":46,"o":"m -93 596 l -93 596 q -137 596 -167 614 q -198 631 -214 665 q -231 698 -231 746 l -231 746 q -231 764 -228 782 q -226 799 -222 812 l -222 812 l -175 803 q -178 791 -179 777 q -181 762 -181 746 l -181 746 q -181 707 -169 684 q -158 661 -138 652 q -118 642 -93 642 l -93 642 q -66 642 -46 652 q -26 661 -14 685 q -3 708 -3 747 l -3 747 q -3 762 -5 777 q -7 792 -10 803 l -10 803 l 37 812 q 41 800 44 783 q 46 765 46 746 l 46 746 q 46 698 30 665 q 13 631 -18 614 q -49 596 -93 596 z"},"ൎ":{"ha":0,"x_min":-312,"x_max":-248,"o":"m -312 803 l -248 803 l -254 626 l -306 626 l -312 803 z"},"൏":{"ha":1006,"x_min":48,"x_max":962,"o":"m 474 562 l 474 562 q 545 562 585 530 q 625 498 646 441 l 646 441 l 634 447 q 654 507 689 535 q 723 562 776 562 l 776 562 q 835 562 877 526 q 918 489 940 417 q 962 344 962 234 l 962 234 q 962 86 916 -17 q 869 -120 769 -173 q 669 -226 509 -226 l 509 -226 q 402 -226 324 -201 q 245 -177 192 -133 q 139 -90 107 -32 q 75 25 62 92 q 48 158 48 228 l 48 228 q 48 307 64 381 q 80 454 109 532 l 109 532 l 159 514 q 131 445 116 373 q 101 301 101 230 l 101 230 q 101 170 112 112 q 122 53 148 1 q 174 -51 221 -91 q 267 -131 338 -153 q 409 -176 510 -176 l 510 -176 q 617 -176 693 -150 q 768 -124 816 -72 q 863 -20 885 58 q 906 135 906 236 l 906 236 q 906 325 892 387 q 877 449 848 482 q 819 514 776 514 l 776 514 q 751 514 734 507 q 716 499 702 483 l 702 483 q 682 461 674 424 q 666 386 666 323 l 666 323 l 666 0 l 612 0 l 612 320 q 612 384 602 422 q 592 459 568 482 l 568 482 q 552 498 530 506 q 507 514 475 514 l 475 514 q 416 514 373 479 q 329 444 306 383 q 282 321 282 241 l 282 241 l 282 223 q 282 155 294 114 q 306 72 329 54 q 351 35 382 35 l 382 35 q 403 35 421 47 q 438 58 448 84 q 458 110 458 154 l 458 154 q 458 209 437 239 q 416 268 374 268 l 374 268 q 341 268 314 251 q 286 233 262 204 l 262 204 l 248 244 q 277 277 312 296 q 346 314 383 314 l 383 314 q 421 314 450 297 q 478 280 495 245 q 511 210 511 156 l 511 156 q 511 97 495 60 q 478 23 449 6 q 420 -12 382 -12 l 382 -12 q 340 -12 306 11 q 271 34 251 88 q 230 142 230 233 l 230 233 q 230 340 262 414 q 294 487 349 525 q 404 562 474 562 z"},"ൔ":{"ha":511,"x_min":44,"x_max":502,"o":"m 127 792 l 127 792 q 154 792 175 785 q 195 778 209 766 l 209 766 q 232 747 241 720 q 249 692 249 645 l 249 645 l 249 517 q 249 462 255 419 q 261 375 278 336 q 295 296 326 251 l 326 251 l 339 235 q 369 197 409 151 q 448 104 502 45 l 502 45 l 480 0 l 57 0 l 57 273 q 57 324 63 364 q 68 403 81 434 q 93 465 113 491 l 113 491 q 140 524 176 543 q 212 561 259 561 l 259 561 q 308 561 341 538 q 374 515 391 476 q 407 437 407 389 l 407 389 q 407 341 390 297 q 372 252 343 211 l 343 211 l 333 197 q 310 167 283 138 q 256 109 228 82 q 199 55 169 29 l 169 29 l 167 43 q 190 45 214 46 q 238 47 264 47 l 264 47 l 377 47 q 391 47 407 47 q 422 46 437 46 q 452 45 464 44 l 464 44 l 442 42 q 401 87 368 125 q 334 163 308 197 l 308 197 l 294 213 q 256 266 235 311 q 213 356 205 405 q 197 454 197 518 l 197 518 l 197 637 q 197 674 191 696 q 185 717 169 728 l 169 728 q 161 735 149 739 q 137 743 120 743 l 120 743 q 104 743 87 741 q 70 738 56 733 l 56 733 l 44 780 q 59 785 82 789 q 105 792 127 792 z m 110 257 l 110 44 l 116 45 q 150 73 184 105 q 217 136 247 170 q 276 203 299 238 l 299 238 l 310 254 q 331 287 342 321 q 352 355 352 389 l 352 389 q 352 426 341 454 q 329 482 306 499 q 283 515 248 515 l 248 515 q 214 515 189 498 q 163 480 147 450 l 147 450 q 134 427 126 400 q 117 372 114 337 q 110 302 110 257 l 110 257 z"},"ൕ":{"ha":828,"x_min":40,"x_max":788,"o":"m 551 -12 l 551 -12 q 522 -12 497 -8 q 472 -4 451 4 q 430 12 410 24 l 410 24 q 406 28 402 32 q 397 35 393 38 l 393 38 q 350 73 322 122 q 293 170 279 227 q 265 284 265 344 l 265 344 q 265 385 274 423 q 282 460 299 489 l 299 489 l 308 501 q 322 520 340 534 q 357 547 379 555 q 400 562 426 562 l 426 562 q 501 562 543 506 q 585 449 585 341 l 585 341 q 585 275 571 218 q 557 160 529 114 q 500 68 457 37 l 457 37 q 454 34 449 31 q 444 28 440 25 l 440 25 q 410 6 376 -3 q 341 -12 299 -12 l 299 -12 q 238 -12 190 13 q 141 37 108 83 q 74 128 57 191 q 40 253 40 329 l 40 329 q 40 404 63 456 q 85 508 124 535 q 163 562 213 562 l 213 562 q 258 562 289 544 q 319 525 344 497 l 344 497 l 306 463 q 290 487 268 501 q 245 515 216 515 l 216 515 q 183 515 155 496 q 127 476 111 435 q 95 394 95 327 l 95 327 q 95 240 119 174 q 143 108 189 71 q 235 34 301 34 l 301 34 q 330 34 353 39 q 376 43 396 53 l 396 53 q 401 55 406 58 q 411 61 416 63 l 416 63 q 454 89 480 132 q 505 174 518 229 q 530 283 530 340 l 530 340 q 530 404 517 443 q 503 481 480 498 q 456 515 426 515 l 426 515 q 394 515 370 496 q 346 477 333 438 q 320 399 320 341 l 320 341 q 320 292 332 238 q 344 184 370 138 q 395 92 434 64 l 434 64 q 438 62 443 60 q 447 58 452 55 l 452 55 q 470 45 494 40 q 517 34 550 34 l 550 34 q 616 34 657 59 q 697 84 716 128 q 734 171 734 227 l 734 227 q 734 269 725 306 q 716 343 700 381 q 684 418 659 461 l 659 461 q 633 507 616 541 q 598 575 590 605 q 581 635 581 665 l 581 665 q 581 696 594 725 q 607 754 635 773 q 663 792 709 792 l 709 792 q 730 792 751 789 q 772 785 788 780 l 788 780 l 776 733 q 762 738 747 741 q 732 743 714 743 l 714 743 q 672 743 654 719 q 635 694 635 663 l 635 663 q 635 639 642 616 q 649 593 665 563 q 681 532 706 485 l 706 485 q 731 440 750 398 q 768 356 778 315 q 788 274 788 231 l 788 231 q 788 188 779 151 q 770 114 752 84 q 734 54 706 33 q 677 11 639 0 q 600 -12 551 -12 z"},"ൖ":{"ha":576,"x_min":37,"x_max":538,"o":"m 156 150 l 156 150 q 156 119 165 93 q 174 66 196 51 q 218 35 258 35 l 258 35 q 304 35 322 59 q 340 82 340 121 l 340 121 q 340 158 329 193 q 318 227 304 262 q 289 296 278 334 q 267 372 267 416 l 267 416 q 267 457 283 490 q 299 523 329 543 q 359 562 401 562 l 401 562 q 449 562 479 539 q 509 516 524 479 q 538 442 538 399 l 538 399 q 538 330 512 276 q 485 222 433 191 q 381 160 305 160 l 305 160 l 293 160 q 247 160 210 169 q 173 178 141 197 l 141 197 l 124 205 q 96 225 77 253 q 57 281 47 317 q 37 352 37 395 l 37 395 q 37 439 49 480 q 61 521 84 562 l 84 562 l 128 537 q 108 499 100 466 q 91 432 91 395 l 91 395 q 91 347 103 314 q 115 280 137 255 l 137 255 l 152 245 q 178 225 214 216 q 249 206 292 206 l 292 206 l 306 206 q 368 206 407 232 q 446 257 465 301 q 484 344 484 399 l 484 399 q 484 448 465 482 q 445 516 401 516 l 401 516 q 374 516 356 502 q 337 488 328 466 q 318 443 318 414 l 318 414 q 318 372 330 335 q 341 298 356 263 q 370 228 382 193 q 393 157 393 119 l 393 119 q 393 94 386 71 q 379 47 364 29 q 348 10 322 -1 q 296 -12 257 -12 l 257 -12 q 208 -12 174 7 q 140 26 123 63 q 105 100 105 155 l 105 155 q 105 192 115 231 q 124 270 145 321 q 165 371 194 440 l 194 440 q 219 496 234 536 q 248 575 255 605 q 261 634 261 661 l 261 661 q 261 698 243 721 q 225 743 185 743 l 185 743 q 167 743 150 740 q 133 737 119 733 l 119 733 l 108 779 q 124 785 147 789 q 169 792 192 792 l 192 792 q 239 792 266 774 q 293 755 304 727 q 315 699 315 671 l 315 671 q 315 647 312 623 q 308 598 299 570 q 290 542 276 506 q 262 470 241 422 l 241 422 q 217 365 201 326 q 184 286 174 256 q 164 226 160 202 q 156 177 156 150 z"},"ൗ":{"ha":611,"x_min":37,"x_max":569,"o":"m 413 562 l 413 562 q 462 562 497 532 q 532 502 551 445 q 569 387 569 303 l 569 303 q 569 196 545 126 q 520 56 469 22 q 418 -12 339 -12 l 339 -12 q 296 -12 255 -3 q 214 6 173 27 l 173 27 l 199 71 q 231 55 264 46 q 296 37 336 37 l 336 37 q 404 37 443 68 q 482 98 498 157 q 514 216 514 303 l 514 303 q 514 409 486 462 q 458 514 409 514 l 409 514 q 388 514 374 507 q 360 499 350 485 l 350 485 q 335 463 330 431 q 324 398 324 349 l 324 349 l 324 257 l 271 257 l 271 350 q 271 400 266 432 q 260 463 246 483 l 246 483 q 236 498 220 506 q 204 514 184 514 l 184 514 q 138 514 115 478 q 91 442 91 387 l 91 387 q 91 354 96 324 q 100 293 107 265 l 107 265 l 57 254 q 48 285 43 320 q 37 354 37 390 l 37 390 q 37 438 54 477 q 70 516 102 539 q 134 562 181 562 l 181 562 q 225 562 256 538 q 287 513 301 459 l 301 459 l 292 459 q 307 514 339 538 q 370 562 413 562 z"},"൘":{"ha":973,"x_min":40,"x_max":927,"o":"m 484 -12 l 484 -12 q 433 -12 399 17 q 364 45 347 106 l 347 106 l 356 103 q 341 46 308 17 q 275 -12 221 -12 l 221 -12 q 165 -12 124 21 q 83 54 62 114 q 40 173 40 252 l 40 252 q 40 328 56 383 q 72 438 100 480 q 127 522 159 557 l 159 557 l 199 521 q 170 491 147 454 q 123 417 109 368 q 95 319 95 253 l 95 253 q 95 191 111 142 q 126 92 155 64 q 183 36 223 36 l 223 36 q 246 36 263 44 q 279 52 292 68 l 292 68 q 311 92 318 130 q 325 168 325 226 l 325 226 l 325 550 l 379 550 l 379 223 q 379 165 386 129 q 393 92 412 68 l 412 68 q 424 53 443 45 q 461 36 484 36 l 484 36 q 510 36 528 45 q 546 53 558 68 l 558 68 q 576 90 583 126 q 589 162 589 221 l 589 221 l 589 550 l 643 550 l 643 242 l 621 105 q 607 46 573 17 q 538 -12 484 -12 z m 749 -12 l 749 -12 q 699 -12 665 16 q 630 44 612 104 l 612 104 l 598 223 l 598 540 l 643 540 l 643 226 q 643 167 651 130 q 658 93 677 69 l 677 69 q 689 53 707 45 q 724 36 747 36 l 747 36 q 788 36 816 66 q 843 96 858 158 q 872 220 872 315 l 872 315 q 872 413 856 490 q 840 567 810 625 q 779 682 734 720 q 689 757 631 776 q 573 795 502 795 l 502 795 q 452 795 404 790 q 355 784 309 772 l 309 772 l 301 820 q 332 828 364 833 q 395 838 430 841 q 465 843 503 843 l 503 843 q 586 843 653 822 q 720 800 772 757 q 823 714 858 650 q 892 586 910 503 q 927 419 927 316 l 927 316 q 927 201 907 129 q 886 56 846 22 q 806 -12 749 -12 z"},"൙":{"ha":886,"x_min":40,"x_max":865,"o":"m 290 562 l 290 562 q 355 562 404 538 q 452 514 485 471 q 517 427 533 367 q 549 307 549 233 l 549 233 q 549 140 529 86 q 508 32 472 10 q 436 -12 389 -12 l 389 -12 q 340 -12 309 10 q 278 31 263 65 q 248 99 248 138 l 248 138 q 248 183 264 216 q 279 248 306 269 l 306 269 q 328 286 355 296 q 381 306 417 311 q 453 315 501 315 l 501 315 l 546 315 l 546 268 l 501 268 q 443 268 406 261 q 368 253 342 232 l 342 232 q 323 218 313 195 q 302 171 302 139 l 302 139 q 302 91 325 63 q 347 35 389 35 l 389 35 q 425 35 449 54 q 472 73 484 117 q 496 161 496 234 l 496 234 q 496 252 496 267 q 495 281 493 295 l 493 295 l 492 307 q 485 370 460 417 q 435 463 393 489 q 351 514 292 514 l 292 514 q 231 514 187 485 q 142 456 119 404 q 95 352 95 283 l 95 283 q 95 222 109 176 q 122 129 147 94 q 171 59 202 31 l 202 31 l 166 -7 q 134 20 105 60 q 76 100 58 156 q 40 212 40 285 l 40 285 q 40 341 56 391 q 71 441 102 480 q 133 518 180 540 q 227 562 290 562 z m 741 550 l 741 550 q 783 550 811 532 q 838 514 852 484 q 865 453 865 417 l 865 417 q 865 381 854 352 q 842 323 819 305 l 819 305 q 803 291 784 283 q 764 275 739 272 q 713 268 680 268 l 680 268 l 523 268 l 525 315 l 685 315 q 727 315 749 322 q 770 328 784 341 l 784 341 q 799 353 806 373 q 812 392 812 416 l 812 416 q 812 456 794 480 q 776 504 741 504 l 741 504 q 703 504 683 478 q 662 452 662 407 l 662 407 q 662 370 673 341 q 684 312 699 287 l 699 287 l 649 282 q 633 308 622 341 q 610 374 610 413 l 610 413 q 610 457 627 488 q 644 518 674 534 q 704 550 741 550 z"},"൚":{"ha":859,"x_min":40,"x_max":803,"o":"m 568 562 l 568 562 q 625 562 667 546 q 709 530 736 501 l 736 501 q 760 476 775 444 q 789 411 796 370 q 803 328 803 273 l 803 273 l 803 0 l 396 0 l 396 46 q 454 101 501 162 q 547 222 575 285 q 602 347 602 406 l 602 406 q 602 436 595 460 q 588 484 572 498 q 556 512 528 512 l 528 512 q 497 512 473 496 q 448 480 431 453 l 431 453 q 410 420 401 376 q 392 331 392 264 l 392 264 l 392 230 l 338 230 l 338 322 q 338 385 330 423 q 322 460 302 482 l 302 482 q 289 498 272 506 q 254 514 230 514 l 230 514 q 188 514 158 486 q 128 458 112 409 q 95 360 95 297 l 95 297 q 95 232 110 183 q 124 134 148 97 q 171 60 199 29 l 199 29 l 159 -7 q 127 28 100 70 q 73 111 57 167 q 40 223 40 298 l 40 298 q 40 377 63 437 q 86 496 129 529 q 172 562 230 562 l 230 562 q 276 562 305 543 q 333 524 351 491 q 369 458 381 414 l 381 414 l 358 410 q 373 462 402 496 q 431 529 473 546 q 514 562 568 562 z m 656 402 l 656 402 q 656 337 630 275 q 603 212 556 151 q 509 90 447 28 l 447 28 l 444 43 q 468 45 502 46 q 536 47 562 47 l 562 47 l 750 47 l 750 267 q 750 344 735 397 q 720 450 687 480 q 653 510 598 516 l 598 516 l 597 521 q 629 504 643 473 q 656 442 656 402 z"},"൛":{"ha":772,"x_min":66,"x_max":733,"o":"m 499 -12 l 499 -12 q 443 -12 401 9 q 358 30 329 67 q 300 104 286 154 q 272 204 272 263 l 272 263 q 272 329 287 377 q 301 425 323 460 q 345 495 367 517 l 367 517 l 370 503 l 120 503 l 120 0 l 66 0 l 66 550 l 401 550 l 425 511 q 403 491 380 458 q 357 425 342 378 q 327 331 327 268 l 327 268 q 327 198 348 146 q 368 94 407 65 q 445 36 501 36 l 501 36 q 558 36 597 66 q 636 96 657 149 q 677 201 677 267 l 677 267 q 677 328 664 375 q 650 421 626 456 q 602 491 571 519 l 571 519 l 607 557 q 639 530 668 490 q 696 450 715 395 q 733 339 733 265 l 733 265 q 733 206 718 156 q 702 105 673 68 q 643 30 600 9 q 556 -12 499 -12 z"},"൜":{"ha":1217,"x_min":40,"x_max":1177,"o":"m 734 562 l 734 562 q 770 562 797 551 q 824 540 843 519 l 843 519 q 859 501 869 478 q 878 454 882 421 q 886 387 886 339 l 886 339 l 886 238 q 886 171 893 132 q 899 92 918 68 l 918 68 q 930 52 948 44 q 965 36 993 36 l 993 36 q 1034 36 1063 63 q 1091 89 1106 138 q 1121 187 1121 252 l 1121 252 q 1121 318 1107 368 q 1093 417 1070 455 q 1046 493 1017 523 l 1017 523 l 1057 560 q 1090 524 1117 481 q 1144 438 1161 383 q 1177 327 1177 251 l 1177 251 q 1177 169 1155 110 q 1133 51 1092 20 q 1050 -12 993 -12 l 993 -12 q 954 -12 926 0 q 898 12 879 33 l 879 33 q 860 53 850 79 q 840 105 837 139 q 833 172 833 213 l 833 213 l 833 335 q 833 391 828 427 q 822 463 803 486 l 803 486 q 791 500 774 507 q 756 514 734 514 l 734 514 q 712 514 695 507 q 677 500 665 486 l 665 486 q 647 463 641 427 q 635 390 635 333 l 635 333 l 635 212 q 635 165 631 131 q 627 97 617 73 q 607 48 590 30 l 590 30 q 572 10 546 -1 q 519 -12 482 -12 l 482 -12 q 446 -12 420 0 q 393 11 374 31 l 374 31 q 358 49 349 73 q 339 97 335 131 q 330 165 330 211 l 330 211 l 330 312 q 330 379 324 419 q 318 458 299 482 l 299 482 q 287 498 270 506 q 252 514 223 514 l 223 514 q 183 514 154 488 q 125 461 110 413 q 95 364 95 298 l 95 298 q 95 233 109 183 q 123 133 147 96 q 171 58 199 27 l 199 27 l 160 -9 q 127 27 100 70 q 72 112 56 168 q 40 224 40 299 l 40 299 q 40 381 62 440 q 83 498 125 530 q 167 562 226 562 l 226 562 q 264 562 291 550 q 318 538 337 518 l 337 518 q 356 497 366 470 q 376 443 380 410 q 384 376 384 331 l 384 331 l 384 215 q 384 160 390 124 q 395 87 414 64 l 414 64 q 425 51 443 44 q 461 36 483 36 l 483 36 q 504 36 522 43 q 540 50 551 64 l 551 64 q 570 87 576 124 q 581 160 581 215 l 581 215 l 581 337 q 581 385 586 419 q 590 453 600 478 q 610 502 626 520 l 626 520 q 645 540 672 551 q 698 562 734 562 z"},"൝":{"ha":1630,"x_min":10,"x_max":1591,"o":"m 645 562 l 645 562 q 681 562 708 551 q 735 540 754 519 l 754 519 q 770 501 780 478 q 789 454 794 421 q 798 387 798 339 l 798 339 l 798 215 q 798 160 804 124 q 809 87 828 64 l 828 64 q 839 51 857 44 q 875 36 896 36 l 896 36 q 918 36 936 43 q 954 50 965 64 l 965 64 q 984 87 990 124 q 995 160 995 215 l 995 215 l 995 337 q 995 385 1000 419 q 1004 453 1014 478 q 1024 502 1040 520 l 1040 520 q 1059 540 1086 551 q 1112 562 1148 562 l 1148 562 q 1183 562 1211 551 q 1238 540 1256 519 l 1256 519 q 1273 501 1283 478 q 1292 454 1296 421 q 1300 387 1300 339 l 1300 339 l 1300 238 q 1300 171 1307 132 q 1313 92 1332 68 l 1332 68 q 1344 52 1362 44 q 1379 36 1407 36 l 1407 36 q 1448 36 1477 63 q 1505 89 1520 138 q 1535 187 1535 252 l 1535 252 q 1535 318 1521 368 q 1507 417 1484 455 q 1460 493 1431 523 l 1431 523 l 1470 560 q 1503 524 1531 481 q 1558 438 1575 383 q 1591 327 1591 251 l 1591 251 q 1591 169 1569 110 q 1546 51 1505 20 q 1464 -12 1407 -12 l 1407 -12 q 1368 -12 1340 0 q 1312 12 1292 33 l 1292 33 q 1274 53 1264 79 q 1254 105 1251 139 q 1247 172 1247 213 l 1247 213 l 1247 335 q 1247 391 1241 427 q 1235 463 1217 486 l 1217 486 q 1205 500 1188 507 q 1170 514 1148 514 l 1148 514 q 1126 514 1109 507 q 1091 500 1079 486 l 1079 486 q 1060 463 1055 427 q 1049 390 1049 333 l 1049 333 l 1049 212 q 1049 165 1045 131 q 1040 97 1031 73 q 1021 48 1004 30 l 1004 30 q 986 10 959 -1 q 932 -12 896 -12 l 896 -12 q 860 -12 834 0 q 807 11 788 31 l 788 31 q 772 49 763 73 q 753 97 749 131 q 744 165 744 211 l 744 211 l 744 335 q 744 391 739 427 q 733 463 714 486 l 714 486 q 702 500 685 507 q 667 514 645 514 l 645 514 q 623 514 606 507 q 588 500 577 486 l 577 486 q 558 463 552 427 q 546 390 546 333 l 546 333 l 546 208 q 546 136 536 98 q 526 60 500 32 l 500 32 q 482 11 455 0 q 427 -12 390 -12 l 390 -12 q 334 -12 300 19 q 266 49 251 109 l 251 109 l 262 104 q 251 67 232 41 q 213 15 185 2 q 157 -12 117 -12 l 117 -12 q 88 -12 61 -5 q 34 1 10 13 l 10 13 l 30 58 q 48 48 70 42 q 92 36 117 36 l 117 36 q 145 36 164 44 q 182 52 195 68 l 195 68 q 215 90 223 127 q 231 164 231 226 l 231 226 l 231 550 l 285 550 l 285 220 q 285 161 292 124 q 299 87 317 65 l 317 65 q 329 51 347 44 q 364 36 387 36 l 387 36 q 413 36 431 45 q 449 53 461 67 l 461 67 q 479 90 486 126 q 493 162 493 224 l 493 224 l 493 337 q 493 385 497 419 q 501 453 511 478 q 521 502 537 520 l 537 520 q 556 540 583 551 q 609 562 645 562 z"},"൞":{"ha":1088,"x_min":40,"x_max":1058,"o":"m 290 562 l 290 562 q 355 562 404 538 q 452 514 485 471 q 517 427 533 367 q 549 307 549 233 l 549 233 q 549 140 529 86 q 508 32 472 10 q 436 -12 389 -12 l 389 -12 q 340 -12 309 10 q 278 31 263 65 q 248 99 248 138 l 248 138 q 248 183 264 216 q 279 248 306 269 l 306 269 q 328 286 355 296 q 381 306 417 311 q 453 315 501 315 l 501 315 l 521 315 l 521 268 l 501 268 q 443 268 406 261 q 368 253 342 232 l 342 232 q 323 218 313 195 q 302 171 302 139 l 302 139 q 302 91 325 63 q 347 35 389 35 l 389 35 q 425 35 449 54 q 472 73 484 117 q 496 161 496 234 l 496 234 q 496 252 496 267 q 495 281 493 295 l 493 295 l 492 307 q 485 370 460 417 q 435 463 393 489 q 351 514 292 514 l 292 514 q 231 514 187 485 q 142 456 119 404 q 95 352 95 283 l 95 283 q 95 222 109 176 q 122 129 147 94 q 171 59 202 31 l 202 31 l 166 -7 q 134 20 105 60 q 76 100 58 156 q 40 212 40 285 l 40 285 q 40 341 56 391 q 71 441 102 480 q 133 518 180 540 q 227 562 290 562 z m 907 214 l 907 214 q 859 214 825 236 q 791 257 774 295 q 756 332 756 378 l 756 378 q 756 423 771 459 q 786 495 807 517 l 807 517 l 813 504 l 629 504 l 650 514 q 668 491 679 464 q 690 436 690 404 l 690 404 q 690 350 667 320 q 644 290 607 279 q 569 268 526 268 l 526 268 l 510 268 l 510 315 l 524 315 q 554 315 580 321 q 606 327 622 346 q 638 365 638 404 l 638 404 q 638 435 627 459 q 615 483 600 504 l 600 504 l 617 550 l 834 550 l 856 514 q 835 488 822 456 q 809 424 809 384 l 809 384 q 809 324 836 292 q 862 260 907 260 l 907 260 q 938 260 960 276 q 982 291 994 319 q 1005 346 1005 380 l 1005 380 q 1005 427 989 461 q 973 495 946 524 l 946 524 l 982 558 q 1015 523 1037 481 q 1058 438 1058 380 l 1058 380 q 1058 330 1039 293 q 1020 255 987 235 q 953 214 907 214 z"},"ൟ":{"ha":1076,"x_min":27,"x_max":1049,"o":"m 27 266 l 27 266 q 27 325 57 359 q 86 393 134 393 l 134 393 q 183 393 213 359 q 242 325 242 266 l 242 266 q 242 207 213 173 q 183 139 134 139 l 134 139 q 86 139 57 173 q 27 207 27 266 z m 74 267 l 74 267 q 74 228 90 206 q 105 183 134 183 l 134 183 q 164 183 180 206 q 196 228 196 267 l 196 267 q 196 305 180 327 q 164 349 134 349 l 134 349 q 106 349 90 327 q 74 305 74 267 z m 834 266 l 834 266 q 834 325 864 359 q 893 393 941 393 l 941 393 q 989 393 1019 359 q 1049 325 1049 266 l 1049 266 q 1049 207 1019 173 q 989 139 941 139 l 941 139 q 892 139 863 173 q 834 207 834 266 z m 880 267 l 880 267 q 880 228 896 206 q 912 183 941 183 l 941 183 q 971 183 987 206 q 1002 228 1002 267 l 1002 267 q 1002 305 986 327 q 970 349 941 349 l 941 349 q 912 349 896 327 q 880 305 880 267 z m 533 562 l 533 562 q 598 562 647 539 q 695 516 728 473 q 760 429 776 371 q 792 312 792 240 l 792 240 q 792 146 772 91 q 751 35 715 12 q 679 -12 633 -12 l 633 -12 q 581 -12 548 15 q 515 41 499 88 q 483 134 483 193 l 483 193 q 483 291 524 341 q 564 391 631 391 l 631 391 q 669 391 696 375 q 723 359 743 331 q 762 302 775 266 l 775 266 l 758 250 q 749 272 733 294 q 717 316 694 331 q 671 345 640 345 l 640 345 q 587 345 562 305 q 536 265 536 193 l 536 193 q 536 145 546 109 q 556 73 578 54 q 599 34 634 34 l 634 34 q 667 34 691 55 q 714 75 727 121 q 740 167 740 243 l 740 243 q 740 252 739 271 q 738 289 736 303 l 736 303 q 736 307 737 312 q 737 317 735 321 l 735 321 q 728 371 705 416 q 681 460 640 487 q 598 514 535 514 l 535 514 q 473 514 429 485 q 385 456 362 404 q 338 352 338 283 l 338 283 q 338 222 352 176 q 365 129 390 94 q 414 59 445 31 l 445 31 l 409 -7 q 377 20 348 60 q 319 100 301 156 q 283 212 283 285 l 283 285 q 283 342 299 392 q 314 442 345 480 q 376 518 423 540 q 470 562 533 562 z"},"ൠ":{"ha":706,"x_min":38,"x_max":668,"o":"m 527 562 l 527 562 q 593 562 631 510 q 668 457 668 364 l 668 364 q 668 304 653 259 q 637 213 607 180 l 607 180 q 577 146 533 127 q 489 108 432 104 l 432 104 l 371 104 l 336 104 l 282 103 q 223 106 178 125 q 132 143 102 177 l 102 177 q 71 210 55 256 q 38 302 38 361 l 38 361 q 38 423 56 468 q 73 513 106 538 q 139 562 186 562 l 186 562 q 229 562 257 542 q 284 522 298 489 q 312 455 312 412 l 312 412 q 312 367 298 334 q 283 301 255 283 q 227 264 184 264 l 184 264 q 155 264 132 273 q 109 282 90 297 q 71 312 54 330 l 54 330 l 70 369 q 84 353 99 340 q 113 326 132 318 q 151 310 175 310 l 175 310 q 219 310 240 337 q 260 364 260 413 l 260 413 q 260 458 241 487 q 222 515 184 515 l 184 515 q 152 515 130 496 q 108 477 98 443 q 87 409 87 363 l 87 363 q 87 353 88 342 q 89 330 91 320 l 91 320 l 90 306 q 98 261 120 229 q 141 197 174 178 q 206 158 249 149 q 291 139 342 139 l 342 139 l 362 139 q 415 139 458 149 q 501 158 534 178 q 566 198 587 230 q 607 262 616 306 l 616 306 l 614 321 q 616 330 617 342 q 618 353 618 363 l 618 363 q 618 411 608 445 q 598 479 578 497 q 558 515 526 515 l 526 515 q 486 515 466 486 q 446 456 446 409 l 446 409 q 446 362 466 336 q 486 310 528 310 l 528 310 q 553 310 572 318 q 591 325 607 339 q 622 352 635 368 l 635 368 l 651 329 q 635 312 616 297 q 597 282 573 273 q 549 264 521 264 l 521 264 q 478 264 450 283 q 421 301 408 334 q 394 367 394 410 l 394 410 q 394 453 409 487 q 423 521 453 542 q 482 562 527 562 z m 353 -208 l 353 -208 q 256 -208 192 -189 q 128 -170 97 -131 q 65 -93 65 -35 l 65 -35 q 65 8 84 39 q 103 69 137 88 q 170 107 215 116 q 259 124 309 124 l 309 124 l 396 124 q 446 124 491 116 q 535 107 569 88 q 602 69 622 39 q 641 8 641 -35 l 641 -35 q 641 -91 611 -129 q 580 -168 517 -188 q 453 -208 353 -208 z m 353 -162 l 353 -162 q 437 -162 488 -147 q 539 -132 563 -103 q 586 -75 586 -34 l 586 -34 q 586 0 571 24 q 555 48 526 64 q 496 79 454 86 q 412 93 358 93 l 358 93 l 347 93 q 275 93 224 80 q 173 67 147 39 q 120 11 120 -34 l 120 -34 q 120 -76 143 -104 q 166 -133 218 -147 q 269 -162 353 -162 z m 419 40 l 419 40 q 444 40 460 30 q 475 20 484 5 q 493 -11 496 -29 q 499 -48 499 -66 l 499 -66 l 499 -98 l 457 -98 l 457 -75 q 457 -38 448 -21 q 438 -5 415 -5 l 415 -5 q 394 -5 384 -23 q 374 -42 374 -74 l 374 -74 l 374 -98 l 331 -98 l 331 -74 q 331 -42 322 -23 q 312 -5 290 -5 l 290 -5 q 267 -5 258 -22 q 249 -39 249 -75 l 249 -75 l 249 -98 l 206 -98 l 206 -66 q 206 -48 210 -29 q 213 -11 222 5 q 230 20 246 30 q 261 40 286 40 l 286 40 q 311 40 327 28 q 343 15 353 -6 l 353 -6 q 363 15 380 28 q 396 40 419 40 z"},"ൡ":{"ha":1045,"x_min":42,"x_max":1019,"o":"m 286 562 l 286 562 q 356 562 397 530 q 438 497 459 437 l 459 437 l 467 389 l 477 272 l 477 0 l 424 0 l 424 321 q 424 384 414 422 q 404 459 380 482 l 380 482 q 363 498 341 506 q 319 514 286 514 l 286 514 q 228 514 185 479 q 141 444 118 383 q 94 321 94 241 l 94 241 l 94 223 q 94 155 106 114 q 118 72 141 54 q 163 35 193 35 l 193 35 q 215 35 233 47 q 250 58 260 84 q 270 110 270 154 l 270 154 q 270 209 249 239 q 227 268 186 268 l 186 268 q 152 268 125 251 q 97 233 73 204 l 73 204 l 60 244 q 88 277 123 296 q 157 314 195 314 l 195 314 q 233 314 262 297 q 290 280 307 245 q 323 210 323 156 l 323 156 q 323 97 307 60 q 290 23 261 6 q 232 -12 193 -12 l 193 -12 q 151 -12 117 11 q 83 34 63 88 q 42 142 42 233 l 42 233 q 42 340 74 414 q 106 487 161 525 q 216 562 286 562 z m 626 562 l 626 562 q 700 562 749 531 q 797 500 826 448 q 854 396 865 332 l 865 332 q 870 307 872 280 q 874 252 874 225 l 874 225 q 874 138 854 86 q 833 34 797 11 q 761 -12 714 -12 l 714 -12 q 662 -12 631 13 q 599 37 585 78 q 570 118 570 164 l 570 164 q 570 264 627 317 q 684 369 779 369 l 779 369 q 790 369 802 368 q 813 367 824 365 l 824 365 l 841 363 q 900 349 940 310 q 979 270 999 212 q 1019 154 1019 86 l 1019 86 q 1019 19 1003 -34 q 986 -88 954 -125 q 922 -162 874 -181 q 826 -201 764 -201 l 764 -201 q 729 -201 700 -195 q 670 -190 643 -181 l 643 -181 l 659 -136 q 682 -144 708 -148 q 734 -153 764 -153 l 764 -153 q 819 -153 858 -135 q 896 -117 920 -85 q 943 -53 954 -9 q 965 35 965 89 l 965 89 q 965 140 954 185 q 942 229 918 262 q 893 294 855 310 l 855 310 l 835 314 q 821 319 808 321 q 794 323 781 323 l 781 323 q 735 323 700 307 q 664 291 644 257 q 624 222 624 166 l 624 166 q 624 131 632 101 q 640 71 660 53 q 680 35 715 35 l 715 35 q 768 35 795 82 q 821 128 821 228 l 821 228 q 821 254 819 282 q 817 310 811 337 l 811 337 l 809 354 q 798 397 777 434 q 755 470 719 492 q 682 514 627 514 l 627 514 q 597 514 572 506 q 546 497 526 480 l 526 480 q 510 465 499 443 q 488 421 483 390 q 477 359 477 314 l 477 314 l 477 224 l 441 416 q 453 462 478 495 q 502 528 540 545 q 577 562 626 562 z"},"ൢ":{"ha":0,"x_min":-637,"x_max":-36,"o":"m -464 9 l -464 9 q -411 9 -380 -14 q -350 -38 -332 -83 l -332 -83 l -317 -160 l -317 -332 l -364 -332 l -364 -166 q -364 -127 -371 -99 q -378 -71 -395 -55 l -395 -55 q -406 -43 -423 -37 q -440 -31 -462 -31 l -462 -31 q -494 -31 -520 -44 q -547 -58 -565 -83 q -583 -108 -590 -146 l -590 -146 q -591 -155 -592 -164 q -593 -173 -593 -181 l -593 -181 q -593 -242 -575 -269 q -558 -296 -531 -296 l -531 -296 q -501 -296 -487 -275 q -474 -255 -474 -220 l -474 -220 q -474 -181 -489 -163 q -504 -146 -530 -146 l -530 -146 q -553 -146 -572 -156 q -591 -167 -610 -187 l -610 -187 l -620 -154 q -598 -132 -574 -118 q -550 -105 -523 -105 l -523 -105 q -479 -105 -453 -135 q -428 -165 -428 -220 l -428 -220 q -428 -273 -454 -305 q -480 -337 -530 -337 l -530 -337 q -581 -337 -609 -294 q -637 -252 -637 -180 l -637 -180 q -637 -122 -614 -79 q -592 -37 -553 -14 q -514 9 -464 9 z m -207 9 l -207 9 q -149 9 -111 -16 q -73 -41 -54 -84 q -36 -128 -36 -183 l -36 -183 q -36 -266 -67 -301 q -99 -337 -146 -337 l -146 -337 q -181 -337 -204 -320 q -228 -304 -239 -276 q -251 -249 -251 -216 l -251 -216 q -251 -176 -238 -148 q -225 -121 -202 -107 q -179 -93 -148 -93 l -148 -93 q -121 -93 -102 -105 q -83 -117 -70 -136 q -57 -156 -49 -180 l -49 -180 l -63 -192 q -76 -165 -94 -149 q -112 -134 -139 -134 l -139 -134 q -173 -134 -189 -156 q -206 -179 -206 -217 l -206 -217 q -206 -251 -192 -273 q -178 -295 -146 -295 l -146 -295 q -114 -295 -98 -267 q -82 -240 -82 -185 l -82 -185 q -82 -174 -82 -162 q -83 -151 -84 -142 l -84 -142 l -86 -131 q -89 -107 -103 -84 q -118 -61 -143 -46 q -168 -31 -207 -31 l -207 -31 q -232 -31 -250 -38 q -269 -45 -282 -58 l -282 -58 q -300 -78 -308 -106 q -317 -134 -317 -180 l -317 -180 l -354 -130 q -350 -89 -332 -58 q -315 -27 -283 -9 q -252 9 -207 9 z"},"ൣ":{"ha":0,"x_min":-637,"x_max":59,"o":"m -464 9 l -464 9 q -411 9 -380 -14 q -350 -38 -332 -83 l -332 -83 l -317 -159 l -317 -332 l -364 -332 l -364 -166 q -364 -127 -371 -99 q -378 -71 -395 -55 l -395 -55 q -406 -43 -423 -37 q -440 -31 -462 -31 l -462 -31 q -494 -31 -520 -44 q -547 -58 -565 -83 q -583 -108 -590 -146 l -590 -146 q -591 -155 -592 -164 q -593 -173 -593 -181 l -593 -181 q -593 -242 -575 -269 q -558 -296 -531 -296 l -531 -296 q -501 -296 -487 -275 q -474 -255 -474 -220 l -474 -220 q -474 -181 -489 -163 q -504 -146 -530 -146 l -530 -146 q -553 -146 -572 -156 q -591 -167 -610 -187 l -610 -187 l -620 -154 q -598 -132 -574 -118 q -550 -105 -523 -105 l -523 -105 q -479 -105 -453 -135 q -428 -165 -428 -220 l -428 -220 q -428 -273 -454 -305 q -480 -337 -530 -337 l -530 -337 q -581 -337 -609 -294 q -637 -252 -637 -180 l -637 -180 q -637 -122 -614 -79 q -592 -37 -553 -14 q -514 9 -464 9 z m -207 9 l -207 9 q -153 9 -115 -15 q -78 -40 -59 -82 q -40 -125 -40 -182 l -40 -182 q -40 -238 -53 -272 q -67 -307 -91 -322 q -115 -337 -148 -337 l -148 -337 q -182 -337 -205 -322 q -228 -307 -239 -281 q -251 -256 -251 -225 l -251 -225 q -251 -162 -213 -127 q -176 -92 -109 -92 l -109 -92 q -101 -92 -90 -93 q -80 -94 -70 -95 l -70 -95 q -31 -103 -2 -125 q 27 -148 43 -182 q 59 -217 59 -263 l 59 -263 q 59 -292 54 -318 q 48 -345 36 -365 l 36 -365 l -5 -348 q 3 -329 8 -308 q 13 -287 13 -265 l 13 -265 q 13 -216 -5 -185 q -23 -154 -58 -140 l -58 -140 l -73 -136 q -81 -134 -90 -133 q -100 -132 -108 -132 l -108 -132 q -157 -132 -181 -157 q -206 -182 -206 -226 l -206 -226 q -206 -255 -192 -275 q -179 -295 -148 -295 l -148 -295 q -117 -295 -101 -268 q -85 -242 -85 -182 l -85 -182 q -85 -165 -86 -148 q -88 -132 -93 -117 l -93 -117 l -97 -104 q -105 -83 -120 -66 q -136 -50 -157 -40 q -179 -31 -207 -31 l -207 -31 q -232 -31 -250 -38 q -269 -45 -282 -58 l -282 -58 q -300 -78 -308 -106 q -317 -134 -317 -180 l -317 -180 l -354 -130 q -352 -100 -341 -74 q -330 -49 -311 -30 q -293 -12 -267 -1 q -241 9 -207 9 z"},"൦":{"ha":467,"x_min":41,"x_max":426,"o":"m 233 46 l 233 46 q 175 46 132 74 q 88 101 65 154 q 41 207 41 283 l 41 283 q 41 358 65 410 q 89 462 133 490 q 176 518 233 518 l 233 518 q 292 518 336 491 q 379 463 403 411 q 426 358 426 283 l 426 283 q 426 207 402 154 q 378 101 335 74 q 292 46 233 46 z m 233 94 l 233 94 q 274 94 305 114 q 336 134 354 176 q 371 217 371 283 l 371 283 q 371 379 333 425 q 294 470 233 470 l 233 470 q 173 470 135 425 q 96 379 96 281 l 96 281 q 96 185 135 140 q 173 94 233 94 z"},"൧":{"ha":723,"x_min":12,"x_max":663,"o":"m 314 -153 l 314 -201 l 197 -201 q 149 -201 116 -194 q 83 -187 59 -170 l 59 -170 q 37 -155 25 -132 q 12 -109 12 -77 l 12 -77 q 12 -48 22 -25 q 32 -3 52 12 l 52 12 q 66 24 84 32 q 102 39 129 43 q 155 47 193 47 l 193 47 l 336 47 l 338 0 l 203 0 q 157 0 132 -4 q 107 -8 92 -21 l 92 -21 q 79 -30 73 -43 q 66 -57 66 -75 l 66 -75 q 66 -112 92 -131 l 92 -131 q 108 -143 134 -148 q 159 -153 201 -153 l 201 -153 l 314 -153 z m 474 562 l 474 562 q 519 562 551 549 q 583 536 605 514 l 605 514 q 640 481 652 434 q 663 386 663 319 l 663 319 l 663 0 l 285 0 l 285 323 q 285 367 290 402 q 295 436 308 465 q 321 493 343 514 l 343 514 q 365 536 398 549 q 431 562 474 562 z m 475 514 l 475 514 q 443 514 419 505 q 395 495 379 478 l 379 478 q 356 452 347 412 q 338 371 338 309 l 338 309 l 338 47 l 610 47 l 610 308 q 610 369 601 411 q 592 453 568 478 l 568 478 q 553 495 530 505 q 507 514 475 514 z"},"൨":{"ha":693,"x_min":40,"x_max":677,"o":"m 273 562 l 273 562 q 330 562 373 541 q 415 520 444 483 q 472 446 487 396 q 501 346 501 287 l 501 287 q 501 222 487 174 q 472 125 450 91 q 428 56 406 33 l 406 33 l 403 47 l 677 47 l 677 0 l 371 0 l 347 39 q 370 60 393 93 q 415 125 430 172 q 445 219 445 282 l 445 282 q 445 352 425 404 q 405 456 367 485 q 328 514 272 514 l 272 514 q 215 514 176 484 q 136 454 116 402 q 95 349 95 283 l 95 283 q 95 223 109 177 q 122 130 147 95 q 171 59 202 31 l 202 31 l 166 -7 q 134 20 105 60 q 76 100 58 156 q 40 212 40 285 l 40 285 q 40 345 55 395 q 70 445 100 483 q 130 520 174 541 q 217 562 273 562 z"},"൩":{"ha":872,"x_min":40,"x_max":856,"o":"m 230 562 l 230 562 q 268 562 295 548 q 322 534 341 508 q 359 482 370 445 l 370 445 l 360 446 q 380 506 414 534 q 448 562 503 562 l 503 562 q 562 562 604 528 q 646 494 668 435 q 689 375 689 300 l 689 300 q 689 234 677 185 q 664 136 644 100 q 624 64 601 35 l 601 35 l 589 0 l 563 0 l 540 34 q 565 66 586 102 q 607 138 621 186 q 634 233 634 299 l 634 299 q 634 359 619 408 q 603 456 574 485 q 544 514 502 514 l 502 514 q 477 514 459 507 q 441 499 428 483 l 428 483 q 408 461 400 424 q 391 386 391 324 l 391 324 l 391 0 l 338 0 l 338 322 q 338 385 330 423 q 322 460 302 482 l 302 482 q 289 498 272 506 q 254 514 230 514 l 230 514 q 188 514 158 486 q 128 458 112 409 q 95 360 95 297 l 95 297 q 95 232 110 183 q 124 134 148 97 q 171 60 199 29 l 199 29 l 159 -7 q 127 28 100 70 q 73 111 57 167 q 40 222 40 298 l 40 298 q 40 377 63 437 q 86 496 129 529 q 172 562 230 562 z m 576 0 l 599 47 l 856 47 l 856 0 l 576 0 z"},"൪":{"ha":631,"x_min":40,"x_max":626,"o":"m 290 562 l 290 562 q 352 562 397 538 q 442 514 476 474 l 476 474 q 518 425 540 359 q 562 292 562 216 l 562 216 q 562 135 541 85 q 520 34 483 11 q 446 -12 397 -12 l 397 -12 q 344 -12 310 13 q 275 37 258 79 q 241 121 241 172 l 241 172 q 241 232 262 281 q 283 330 327 376 q 371 421 440 469 l 440 469 q 491 504 520 527 q 548 549 560 571 q 571 592 571 620 l 571 620 q 571 644 563 663 q 555 681 544 699 l 544 699 l 593 723 q 608 702 617 677 q 626 652 626 623 l 626 623 q 626 582 610 553 q 593 523 559 496 q 524 468 469 431 l 469 431 q 410 390 372 351 q 333 311 315 268 q 296 224 296 172 l 296 172 q 296 105 323 70 q 349 34 398 34 l 398 34 q 431 34 456 52 q 480 69 493 109 q 506 149 506 215 l 506 215 q 506 277 490 338 q 473 399 438 443 l 438 443 q 412 475 376 495 q 339 514 292 514 l 292 514 q 230 514 186 485 q 142 456 119 405 q 95 353 95 283 l 95 283 q 95 222 109 176 q 122 129 147 94 q 171 59 202 31 l 202 31 l 166 -7 q 134 20 105 60 q 76 100 58 156 q 40 212 40 285 l 40 285 q 40 342 56 392 q 71 442 102 480 q 133 518 180 540 q 227 562 290 562 z"},"൫":{"ha":785,"x_min":46,"x_max":739,"o":"m 402 723 l 402 723 q 488 723 552 690 q 615 657 657 598 q 699 538 719 460 q 739 381 739 291 l 739 291 q 739 210 726 136 q 712 61 681 -11 l 681 -11 l 631 10 q 650 53 662 100 q 673 146 679 195 q 684 243 684 292 l 684 292 q 684 371 668 441 q 651 510 617 563 q 583 615 530 645 q 476 674 403 674 l 403 674 q 314 674 246 627 q 178 579 140 486 q 101 392 101 255 l 101 255 q 101 174 115 104 q 129 34 158 -18 q 187 -70 234 -99 q 280 -129 345 -129 l 345 -129 q 432 -129 476 -81 q 520 -34 520 56 l 520 56 q 520 107 504 146 q 488 185 456 207 q 424 229 377 229 l 377 229 l 368 229 l 368 276 l 380 276 q 416 276 441 283 q 465 290 482 306 l 482 306 q 496 320 503 339 q 510 358 510 385 l 510 385 q 510 438 482 467 q 454 495 406 495 l 406 495 q 358 495 326 467 q 294 439 278 391 q 262 343 262 280 l 262 280 q 262 211 281 145 q 300 79 337 17 l 337 17 l 288 -8 q 250 63 229 132 q 207 200 207 280 l 207 280 q 207 358 232 417 q 256 476 301 510 q 345 543 407 543 l 407 543 q 458 543 493 523 q 528 503 546 469 q 564 434 564 390 l 564 390 q 564 355 553 326 q 542 297 516 277 q 490 256 446 247 l 446 247 l 445 255 q 506 238 541 186 q 575 133 575 56 l 575 56 q 575 -21 547 -73 q 519 -125 468 -151 q 416 -178 345 -178 l 345 -178 q 253 -178 186 -127 q 119 -77 83 20 q 46 116 46 254 l 46 254 q 46 373 74 461 q 102 549 151 608 q 200 666 265 695 q 329 723 402 723 z"},"൬":{"ha":974,"x_min":40,"x_max":928,"o":"m 484 562 l 484 562 q 538 562 573 533 q 607 504 621 445 l 621 445 l 643 308 l 643 0 l 589 0 l 589 329 q 589 388 583 424 q 576 460 558 482 l 558 482 q 546 497 528 506 q 510 514 484 514 l 484 514 q 461 514 443 506 q 424 497 412 482 l 412 482 q 393 458 386 422 q 379 385 379 327 l 379 327 l 379 0 l 325 0 l 325 324 q 325 382 318 420 q 311 458 292 482 l 292 482 q 279 498 263 506 q 246 514 223 514 l 223 514 q 183 514 155 486 q 126 458 111 409 q 95 360 95 297 l 95 297 q 95 232 109 183 q 123 134 147 97 q 170 60 199 29 l 199 29 l 159 -7 q 127 28 100 70 q 72 112 56 168 q 40 223 40 298 l 40 298 q 40 377 62 437 q 83 496 124 529 q 165 562 221 562 l 221 562 q 275 562 308 533 q 341 504 356 447 l 356 447 l 347 444 q 364 505 399 534 q 433 562 484 562 z m 749 562 l 749 562 q 835 562 882 480 q 928 398 928 226 l 928 226 q 928 85 899 -10 q 870 -105 807 -153 q 744 -201 640 -201 l 640 -201 q 620 -201 597 -199 q 573 -198 554 -193 l 554 -193 l 559 -146 q 578 -150 599 -151 q 619 -153 638 -153 l 638 -153 q 707 -153 753 -127 q 798 -101 825 -51 q 851 -2 862 68 q 872 137 872 226 l 872 226 q 872 322 858 386 q 844 450 816 482 q 788 514 747 514 l 747 514 q 724 514 707 506 q 689 498 677 481 l 677 481 q 658 457 651 420 q 643 383 643 324 l 643 324 l 643 10 l 598 10 l 598 327 l 612 446 q 630 507 665 535 q 699 562 749 562 z"},"൭":{"ha":599,"x_min":40,"x_max":554,"o":"m 301 562 l 301 562 q 365 562 413 538 q 460 513 492 467 q 523 420 539 354 q 554 288 554 204 l 554 204 q 554 112 538 38 q 521 -37 486 -90 q 451 -144 395 -172 q 338 -201 258 -201 l 258 -201 q 235 -201 211 -199 q 187 -198 163 -193 l 163 -193 l 168 -146 q 188 -149 210 -151 q 232 -153 257 -153 l 257 -153 q 328 -153 375 -126 q 421 -100 448 -51 q 475 -3 487 63 q 499 128 499 205 l 499 205 q 499 355 449 435 q 398 514 300 514 l 300 514 q 237 514 191 479 q 144 444 118 382 q 92 319 92 237 l 92 237 l 92 221 q 92 154 104 113 q 116 72 139 54 q 161 35 191 35 l 191 35 q 213 35 231 47 q 248 58 258 84 q 268 110 268 154 l 268 154 q 268 209 247 239 q 225 268 184 268 l 184 268 q 151 268 125 252 q 98 235 74 206 l 74 206 l 58 244 q 87 277 122 296 q 156 314 193 314 l 193 314 q 231 314 260 297 q 288 280 305 245 q 321 210 321 156 l 321 156 q 321 97 305 60 q 288 23 260 6 q 231 -12 192 -12 l 192 -12 q 150 -12 116 11 q 81 34 61 88 q 40 141 40 231 l 40 231 q 40 338 74 412 q 108 486 167 524 q 226 562 301 562 z"},"൮":{"ha":772,"x_min":40,"x_max":707,"o":"m 273 562 l 273 562 q 330 562 373 541 q 415 520 444 483 q 472 446 487 396 q 501 346 501 287 l 501 287 q 501 222 487 174 q 472 125 450 91 q 428 56 406 33 l 406 33 l 403 47 l 653 47 l 653 550 l 707 550 l 707 105 l 667 0 l 371 0 l 347 39 q 370 60 393 93 q 415 125 430 172 q 445 219 445 282 l 445 282 q 445 352 425 404 q 405 456 367 485 q 328 514 272 514 l 272 514 q 215 514 176 484 q 136 454 116 402 q 95 349 95 283 l 95 283 q 95 223 109 177 q 122 130 147 95 q 171 59 202 31 l 202 31 l 166 -7 q 134 20 105 60 q 76 100 58 156 q 40 212 40 285 l 40 285 q 40 345 55 395 q 70 445 100 483 q 130 520 174 541 q 217 562 273 562 z m 446 -201 l 446 -201 q 421 -201 397 -198 q 372 -196 350 -191 l 350 -191 l 357 -143 q 374 -147 398 -150 q 421 -153 445 -153 l 445 -153 q 508 -153 548 -138 q 588 -124 610 -98 q 632 -72 642 -37 q 651 -3 653 36 l 653 36 l 707 139 l 707 75 q 707 19 699 -23 q 691 -65 675 -96 q 658 -127 631 -149 l 631 -149 q 600 -174 554 -187 q 507 -201 446 -201 z"},"൯":{"ha":887,"x_min":40,"x_max":882,"o":"m 230 562 l 230 562 q 268 562 297 548 q 325 534 344 507 q 363 479 373 439 l 373 439 l 392 259 l 392 0 l 338 0 l 338 320 q 338 385 330 423 q 322 460 302 482 l 302 482 q 289 498 272 506 q 254 514 230 514 l 230 514 q 188 514 158 486 q 128 458 112 409 q 95 359 95 297 l 95 297 q 95 232 110 183 q 124 134 148 97 q 171 60 199 29 l 199 29 l 159 -7 q 127 28 100 70 q 73 111 57 167 q 40 222 40 298 l 40 298 q 40 376 63 436 q 86 495 129 529 q 172 562 230 562 z m 539 562 l 539 562 q 602 562 650 538 q 697 514 732 473 l 732 473 q 773 424 796 357 q 818 290 818 216 l 818 216 q 818 135 798 85 q 777 34 740 11 q 703 -12 653 -12 l 653 -12 q 600 -12 566 13 q 531 37 514 79 q 497 121 497 172 l 497 172 q 497 232 519 281 q 540 330 584 376 q 628 421 696 469 l 696 469 q 747 504 776 527 q 804 549 816 571 q 827 592 827 620 l 827 620 q 827 644 820 663 q 812 681 800 699 l 800 699 l 849 723 q 864 702 873 677 q 882 652 882 623 l 882 623 q 882 582 866 553 q 850 523 816 496 q 781 468 725 431 l 725 431 q 666 390 628 351 q 589 311 571 268 q 552 224 552 172 l 552 172 q 552 105 579 70 q 605 34 654 34 l 654 34 q 687 34 712 52 q 736 69 749 109 q 762 149 762 215 l 762 215 q 762 278 746 338 q 729 398 693 441 l 693 441 q 666 475 628 495 q 589 514 541 514 l 541 514 q 504 514 479 505 q 454 496 437 478 l 437 478 q 422 463 412 441 q 401 419 397 388 q 392 357 392 313 l 392 313 l 392 128 l 347 128 l 347 288 l 355 417 q 367 466 392 499 q 416 531 453 547 q 490 562 539 562 z"},"൰":{"ha":869,"x_min":-25,"x_max":829,"o":"m 202 550 l 256 550 l 256 128 l 254 90 q 254 14 245 -41 q 236 -96 206 -134 l 206 -134 q 182 -165 143 -183 q 103 -201 46 -201 l 46 -201 q 29 -201 11 -199 q -7 -198 -25 -193 l -25 -193 l -21 -146 q -8 -149 8 -151 q 23 -153 41 -153 l 41 -153 q 86 -153 115 -140 q 144 -127 162 -106 l 162 -106 q 187 -76 195 -30 q 202 15 202 87 l 202 87 l 202 550 z m 640 -12 l 640 -12 q 587 -12 553 17 q 519 45 500 104 l 500 104 l 509 107 q 493 47 458 18 q 422 -12 366 -12 l 366 -12 q 328 -12 301 2 q 273 16 255 44 q 237 71 227 113 l 227 113 l 219 243 l 219 530 l 256 530 l 256 223 q 256 160 263 125 q 270 90 289 68 l 289 68 q 301 53 320 45 q 339 36 367 36 l 367 36 q 394 36 412 45 q 430 54 443 68 l 443 68 q 464 92 471 128 q 478 164 478 225 l 478 225 l 478 550 l 531 550 l 531 226 q 531 165 539 128 q 547 90 567 67 l 567 67 q 581 52 599 44 q 616 36 641 36 l 641 36 q 683 36 713 65 q 742 94 758 143 q 774 192 774 251 l 774 251 q 774 317 760 367 q 746 416 722 454 q 698 491 670 521 l 670 521 l 710 557 q 741 522 769 481 q 796 439 813 384 q 829 328 829 250 l 829 250 q 829 175 807 116 q 785 56 743 22 q 700 -12 640 -12 z"},"൱":{"ha":728,"x_min":40,"x_max":682,"o":"m 230 562 l 230 562 q 268 562 296 548 q 324 533 342 506 q 360 479 370 441 l 370 441 l 391 259 l 391 0 l 338 0 l 338 320 q 338 385 330 423 q 322 460 302 482 l 302 482 q 289 498 272 506 q 254 514 230 514 l 230 514 q 188 514 158 486 q 128 458 112 409 q 95 360 95 297 l 95 297 q 95 232 110 183 q 124 134 148 97 q 171 60 199 29 l 199 29 l 159 -7 q 127 28 100 70 q 73 111 57 167 q 40 222 40 298 l 40 298 q 40 377 63 437 q 86 496 129 529 q 172 562 230 562 z m 500 562 l 500 562 q 558 562 599 527 q 639 491 661 417 q 682 342 682 226 l 682 226 q 682 85 653 -10 q 624 -105 561 -153 q 497 -201 393 -201 l 393 -201 q 372 -201 349 -199 q 325 -198 303 -193 l 303 -193 l 308 -146 q 328 -149 350 -151 q 371 -153 392 -153 l 392 -153 q 461 -153 506 -127 q 551 -101 578 -51 q 604 -2 615 68 q 626 138 626 226 l 626 226 q 626 323 611 387 q 596 451 568 483 q 540 514 499 514 l 499 514 q 476 514 458 506 q 440 498 426 482 l 426 482 q 407 459 399 423 q 391 387 391 326 l 391 326 l 391 10 l 347 10 l 347 319 l 361 446 q 379 506 414 534 q 448 562 500 562 z"},"൲":{"ha":1111,"x_min":40,"x_max":1090,"o":"m 966 550 l 966 550 q 1008 550 1036 532 q 1063 514 1077 484 q 1090 453 1090 417 l 1090 417 q 1090 381 1079 352 q 1067 323 1045 305 l 1045 305 q 1028 291 1009 283 q 989 275 964 272 q 939 268 906 268 l 906 268 l 761 268 l 763 315 l 911 315 q 952 315 974 322 q 995 328 1010 341 l 1010 341 q 1024 353 1031 373 q 1037 392 1037 416 l 1037 416 q 1037 456 1019 480 q 1001 504 966 504 l 966 504 q 928 504 908 478 q 887 452 887 407 l 887 407 q 887 370 898 341 q 909 312 925 287 l 925 287 l 874 282 q 858 308 847 341 q 835 374 835 413 l 835 413 q 835 457 852 488 q 869 518 899 534 q 929 550 966 550 z m 230 562 l 230 562 q 268 562 296 548 q 324 534 343 507 q 362 479 375 438 l 375 438 l 391 259 l 391 0 l 338 0 l 338 320 q 338 385 330 423 q 322 460 302 482 l 302 482 q 289 498 272 506 q 254 514 230 514 l 230 514 q 188 514 158 486 q 128 458 112 409 q 95 360 95 297 l 95 297 q 95 232 110 183 q 124 134 148 97 q 171 60 199 29 l 199 29 l 159 -7 q 127 28 100 70 q 73 111 57 167 q 40 222 40 298 l 40 298 q 40 377 63 437 q 86 496 129 529 q 172 562 230 562 z m 535 562 l 535 562 q 589 562 633 541 q 677 519 709 478 q 741 436 758 375 q 775 314 775 235 l 775 235 q 775 140 755 86 q 734 32 698 10 q 662 -12 615 -12 l 615 -12 q 565 -12 534 10 q 503 31 489 65 q 474 99 474 138 l 474 138 q 474 183 490 216 q 505 248 532 269 l 532 269 q 553 286 580 296 q 606 306 643 311 q 679 315 727 315 l 727 315 l 902 315 l 902 268 l 727 268 q 668 268 631 261 q 593 253 568 232 l 568 232 q 549 218 538 195 q 527 171 527 139 l 527 139 q 527 91 550 63 q 572 35 614 35 l 614 35 q 650 35 674 54 q 697 73 710 118 q 722 162 722 235 l 722 235 q 722 251 722 265 q 721 279 719 292 l 719 292 l 718 304 q 711 366 688 413 q 664 460 626 487 q 587 514 535 514 l 535 514 q 507 514 484 507 q 460 499 441 483 l 441 483 q 425 468 414 446 q 402 424 397 394 q 391 363 391 321 l 391 321 l 391 202 l 357 205 l 354 414 q 366 466 391 499 q 416 531 453 547 q 489 562 535 562 z"},"൳":{"ha":632,"x_min":40,"x_max":610,"o":"m 190 -12 l 190 -12 q 149 -12 115 11 q 80 33 60 83 q 40 133 40 216 l 40 216 q 40 296 63 353 q 85 409 131 446 l 131 446 q 162 470 199 485 q 236 500 288 508 q 339 515 411 515 l 411 515 l 610 515 l 610 466 l 423 466 q 352 466 304 461 q 256 455 223 443 q 190 430 165 409 l 165 409 q 131 383 115 344 q 98 304 92 252 l 92 252 l 92 240 q 91 234 91 227 q 91 220 91 211 l 91 211 q 91 149 103 110 q 115 71 138 53 q 160 35 190 35 l 190 35 q 212 35 230 46 q 247 57 257 84 q 267 110 267 154 l 267 154 q 267 209 246 239 q 225 268 184 268 l 184 268 q 151 268 124 252 q 97 235 73 206 l 73 206 l 63 249 q 91 280 124 297 q 157 314 192 314 l 192 314 q 230 314 259 297 q 288 280 305 245 q 321 210 321 156 l 321 156 q 321 97 305 60 q 288 23 259 6 q 229 -12 190 -12 z"},"൴":{"ha":739,"x_min":40,"x_max":699,"o":"m 402 792 l 455 792 l 455 196 q 455 164 457 139 q 459 113 465 94 q 471 75 482 62 l 482 62 q 492 48 508 42 q 524 35 546 35 l 546 35 q 580 35 602 55 q 623 75 634 114 q 644 153 644 210 l 644 210 q 644 266 631 316 q 618 366 593 407 q 567 447 528 474 q 489 501 437 511 l 437 511 l 416 512 q 406 514 395 515 q 384 515 373 515 l 373 515 q 304 515 252 493 q 199 471 164 433 q 128 394 110 343 q 91 292 91 233 l 91 233 l 91 219 q 91 153 104 113 q 116 72 139 54 q 161 35 191 35 l 191 35 q 213 35 231 46 q 248 57 258 84 q 268 110 268 154 l 268 154 q 268 209 247 239 q 225 268 184 268 l 184 268 q 151 268 124 252 q 97 235 74 206 l 74 206 l 63 249 q 91 280 124 297 q 157 314 193 314 l 193 314 q 231 314 260 297 q 288 280 305 245 q 321 210 321 156 l 321 156 q 321 97 305 60 q 288 23 259 6 q 230 -12 191 -12 l 191 -12 q 149 -12 115 11 q 81 34 61 86 q 40 137 40 224 l 40 224 q 40 297 62 359 q 83 420 125 466 q 167 512 230 537 q 292 562 374 562 l 374 562 q 386 562 397 562 q 407 561 417 560 l 417 560 l 441 558 q 500 548 548 520 q 595 491 629 446 q 663 400 681 341 q 699 281 699 209 l 699 209 q 699 139 682 90 q 664 40 630 14 q 596 -12 547 -12 l 547 -12 q 512 -12 487 -1 q 462 9 445 27 l 445 27 q 428 45 419 69 q 409 92 406 125 q 402 157 402 203 l 402 203 l 402 792 z"},"൵":{"ha":973,"x_min":42,"x_max":968,"o":"m 286 562 l 286 562 q 356 562 398 529 q 440 496 460 433 l 460 433 l 467 382 l 477 260 l 477 0 l 424 0 l 424 321 q 424 384 414 422 q 404 459 380 482 l 380 482 q 363 498 341 506 q 319 514 286 514 l 286 514 q 228 514 185 479 q 141 444 118 383 q 94 321 94 241 l 94 241 l 94 223 q 94 155 106 114 q 118 72 141 54 q 163 35 193 35 l 193 35 q 215 35 233 47 q 250 58 260 84 q 270 110 270 154 l 270 154 q 270 209 249 239 q 227 268 186 268 l 186 268 q 152 268 125 251 q 97 233 73 204 l 73 204 l 60 244 q 88 277 123 296 q 157 314 195 314 l 195 314 q 233 314 262 297 q 290 280 307 245 q 323 210 323 156 l 323 156 q 323 97 307 60 q 290 23 261 6 q 232 -12 193 -12 l 193 -12 q 151 -12 117 11 q 83 34 63 88 q 42 142 42 233 l 42 233 q 42 340 74 414 q 106 487 161 525 q 216 562 286 562 z m 625 562 l 625 562 q 688 562 736 538 q 783 514 817 473 l 817 473 q 859 424 882 357 q 904 290 904 216 l 904 216 q 904 135 884 85 q 863 34 826 11 q 789 -12 739 -12 l 739 -12 q 686 -12 652 13 q 617 37 600 79 q 583 121 583 172 l 583 172 q 583 232 604 281 q 625 330 669 376 q 713 421 782 469 l 782 469 q 833 504 862 527 q 890 549 902 571 q 913 592 913 620 l 913 620 q 913 644 905 663 q 897 681 886 699 l 886 699 l 935 723 q 950 702 959 677 q 968 652 968 623 l 968 623 q 968 582 952 553 q 935 523 901 496 q 866 468 811 431 l 811 431 q 752 390 714 351 q 675 311 657 268 q 638 224 638 172 l 638 172 q 638 105 665 70 q 691 34 740 34 l 740 34 q 773 34 798 52 q 822 69 835 109 q 848 149 848 215 l 848 215 q 848 278 831 338 q 814 398 779 441 l 779 441 q 752 475 714 495 q 675 514 627 514 l 627 514 q 590 514 565 505 q 540 496 523 478 l 523 478 q 508 463 498 441 q 487 419 482 388 q 477 357 477 313 l 477 313 l 477 128 l 433 128 l 433 288 l 440 417 q 453 466 478 499 q 502 531 539 547 q 576 562 625 562 z"},"൶":{"ha":1092,"x_min":33,"x_max":1036,"o":"m 184 337 l 184 337 q 233 337 267 315 q 300 293 318 256 q 335 219 335 172 l 335 172 q 335 127 321 91 q 306 55 285 34 l 285 34 l 279 47 l 589 47 l 590 0 l 257 0 l 235 36 q 257 62 270 94 q 282 126 282 166 l 282 166 q 282 226 256 258 q 230 290 185 290 l 185 290 q 154 290 132 275 q 109 259 98 232 q 86 205 86 170 l 86 170 q 86 123 103 89 q 119 55 145 26 l 145 26 l 109 -7 q 77 27 55 70 q 33 113 33 170 l 33 170 q 33 220 52 258 q 71 295 105 316 q 139 337 184 337 z m 801 562 l 801 562 q 858 562 900 546 q 942 530 969 501 l 969 501 q 993 476 1008 444 q 1023 411 1030 370 q 1036 328 1036 273 l 1036 273 l 1036 0 l 568 0 l 568 272 q 568 326 575 368 q 582 409 597 442 q 611 474 633 498 l 633 498 q 662 529 703 546 q 744 562 801 562 z m 761 512 l 761 512 q 731 512 707 497 q 682 481 664 453 l 664 453 q 644 423 633 378 q 622 333 622 259 l 622 259 l 622 44 l 628 45 q 687 101 734 162 q 781 222 808 285 q 835 347 835 406 l 835 406 q 835 436 828 460 q 821 484 805 498 q 789 512 761 512 z m 890 402 l 890 402 q 890 337 863 275 q 836 212 789 151 q 742 90 680 28 l 680 28 l 677 43 q 702 45 736 46 q 769 47 795 47 l 795 47 l 983 47 l 983 267 q 983 344 968 397 q 953 450 920 480 q 886 510 831 516 l 831 516 l 830 521 q 862 504 876 473 q 890 442 890 402 z"},"൷":{"ha":1380,"x_min":33,"x_max":1359,"o":"m 184 337 l 184 337 q 233 337 267 315 q 300 293 318 256 q 335 219 335 172 l 335 172 q 335 127 321 91 q 306 55 285 34 l 285 34 l 278 47 l 560 47 l 573 0 l 257 0 l 235 36 q 257 62 270 94 q 282 126 282 166 l 282 166 q 282 226 256 258 q 230 290 185 290 l 185 290 q 154 290 132 275 q 109 259 98 232 q 86 205 86 170 l 86 170 q 86 123 103 89 q 119 55 145 26 l 145 26 l 109 -7 q 77 27 55 70 q 33 113 33 170 l 33 170 q 33 220 52 258 q 71 295 105 316 q 139 337 184 337 z m 643 562 l 643 562 q 682 562 710 548 q 738 534 757 507 q 776 479 788 438 l 788 438 l 805 298 l 805 230 l 751 230 l 751 320 q 751 385 743 423 q 735 460 715 482 l 715 482 q 702 498 685 506 q 668 514 643 514 l 643 514 q 602 514 572 486 q 541 458 525 410 q 509 362 509 301 l 509 301 q 509 210 536 147 q 563 84 604 34 l 604 34 l 581 0 l 551 0 l 542 35 q 517 69 497 108 q 476 146 465 194 q 453 241 453 303 l 453 303 q 453 379 476 438 q 499 496 542 529 q 585 562 643 562 z m 948 562 l 948 562 q 1003 562 1047 541 q 1091 519 1123 477 q 1154 435 1171 374 q 1188 313 1188 235 l 1188 235 q 1188 140 1168 86 q 1147 32 1111 10 q 1075 -12 1028 -12 l 1028 -12 q 979 -12 948 10 q 916 31 902 65 q 887 99 887 138 l 887 138 q 887 183 903 216 q 918 248 945 269 l 945 269 q 966 286 993 296 q 1019 306 1055 311 q 1091 315 1138 315 l 1138 315 l 1163 315 l 1163 268 l 1140 268 q 1082 268 1045 261 q 1007 253 981 232 l 981 232 q 962 218 952 195 q 941 171 941 139 l 941 139 q 941 91 963 63 q 985 35 1028 35 l 1028 35 q 1064 35 1088 54 q 1111 73 1123 118 q 1135 162 1135 235 l 1135 235 q 1135 251 1135 265 q 1134 279 1133 292 l 1133 292 l 1132 304 q 1125 366 1101 413 q 1077 460 1039 487 q 1000 514 948 514 l 948 514 q 920 514 897 507 q 873 499 855 483 l 855 483 q 838 468 827 446 q 816 424 811 394 q 805 363 805 321 l 805 321 l 805 250 l 771 252 l 767 414 q 779 466 804 499 q 829 531 866 547 q 903 562 948 562 z m 1298 450 l 1351 461 q 1355 448 1357 434 q 1359 419 1359 403 l 1359 403 q 1359 370 1349 345 q 1338 320 1318 304 l 1318 304 q 1293 284 1261 276 q 1228 268 1179 268 l 1179 268 l 1161 268 l 1161 315 l 1175 315 q 1213 315 1237 320 q 1260 324 1276 336 l 1276 336 q 1291 346 1298 363 q 1305 379 1305 404 l 1305 404 q 1305 414 1303 428 q 1301 441 1298 450 l 1298 450 z"},"൸":{"ha":1768,"x_min":10,"x_max":1712,"o":"m 1146 562 l 1146 562 q 1179 562 1203 552 q 1226 541 1243 522 q 1260 503 1271 479 q 1281 455 1286 428 l 1286 428 l 1267 410 q 1282 462 1311 496 q 1340 529 1382 546 q 1423 562 1477 562 l 1477 562 q 1534 562 1576 546 q 1617 530 1645 501 l 1645 501 q 1669 476 1684 444 q 1698 411 1705 370 q 1712 328 1712 273 l 1712 273 l 1712 0 l 1304 0 l 1304 46 q 1362 101 1409 162 q 1456 222 1484 285 q 1511 347 1511 406 l 1511 406 q 1511 436 1504 460 q 1497 484 1481 498 q 1464 512 1436 512 l 1436 512 q 1406 512 1382 497 q 1357 481 1341 454 l 1341 454 q 1319 421 1310 377 q 1300 332 1300 264 l 1300 264 l 1300 230 l 1247 230 l 1247 335 q 1247 391 1241 427 q 1235 463 1217 486 l 1217 486 q 1205 500 1188 507 q 1170 514 1148 514 l 1148 514 q 1126 514 1109 507 q 1091 500 1079 486 l 1079 486 q 1060 463 1055 427 q 1049 390 1049 333 l 1049 333 l 1049 212 q 1049 165 1045 131 q 1040 97 1031 73 q 1021 48 1004 30 l 1004 30 q 986 10 959 -1 q 932 -12 896 -12 l 896 -12 q 860 -12 834 0 q 807 11 788 31 l 788 31 q 772 49 763 73 q 753 97 749 131 q 744 165 744 211 l 744 211 l 744 335 q 744 391 739 427 q 733 463 714 486 l 714 486 q 702 500 685 507 q 667 514 645 514 l 645 514 q 623 514 606 507 q 588 500 577 486 l 577 486 q 558 463 552 427 q 546 390 546 333 l 546 333 l 546 208 q 546 136 536 98 q 526 60 500 32 l 500 32 q 482 11 455 0 q 427 -12 390 -12 l 390 -12 q 334 -12 300 19 q 266 49 251 109 l 251 109 l 262 104 q 251 67 232 41 q 213 15 185 2 q 157 -12 117 -12 l 117 -12 q 88 -12 61 -5 q 34 1 10 13 l 10 13 l 30 58 q 48 48 70 42 q 92 36 117 36 l 117 36 q 145 36 164 44 q 182 52 195 68 l 195 68 q 215 90 223 127 q 231 164 231 226 l 231 226 l 231 550 l 285 550 l 285 220 q 285 161 292 124 q 299 87 317 65 l 317 65 q 329 51 347 44 q 364 36 387 36 l 387 36 q 413 36 431 45 q 449 53 461 67 l 461 67 q 480 90 487 127 q 493 163 493 224 l 493 224 l 493 337 q 493 385 497 419 q 501 453 511 478 q 521 502 537 520 l 537 520 q 556 540 583 551 q 609 562 645 562 l 645 562 q 681 562 708 551 q 735 540 754 519 l 754 519 q 770 501 780 478 q 789 454 794 421 q 798 387 798 339 l 798 339 l 798 215 q 798 160 804 124 q 809 87 828 64 l 828 64 q 839 51 857 44 q 875 36 896 36 l 896 36 q 918 36 936 43 q 954 50 965 64 l 965 64 q 984 87 990 124 q 995 160 995 215 l 995 215 l 995 337 q 995 385 1000 419 q 1004 453 1014 478 q 1024 502 1040 520 l 1040 520 q 1059 540 1086 551 q 1112 562 1146 562 z m 1565 402 l 1565 402 q 1565 337 1539 275 q 1512 212 1465 151 q 1417 90 1356 28 l 1356 28 l 1353 43 q 1377 45 1411 46 q 1444 47 1470 47 l 1470 47 l 1658 47 l 1658 267 q 1658 344 1643 397 q 1628 450 1595 480 q 1562 510 1506 516 l 1506 516 l 1506 521 q 1537 504 1551 473 q 1565 442 1565 402 z"},"൹":{"ha":924,"x_min":40,"x_max":902,"o":"m 230 562 l 230 562 q 268 562 296 548 q 324 534 343 507 q 362 479 375 438 l 375 438 l 391 259 l 391 0 l 338 0 l 338 320 q 338 385 330 423 q 322 460 302 482 l 302 482 q 289 498 272 506 q 254 514 230 514 l 230 514 q 188 514 158 486 q 128 458 112 409 q 95 360 95 297 l 95 297 q 95 232 110 183 q 124 134 148 97 q 171 60 199 29 l 199 29 l 159 -7 q 127 28 100 70 q 73 111 57 167 q 40 222 40 298 l 40 298 q 40 377 63 437 q 86 496 129 529 q 172 562 230 562 z m 535 562 l 535 562 q 589 562 633 541 q 677 519 709 478 q 741 436 758 375 q 775 314 775 235 l 775 235 q 775 140 755 86 q 734 32 698 10 q 662 -12 615 -12 l 615 -12 q 565 -12 534 10 q 503 31 489 65 q 474 99 474 138 l 474 138 q 474 183 490 216 q 505 248 532 269 l 532 269 q 553 286 580 296 q 606 306 643 311 q 679 315 727 315 l 727 315 l 902 315 l 902 268 l 727 268 q 668 268 631 261 q 593 253 568 232 l 568 232 q 549 218 538 195 q 527 171 527 139 l 527 139 q 527 91 550 63 q 572 35 614 35 l 614 35 q 650 35 674 54 q 697 73 710 118 q 722 162 722 235 l 722 235 q 722 251 722 265 q 721 279 719 292 l 719 292 l 718 304 q 711 366 688 413 q 664 460 626 487 q 587 514 535 514 l 535 514 q 507 514 484 507 q 460 499 441 483 l 441 483 q 425 468 414 446 q 402 424 397 394 q 391 363 391 321 l 391 321 l 391 202 l 357 205 l 354 414 q 366 466 391 499 q 416 531 453 547 q 489 562 535 562 z"},"ൺ":{"ha":1210,"x_min":42,"x_max":1170,"o":"m 286 562 l 286 562 q 356 562 396 531 q 436 499 458 440 l 458 440 l 444 441 q 462 502 498 532 q 534 562 591 562 l 591 562 q 647 562 684 532 q 720 501 735 439 l 735 439 l 733 416 l 753 324 l 753 0 l 699 0 l 699 327 q 699 390 692 425 q 685 460 666 482 l 666 482 q 654 497 635 506 q 616 514 588 514 l 588 514 q 561 514 543 505 q 525 496 512 482 l 512 482 q 492 458 485 422 q 477 386 477 325 l 477 325 l 477 0 l 424 0 l 424 320 q 424 384 414 422 q 404 459 380 482 l 380 482 q 363 498 341 506 q 318 514 286 514 l 286 514 q 228 514 185 480 q 141 445 118 384 q 94 322 94 241 l 94 241 l 94 223 q 94 155 106 114 q 118 72 141 54 q 163 35 193 35 l 193 35 q 215 35 233 47 q 250 58 260 84 q 270 110 270 154 l 270 154 q 270 209 249 239 q 227 268 186 268 l 186 268 q 152 268 125 251 q 97 233 73 204 l 73 204 l 60 244 q 88 277 123 296 q 157 314 195 314 l 195 314 q 233 314 262 297 q 290 280 307 245 q 323 210 323 156 l 323 156 q 323 97 307 60 q 290 23 261 6 q 232 -12 193 -12 l 193 -12 q 151 -12 117 11 q 83 34 63 88 q 42 142 42 233 l 42 233 q 42 340 74 414 q 106 487 161 525 q 216 562 286 562 z m 1019 -12 l 1019 -12 q 972 -12 938 11 q 903 34 884 82 q 865 130 865 205 l 865 205 q 865 273 883 328 q 900 382 928 428 q 956 473 987 513 l 987 513 l 1000 530 q 1028 567 1046 600 q 1064 633 1064 667 l 1064 667 q 1064 700 1046 722 q 1028 743 988 743 l 988 743 q 970 743 952 740 q 934 737 921 732 l 921 732 l 909 779 q 926 784 949 788 q 971 792 995 792 l 995 792 q 1042 792 1069 774 q 1095 755 1107 728 q 1118 701 1118 675 l 1118 675 q 1118 630 1097 590 q 1076 549 1041 503 l 1041 503 l 1029 487 q 998 447 974 404 q 949 361 935 312 q 920 263 920 204 l 920 204 q 920 138 934 101 q 947 64 970 49 q 992 34 1018 34 l 1018 34 q 1064 34 1090 74 q 1115 114 1115 208 l 1115 208 q 1115 263 1103 319 q 1090 374 1064 420 q 1038 465 997 490 l 997 490 q 978 503 954 509 q 930 515 901 515 l 901 515 q 864 515 840 507 q 816 498 800 481 l 800 481 q 782 464 772 441 q 762 418 758 387 q 753 355 753 313 l 753 313 l 753 60 l 707 60 l 708 247 l 716 418 q 728 467 753 499 q 777 530 814 546 q 851 562 899 562 l 899 562 q 935 562 965 554 q 994 546 1019 532 l 1019 532 q 1022 531 1026 529 q 1029 527 1031 525 l 1031 525 q 1078 494 1109 445 q 1140 396 1155 336 q 1170 276 1170 211 l 1170 211 q 1170 96 1130 42 q 1090 -12 1019 -12 z"},"ൻ":{"ha":849,"x_min":40,"x_max":809,"o":"m 230 562 l 230 562 q 268 562 296 548 q 324 533 343 506 q 361 479 372 439 l 372 439 l 391 269 l 391 0 l 338 0 l 338 320 q 338 385 330 423 q 322 460 302 482 l 302 482 q 289 498 272 506 q 254 514 230 514 l 230 514 q 188 514 158 486 q 128 458 112 409 q 95 360 95 297 l 95 297 q 95 232 110 183 q 124 134 148 97 q 171 60 199 29 l 199 29 l 159 -7 q 127 28 100 70 q 73 111 57 167 q 40 222 40 298 l 40 298 q 40 377 63 437 q 86 496 129 529 q 172 562 230 562 z m 658 -12 l 658 -12 q 611 -12 577 11 q 542 34 523 82 q 504 130 504 205 l 504 205 q 504 273 522 328 q 539 382 567 428 q 595 473 626 513 l 626 513 l 639 530 q 667 567 685 600 q 702 633 702 667 l 702 667 q 702 700 685 722 q 667 743 627 743 l 627 743 q 608 743 591 740 q 574 737 559 732 l 559 732 l 548 779 q 564 784 587 788 q 610 792 633 792 l 633 792 q 681 792 708 774 q 734 755 746 728 q 757 701 757 675 l 757 675 q 757 630 736 590 q 715 549 679 503 l 679 503 l 667 487 q 637 447 613 404 q 588 361 574 312 q 559 263 559 204 l 559 204 q 559 138 572 101 q 585 64 608 49 q 630 34 657 34 l 657 34 q 703 34 729 74 q 754 114 754 208 l 754 208 q 754 263 741 319 q 728 374 703 420 q 677 465 636 490 l 636 490 q 616 503 593 509 q 569 515 540 515 l 540 515 q 503 515 479 507 q 455 498 439 481 l 439 481 q 421 464 411 441 q 400 418 396 387 q 391 355 391 313 l 391 313 l 391 60 l 345 60 l 347 247 l 355 418 q 367 467 392 499 q 416 530 453 546 q 490 562 538 562 l 538 562 q 574 562 604 554 q 633 546 658 532 l 658 532 q 661 531 664 529 q 667 527 670 525 l 670 525 q 717 494 748 445 q 779 396 794 336 q 809 276 809 211 l 809 211 q 809 96 769 42 q 728 -12 658 -12 z"},"ർ":{"ha":590,"x_min":40,"x_max":551,"o":"m 399 -12 l 399 -12 q 352 -12 318 11 q 283 34 265 82 q 246 130 246 205 l 246 205 q 246 273 264 328 q 281 382 309 428 q 337 473 367 513 l 367 513 l 380 530 q 408 567 426 600 q 444 633 444 667 l 444 667 q 444 700 426 722 q 408 743 368 743 l 368 743 q 350 743 332 740 q 314 737 301 732 l 301 732 l 289 779 q 306 784 329 788 q 351 792 375 792 l 375 792 q 422 792 449 774 q 476 755 487 728 q 498 701 498 675 l 498 675 q 498 630 477 590 q 456 549 421 503 l 421 503 l 409 487 q 378 447 354 404 q 329 361 315 312 q 300 263 300 204 l 300 204 q 300 138 314 101 q 327 64 350 49 q 372 34 398 34 l 398 34 q 444 34 470 74 q 495 114 495 208 l 495 208 q 495 249 488 291 q 481 333 467 372 q 452 410 430 441 q 408 472 377 491 l 377 491 q 358 503 335 509 q 312 515 285 515 l 285 515 q 223 515 181 485 q 138 454 117 401 q 95 348 95 283 l 95 283 q 95 222 109 176 q 122 129 147 94 q 171 59 201 31 l 201 31 l 165 -7 q 134 20 105 60 q 76 100 58 156 q 40 212 40 285 l 40 285 q 40 345 57 396 q 73 446 105 483 q 136 520 182 541 q 227 562 285 562 l 285 562 q 318 562 347 555 q 375 547 400 532 l 400 532 q 403 531 406 529 q 409 527 411 525 l 411 525 q 458 495 489 446 q 520 396 536 336 q 551 276 551 211 l 551 211 q 551 96 511 42 q 470 -12 399 -12 z"},"ൽ":{"ha":953,"x_min":40,"x_max":914,"o":"m 585 562 l 585 562 q 620 562 652 557 q 683 552 711 543 q 739 533 764 517 l 764 517 l 775 511 q 845 466 880 388 q 914 309 914 211 l 914 211 q 914 96 874 42 q 833 -12 762 -12 l 762 -12 q 716 -12 682 11 q 647 34 628 82 q 609 130 609 205 l 609 205 q 609 271 626 325 q 643 379 670 424 q 697 469 727 508 l 727 508 l 738 522 q 768 561 788 597 q 807 633 807 667 l 807 667 q 807 700 789 722 q 771 743 731 743 l 731 743 q 713 743 695 740 q 677 737 664 732 l 664 732 l 652 779 q 669 784 692 788 q 715 792 738 792 l 738 792 q 786 792 813 774 q 839 755 850 728 q 861 701 861 675 l 861 675 q 861 630 840 589 q 819 547 782 500 l 782 500 l 769 483 q 740 445 716 403 q 692 360 678 312 q 664 263 664 204 l 664 204 q 664 138 677 101 q 690 64 713 49 q 735 34 761 34 l 761 34 q 807 34 833 74 q 858 114 858 208 l 858 208 q 858 267 846 319 q 833 370 807 411 q 781 451 740 477 l 740 477 l 725 484 q 695 500 660 507 q 624 514 584 514 l 584 514 q 543 514 506 507 q 469 499 439 481 l 439 481 l 424 474 q 369 438 338 370 q 307 302 307 209 l 307 209 q 307 141 320 103 q 333 65 356 50 q 378 35 406 35 l 406 35 q 434 35 457 50 q 479 65 492 104 q 505 142 505 210 l 505 210 q 505 264 492 317 q 478 369 452 413 q 426 456 389 481 l 389 481 l 377 489 q 357 504 334 510 q 311 516 285 516 l 285 516 q 222 516 180 485 q 138 454 117 402 q 95 349 95 283 l 95 283 q 95 221 109 175 q 122 128 147 93 q 171 58 202 31 l 202 31 l 166 -7 q 134 20 105 60 q 76 99 58 155 q 40 211 40 285 l 40 285 q 40 344 56 394 q 71 444 102 482 q 132 520 177 541 q 222 562 281 562 l 281 562 q 321 562 354 552 q 387 541 417 518 l 417 518 l 433 504 q 492 458 526 382 q 560 306 560 210 l 560 210 q 560 133 541 84 q 522 35 488 12 q 453 -12 405 -12 l 405 -12 q 359 -12 324 12 q 289 35 271 85 q 252 134 252 209 l 252 209 q 252 274 267 328 q 281 382 310 426 q 339 469 381 500 l 381 500 l 395 511 q 432 536 479 549 q 526 562 585 562 z"},"ൾ":{"ha":832,"x_min":40,"x_max":793,"o":"m 617 792 l 617 792 q 664 792 691 774 q 718 755 729 728 q 740 701 740 675 l 740 675 q 740 630 719 590 q 698 549 663 503 l 663 503 l 651 487 q 620 447 596 404 q 571 361 557 312 q 542 263 542 204 l 542 204 q 542 138 556 101 q 569 64 592 49 q 614 34 640 34 l 640 34 q 686 34 712 74 q 737 114 737 208 l 737 208 q 737 249 730 291 q 723 333 709 372 q 694 410 672 441 q 650 472 620 491 l 620 491 q 601 503 580 509 q 559 515 534 515 l 534 515 q 504 515 481 508 q 458 500 441 486 l 441 486 q 409 461 397 417 q 384 373 384 301 l 384 301 l 384 214 q 384 172 380 139 q 376 105 367 79 q 357 53 338 33 l 338 33 q 319 12 291 0 q 263 -12 224 -12 l 224 -12 q 167 -12 126 20 q 84 51 62 110 q 40 169 40 251 l 40 251 q 40 327 57 383 q 73 438 101 481 q 128 524 161 560 l 161 560 l 200 523 q 172 493 148 455 q 124 417 110 368 q 96 318 96 252 l 96 252 q 96 186 111 138 q 126 89 155 63 q 183 36 224 36 l 224 36 q 251 36 269 44 q 287 52 299 68 l 299 68 q 318 92 324 132 q 330 172 330 237 l 330 237 l 330 312 q 330 387 346 437 q 361 486 399 519 l 399 519 q 424 539 457 551 q 490 562 532 562 l 532 562 q 563 562 590 555 q 617 547 642 533 l 642 533 l 654 526 q 700 495 731 446 q 762 397 778 337 q 793 276 793 211 l 793 211 q 793 96 753 42 q 712 -12 641 -12 l 641 -12 q 594 -12 560 11 q 525 34 507 82 q 488 130 488 205 l 488 205 q 488 273 506 328 q 523 382 551 428 q 579 473 609 513 l 609 513 l 622 530 q 650 567 668 600 q 686 633 686 667 l 686 667 q 686 700 668 722 q 650 743 610 743 l 610 743 q 592 743 574 740 q 556 737 543 732 l 543 732 l 531 779 q 548 784 571 788 q 593 792 617 792 z"},"ൿ":{"ha":953,"x_min":33,"x_max":921,"o":"m 420 562 l 420 562 q 482 562 522 529 q 561 495 580 432 q 599 368 599 277 l 599 277 q 599 174 577 110 q 555 46 515 17 q 474 -12 419 -12 l 419 -12 q 375 -12 344 5 q 313 22 291 52 l 291 52 q 264 91 252 150 q 240 208 240 277 l 240 277 q 240 419 287 491 q 334 562 420 562 z m 420 515 l 420 515 q 357 515 326 458 q 294 400 294 276 l 294 276 q 294 189 309 136 q 323 82 351 59 q 379 35 419 35 l 419 35 q 459 35 488 59 q 516 82 531 136 q 545 189 545 277 l 545 277 q 545 362 531 415 q 517 467 489 491 q 461 515 420 515 z m 181 -12 l 181 -12 q 113 -12 73 29 q 33 70 33 147 l 33 147 q 33 190 49 220 q 65 249 91 268 l 91 268 q 113 285 142 295 q 170 305 208 310 q 245 314 296 314 l 296 314 l 695 314 q 755 314 795 305 q 835 295 864 272 l 864 272 q 889 252 905 220 q 921 188 921 142 l 921 142 q 921 68 887 28 q 852 -12 788 -12 l 788 -12 q 724 -12 689 32 q 653 75 653 148 l 653 148 q 653 181 661 215 q 668 248 682 286 l 682 286 q 683 289 684 293 q 685 297 687 301 l 687 301 q 698 330 712 364 q 726 398 745 439 l 745 439 q 770 496 785 536 q 800 575 806 605 q 812 634 812 661 l 812 661 q 812 698 795 721 q 777 743 736 743 l 736 743 q 718 743 700 740 q 682 737 669 732 l 669 732 l 658 779 q 674 784 697 788 q 720 792 743 792 l 743 792 q 790 792 817 774 q 844 755 856 727 q 867 699 867 671 l 867 671 q 867 647 863 623 q 859 599 851 571 q 842 542 828 506 q 813 470 791 420 l 791 420 q 776 385 763 355 q 749 324 741 300 l 741 300 q 739 295 738 291 q 736 286 734 282 l 734 282 q 719 242 712 211 q 705 179 705 148 l 705 148 q 705 107 717 83 q 728 58 747 47 q 766 36 789 36 l 789 36 q 828 36 848 63 q 867 90 867 141 l 867 141 q 867 173 857 197 q 847 221 828 236 l 828 236 q 808 253 777 261 q 745 268 698 268 l 698 268 l 288 268 q 226 268 187 260 q 148 252 122 230 l 122 230 q 106 216 96 196 q 86 175 86 146 l 86 146 q 86 106 100 82 q 113 57 135 46 q 157 35 185 35 l 185 35 q 217 35 243 46 q 269 56 302 81 l 302 81 l 330 44 q 305 24 282 12 q 258 -1 234 -6 q 210 -12 181 -12 z"},"!":{"ha":229,"x_min":73,"x_max":156,"o":"m 135 188 l 94 188 l 82 714 l 147 714 l 135 188 z m 114 -10 l 114 -10 q 93 -10 83 3 q 73 16 73 38 l 73 38 q 73 60 83 73 q 93 86 114 86 l 114 86 q 136 86 146 74 q 156 61 156 38 l 156 38 q 156 15 146 3 q 135 -10 114 -10 z"},"\"":{"ha":363,"x_min":73,"x_max":291,"o":"m 125 542 l 84 542 l 73 800 l 136 800 l 125 542 z m 279 542 l 238 542 l 227 800 l 291 800 l 279 542 z"},"#":{"ha":543,"x_min":26,"x_max":517,"o":"m 134 0 l 88 0 l 130 219 l 26 219 l 26 264 l 138 264 l 173 452 l 61 452 l 61 497 l 182 497 l 223 714 l 269 714 l 228 497 l 368 497 l 409 714 l 455 714 l 414 497 l 517 497 l 517 452 l 405 452 l 370 264 l 482 264 l 482 219 l 362 219 l 320 0 l 274 0 l 316 219 l 176 219 l 134 0 z m 219 452 l 184 264 l 324 264 l 359 452 l 219 452 z"},"%":{"ha":686,"x_min":50,"x_max":637,"o":"m 224 0 l 175 0 l 462 714 l 511 714 l 224 0 z m 167 276 l 167 276 q 109 276 80 333 q 50 390 50 501 l 50 501 q 50 613 80 669 q 110 724 168 724 l 168 724 q 227 724 257 668 q 286 612 286 501 l 286 501 q 286 389 256 333 q 225 276 167 276 z m 167 320 l 167 320 q 203 320 221 365 q 238 409 238 501 l 238 501 q 238 592 221 637 q 204 681 168 681 l 168 681 q 132 681 115 637 q 98 592 98 501 l 98 501 q 98 409 116 365 q 133 320 167 320 z m 518 -10 l 518 -10 q 460 -10 431 47 q 401 104 401 215 l 401 215 q 401 327 431 383 q 460 438 519 438 l 519 438 q 578 438 608 382 q 637 326 637 215 l 637 215 q 637 103 607 47 q 576 -10 518 -10 z m 518 34 l 518 34 q 554 34 572 79 q 589 123 589 215 l 589 215 q 589 306 572 351 q 554 395 518 395 l 518 395 q 483 395 466 351 q 448 306 448 215 l 448 215 q 448 122 466 78 q 484 34 518 34 z"},"'":{"ha":209,"x_min":73,"x_max":136,"o":"m 125 542 l 84 542 l 73 800 l 136 800 l 125 542 z"},"(":{"ha":289,"x_min":53,"x_max":260,"o":"m 53 276 l 53 276 q 53 378 71 472 q 88 566 122 650 q 155 733 203 800 l 203 800 l 260 800 q 209 727 175 643 q 141 559 124 467 q 107 375 107 277 l 107 277 q 107 179 124 88 q 141 -4 175 -87 q 209 -170 260 -244 l 260 -244 l 203 -244 q 154 -175 121 -92 q 87 -9 70 85 q 53 178 53 276 z"},")":{"ha":289,"x_min":29,"x_max":237,"o":"m 237 280 l 237 280 q 237 179 220 85 q 202 -10 169 -93 q 135 -176 87 -244 l 87 -244 l 29 -244 q 81 -171 115 -87 q 148 -3 165 90 q 182 182 182 279 l 182 279 q 182 378 166 469 q 149 560 115 644 q 81 727 30 800 l 30 800 l 87 800 q 136 731 170 648 q 203 565 220 472 q 237 379 237 280 z"},"*":{"ha":512,"x_min":42,"x_max":470,"o":"m 226 800 l 285 800 l 275 611 l 458 668 l 470 611 l 287 577 l 403 423 l 351 392 l 255 558 l 162 393 l 110 423 l 225 577 l 42 611 l 54 668 l 236 612 l 226 800 z"},"+":{"ha":461,"x_min":38,"x_max":423,"o":"m 255 122 l 207 122 l 207 329 l 38 329 l 38 377 l 207 377 l 207 585 l 255 585 l 255 377 l 423 377 l 423 329 l 255 329 l 255 122 z"},",":{"ha":229,"x_min":39,"x_max":155,"o":"m 91 115 l 148 115 l 155 105 q 147 65 136 25 q 125 -16 112 -55 q 98 -94 82 -130 l 82 -130 l 39 -130 q 52 -92 62 -49 q 72 -6 80 37 q 88 80 91 115 l 91 115 z"},"-":{"ha":310,"x_min":39,"x_max":272,"o":"m 272 244 l 39 244 l 39 294 l 272 294 l 272 244 z"},".":{"ha":231,"x_min":75,"x_max":157,"o":"m 115 -10 l 115 -10 q 95 -10 85 3 q 75 15 75 38 l 75 38 q 75 61 85 74 q 95 86 115 86 l 115 86 q 137 86 147 74 q 157 62 157 38 l 157 38 q 157 15 147 3 q 136 -10 115 -10 z"},"/":{"ha":363,"x_min":23,"x_max":341,"o":"m 77 -244 l 23 -244 l 287 800 l 341 800 l 77 -244 z"},":":{"ha":231,"x_min":75,"x_max":157,"o":"m 115 -10 l 115 -10 q 95 -10 85 3 q 75 15 75 38 l 75 38 q 75 61 85 74 q 94 86 115 86 l 115 86 q 137 86 147 74 q 157 62 157 38 l 157 38 q 157 15 147 3 q 136 -10 115 -10 z m 115 444 l 115 444 q 95 444 85 457 q 75 469 75 492 l 75 492 q 75 515 85 528 q 94 540 115 540 l 115 540 q 137 540 147 528 q 157 515 157 492 l 157 492 q 157 469 147 457 q 136 444 115 444 z"},";":{"ha":231,"x_min":39,"x_max":157,"o":"m 91 115 l 148 115 l 155 105 q 148 65 137 25 q 125 -16 112 -55 q 98 -94 82 -130 l 82 -130 l 39 -130 q 52 -92 63 -49 q 73 -6 81 37 q 88 80 91 115 l 91 115 z m 115 444 l 115 444 q 95 444 85 457 q 75 469 75 492 l 75 492 q 75 515 85 528 q 94 540 115 540 l 115 540 q 137 540 147 528 q 157 515 157 492 l 157 492 q 157 469 147 457 q 136 444 115 444 z"},"<":{"ha":461,"x_min":37,"x_max":424,"o":"m 424 189 l 424 136 l 37 340 l 37 376 l 424 575 l 424 521 l 99 358 l 424 189 z"},"=":{"ha":461,"x_min":39,"x_max":422,"o":"m 422 224 l 39 224 l 39 272 l 422 272 l 422 224 z m 422 433 l 39 433 l 39 480 l 422 480 l 422 433 z"},">":{"ha":461,"x_min":37,"x_max":424,"o":"m 424 340 l 37 136 l 37 189 l 363 358 l 37 521 l 37 575 l 424 376 l 424 340 z"},"?":{"ha":355,"x_min":34,"x_max":320,"o":"m 165 724 l 165 724 q 237 724 279 681 q 320 638 320 560 l 320 560 q 320 515 309 482 q 298 449 278 421 q 258 392 229 359 l 229 359 q 204 331 191 308 q 178 284 174 260 q 169 235 169 203 l 169 203 l 169 186 l 123 186 l 123 208 q 123 248 128 277 q 133 306 147 332 q 161 357 187 385 l 187 385 q 212 414 230 439 q 248 464 257 492 q 266 520 266 556 l 266 556 q 266 614 239 644 q 212 674 161 674 l 161 674 q 132 674 106 666 q 79 657 55 644 l 55 644 l 34 689 q 62 704 95 714 q 128 724 165 724 z m 147 -10 l 147 -10 q 127 -10 117 3 q 106 15 106 38 l 106 38 q 106 61 116 74 q 126 86 147 86 l 147 86 q 168 86 178 74 q 188 62 188 38 l 188 38 q 188 15 178 3 q 168 -10 147 -10 z"},"[":{"ha":316,"x_min":82,"x_max":276,"o":"m 276 -244 l 82 -244 l 82 800 l 276 800 l 276 753 l 136 753 l 136 -197 l 276 -197 l 276 -244 z"},"\\":{"ha":363,"x_min":23,"x_max":341,"o":"m 341 -244 l 287 -244 l 23 800 l 77 800 l 341 -244 z"},"]":{"ha":317,"x_min":41,"x_max":234,"o":"m 234 -244 l 41 -244 l 41 -197 l 180 -197 l 180 753 l 41 753 l 41 800 l 234 800 l 234 -244 z"},"^":{"ha":461,"x_min":25,"x_max":435,"o":"m 78 335 l 25 335 l 213 717 l 249 717 l 435 335 l 381 335 l 231 653 l 78 335 z"},"_":{"ha":383,"x_min":-2,"x_max":385,"o":"m 385 -134 l -2 -134 l -2 -90 l 385 -90 l 385 -134 z"},"{":{"ha":354,"x_min":30,"x_max":315,"o":"m 315 -197 l 315 -244 q 260 -243 223 -228 q 185 -213 166 -180 q 147 -148 147 -96 l 147 -96 l 147 147 q 147 207 119 231 q 91 254 30 254 l 30 254 l 30 301 q 91 302 119 327 q 147 351 147 409 l 147 409 l 147 651 q 147 701 167 734 q 187 767 225 784 q 262 800 315 800 l 315 800 l 315 753 q 256 753 229 729 q 201 705 201 648 l 201 648 l 201 408 q 201 355 180 322 q 158 289 109 280 l 109 280 l 109 276 q 158 266 180 236 q 201 205 201 150 l 201 150 l 201 -94 q 201 -133 212 -155 q 223 -178 248 -187 q 273 -197 315 -197 l 315 -197 z"},"|":{"ha":532,"x_min":241,"x_max":291,"o":"m 291 -244 l 241 -244 l 241 800 l 291 800 l 291 -244 z"},"}":{"ha":354,"x_min":39,"x_max":324,"o":"m 39 753 l 39 800 q 95 800 132 785 q 169 769 188 737 q 207 704 207 652 l 207 652 l 207 408 q 207 349 235 325 q 263 301 324 301 l 324 301 l 324 254 q 263 254 235 230 q 207 206 207 146 l 207 146 l 207 -95 q 207 -144 187 -177 q 166 -211 129 -227 q 91 -244 39 -244 l 39 -244 l 39 -197 q 98 -196 126 -172 q 153 -148 153 -92 l 153 -92 l 153 148 q 153 201 175 234 q 197 266 245 276 l 245 276 l 245 280 q 197 290 175 320 q 153 350 153 406 l 153 406 l 153 650 q 153 689 142 712 q 131 734 106 744 q 81 753 39 753 l 39 753 z"},"~":{"ha":461,"x_min":37,"x_max":425,"o":"m 223 331 l 223 331 q 198 345 178 352 q 158 358 137 358 l 137 358 q 111 358 86 344 q 61 330 37 303 l 37 303 l 37 358 q 57 380 83 393 q 108 406 139 406 l 139 406 q 166 406 190 399 q 213 391 239 377 l 239 377 q 268 362 287 355 q 306 348 330 348 l 330 348 q 355 348 379 363 q 403 377 425 402 l 425 402 l 425 347 q 406 326 382 313 q 357 300 327 300 l 327 300 q 299 300 276 308 q 253 315 223 331 z"}," ":{"ha":247,"x_min":0,"x_max":0,"o":""},"­":{"ha":310,"x_min":39,"x_max":272,"o":"m 272 244 l 39 244 l 39 294 l 272 294 l 272 244 z"},"–":{"ha":500,"x_min":39,"x_max":461,"o":"m 461 244 l 39 244 l 39 294 l 461 294 l 461 244 z"},"—":{"ha":1000,"x_min":39,"x_max":961,"o":"m 961 244 l 39 244 l 39 294 l 961 294 l 961 244 z"},"‘":{"ha":201,"x_min":42,"x_max":157,"o":"m 106 555 l 48 555 l 42 565 q 50 605 61 646 q 72 686 86 726 q 100 765 115 800 l 115 800 l 157 800 q 145 762 135 719 q 124 675 117 633 q 110 591 106 555 l 106 555 z"},"’":{"ha":201,"x_min":42,"x_max":157,"o":"m 94 800 l 151 800 l 157 790 q 150 750 139 710 q 128 669 115 630 q 101 591 85 555 l 85 555 l 42 555 q 52 583 60 615 q 68 646 75 679 q 81 712 86 743 q 91 774 94 800 l 94 800 z"},"“":{"ha":356,"x_min":42,"x_max":312,"o":"m 260 555 l 203 555 l 197 565 q 205 605 216 646 q 226 686 240 726 q 254 765 269 800 l 269 800 l 312 800 q 300 762 290 719 q 279 676 272 634 q 265 591 260 555 l 260 555 z m 106 555 l 48 555 l 42 565 q 50 605 61 646 q 72 686 86 726 q 100 765 115 800 l 115 800 l 157 800 q 145 762 135 719 q 124 675 117 633 q 110 591 106 555 l 106 555 z"},"”":{"ha":356,"x_min":42,"x_max":312,"o":"m 249 800 l 306 800 l 312 790 q 305 750 294 710 q 282 669 269 630 q 255 591 240 555 l 240 555 l 197 555 q 210 593 220 636 q 230 679 238 722 q 245 764 249 800 l 249 800 z m 94 800 l 151 800 l 157 790 q 150 750 139 710 q 128 669 115 630 q 101 591 85 555 l 85 555 l 42 555 q 52 583 60 615 q 68 646 75 679 q 81 712 86 743 q 91 774 94 800 l 94 800 z"},"…":{"ha":672,"x_min":75,"x_max":598,"o":"m 115 -10 l 115 -10 q 95 -10 85 3 q 75 15 75 38 l 75 38 q 75 61 85 74 q 95 86 115 86 l 115 86 q 137 86 147 74 q 157 62 157 38 l 157 38 q 157 15 147 3 q 136 -10 115 -10 z m 335 -10 l 335 -10 q 315 -10 305 3 q 295 15 295 38 l 295 38 q 295 61 305 74 q 315 86 335 86 l 335 86 q 357 86 367 74 q 377 62 377 38 l 377 38 q 377 15 367 3 q 357 -10 335 -10 z m 556 -10 l 556 -10 q 536 -10 526 3 q 515 15 515 38 l 515 38 q 515 61 526 74 q 536 86 556 86 l 556 86 q 578 86 588 74 q 598 62 598 38 l 598 38 q 598 15 588 3 q 577 -10 556 -10 z"},"×":{"ha":461,"x_min":45,"x_max":416,"o":"m 230 386 l 383 539 l 416 506 l 263 353 l 415 200 l 383 168 l 230 320 l 78 167 l 45 200 l 197 353 l 45 505 l 78 538 l 230 386 z"},"÷":{"ha":461,"x_min":38,"x_max":423,"o":"m 423 329 l 38 329 l 38 377 l 423 377 l 423 329 z m 231 128 l 231 128 q 210 128 201 141 q 192 154 192 175 l 192 175 q 192 198 202 211 q 211 224 231 224 l 231 224 q 251 224 260 211 q 269 198 269 176 l 269 176 q 269 154 260 141 q 250 128 231 128 z m 231 481 l 231 481 q 211 481 202 494 q 192 507 192 529 l 192 529 q 192 552 201 565 q 210 577 231 577 l 231 577 q 251 577 260 564 q 269 551 269 529 l 269 529 q 269 507 260 494 q 250 481 231 481 z"},"−":{"ha":461,"x_min":38,"x_max":423,"o":"m 423 330 l 38 330 l 38 377 l 423 377 l 423 330 z"},"₹":{"ha":461,"x_min":60,"x_max":410,"o":"m 309 0 l 244 0 l 62 298 l 68 345 l 85 345 q 131 345 157 355 q 182 365 197 384 l 197 384 q 214 405 221 436 q 227 466 227 505 l 227 505 q 227 551 220 581 q 213 611 193 632 l 193 632 q 178 650 155 660 q 131 669 89 669 l 89 669 l 60 669 l 60 714 l 410 714 l 410 669 l 212 669 q 244 651 263 614 q 281 577 281 506 l 281 506 q 281 442 263 398 q 245 353 207 329 q 169 304 109 298 l 109 298 l 117 307 l 309 0 z m 410 487 l 60 487 l 60 532 l 410 532 l 410 487 z"},"꠰":{"ha":198,"x_min":72,"x_max":126,"o":"m 72 0 l 72 550 l 126 550 l 126 0 l 72 0 z"},"꠱":{"ha":359,"x_min":72,"x_max":287,"o":"m 72 0 l 72 550 l 126 550 l 126 0 l 72 0 z m 233 0 l 233 550 l 287 550 l 287 0 l 233 0 z"},"꠲":{"ha":520,"x_min":72,"x_max":448,"o":"m 72 0 l 72 550 l 126 550 l 126 0 l 72 0 z m 233 0 l 233 550 l 287 550 l 287 0 l 233 0 z m 394 0 l 394 550 l 448 550 l 448 0 l 394 0 z"},"॑":{"ha":0,"x_min":-302,"x_max":-255,"o":"m -302 653 l -302 864 l -255 864 l -255 653 l -302 653 z"},"॒":{"ha":0,"x_min":-464,"x_max":-93,"o":"m -93 -122 l -93 -168 l -464 -168 l -464 -122 l -93 -122 z"},"।":{"ha":283,"x_min":153,"x_max":206,"o":"m 206 -49 l 153 -49 l 153 599 l 206 599 l 206 -49 z"},"॥":{"ha":466,"x_min":153,"x_max":390,"o":"m 390 -49 l 336 -49 l 336 599 l 390 599 l 390 -49 z m 206 -49 l 153 -49 l 153 599 l 206 599 l 206 -49 z"},"᳚":{"ha":0,"x_min":-358,"x_max":-200,"o":"m -358 653 l -358 864 l -312 864 l -312 653 l -358 653 z m -245 653 l -245 864 l -200 864 l -200 653 l -245 653 z"},"̇":{"ha":0,"x_min":-316,"x_max":-241,"o":"m -316 701 l -316 701 q -316 722 -306 734 q -297 745 -279 745 l -279 745 q -259 745 -250 734 q -241 722 -241 701 l -241 701 q -241 681 -250 669 q -259 657 -279 657 l -279 657 q -297 657 -306 669 q -316 681 -316 701 z"},"̣":{"ha":0,"x_min":-316,"x_max":-241,"o":"m -316 -135 l -316 -135 q -316 -115 -306 -103 q -297 -91 -279 -91 l -279 -91 q -259 -91 -250 -103 q -241 -115 -241 -135 l -241 -135 q -241 -156 -250 -167 q -259 -179 -279 -179 l -279 -179 q -297 -179 -306 -167 q -316 -156 -316 -135 z"},"‐":{"ha":310,"x_min":39,"x_max":272,"o":"m 272 244 l 39 244 l 39 294 l 272 294 l 272 244 z"},"​":{"ha":0,"x_min":0,"x_max":0,"o":""},"‌":{"ha":0,"x_min":0,"x_max":0,"o":""},"‍":{"ha":0,"x_min":-161,"x_max":161,"o":"m 29 -244 l -29 -244 l -29 565 l -121 474 l -161 514 l -40 631 l -161 748 l -121 788 l 0 669 l 121 788 l 161 748 l 40 631 l 161 514 l 121 474 l 29 565 l 29 -244 z"},"◌":{"ha":562,"x_min":57,"x_max":504,"o":"m 89 231 l 89 231 q 57 231 57 264 l 57 264 q 57 295 89 295 l 89 295 q 121 295 121 264 l 121 264 q 121 231 89 231 z m 138 95 l 138 95 q 106 95 106 127 l 106 127 q 106 158 138 158 l 138 158 q 169 158 169 127 l 169 127 q 169 95 138 95 z m 281 40 l 281 40 q 249 40 249 72 l 249 72 q 249 104 281 104 l 281 104 q 312 104 312 72 l 312 72 q 312 40 281 40 z m 138 369 l 138 369 q 106 369 106 401 l 106 401 q 106 432 138 432 l 138 432 q 169 432 169 401 l 169 401 q 169 369 138 369 z m 423 95 l 423 95 q 391 95 391 127 l 391 127 q 391 158 423 158 l 423 158 q 455 158 455 127 l 455 127 q 455 95 423 95 z m 281 424 l 281 424 q 249 424 249 456 l 249 456 q 249 487 281 487 l 281 487 q 312 487 312 456 l 312 456 q 312 424 281 424 z m 472 231 l 472 231 q 441 231 441 264 l 441 264 q 441 295 472 295 l 472 295 q 504 295 504 264 l 504 264 q 504 231 472 231 z m 423 369 l 423 369 q 391 369 391 401 l 391 401 q 391 432 423 432 l 423 432 q 455 432 455 401 l 455 401 q 455 369 423 369 z"},"«":{"ha":438,"x_min":36,"x_max":403,"o":"m 36 264 l 36 278 l 184 465 l 222 444 l 100 271 l 222 99 l 184 78 l 36 264 z m 217 264 l 217 278 l 365 465 l 402 444 l 281 271 l 403 99 l 365 78 l 217 264 z"},"»":{"ha":435,"x_min":36,"x_max":399,"o":"m 399 278 l 399 264 l 251 78 l 213 100 l 335 271 l 213 444 l 251 465 l 399 278 z m 222 278 l 222 264 l 74 78 l 36 100 l 158 271 l 36 444 l 74 465 l 222 278 z"},"̈":{"ha":0,"x_min":-116,"x_max":115,"o":"m -115 669 l -115 669 q -115 689 -105 700 q -96 711 -81 711 l -81 711 q -66 711 -56 700 q -47 689 -47 670 l -47 670 q -47 650 -56 639 q -66 628 -81 628 l -81 628 q -96 628 -105 639 q -115 650 -115 669 z m 47 670 l 47 670 q 47 690 57 701 q 66 711 81 711 l 81 711 q 97 711 107 700 q 116 689 116 670 l 116 670 q 116 650 107 639 q 97 628 81 628 l 81 628 q 66 628 57 640 q 47 651 47 670 z"},"̀":{"ha":0,"x_min":-418,"x_max":-247,"o":"m -418 765 l -353 765 q -339 741 -321 714 q -303 687 -283 662 q -264 637 -247 616 l -247 616 l -247 606 l -282 606 q -298 620 -317 639 q -336 658 -355 679 q -374 699 -390 720 q -407 740 -418 757 l -418 757 l -418 765 z"},"́":{"ha":0,"x_min":-264,"x_max":-94,"o":"m -94 765 l -94 757 q -105 740 -121 720 q -138 700 -156 679 q -175 658 -194 639 q -213 620 -229 606 l -229 606 l -264 606 l -264 617 q -244 642 -225 667 q -206 692 -189 717 q -172 742 -159 765 l -159 765 l -94 765 z"},"̋":{"ha":0,"x_min":-99,"x_max":191,"o":"m 191 766 l 191 758 q 183 744 169 724 q 155 704 138 682 q 120 660 103 640 q 86 620 71 606 l 71 606 l 40 606 l 40 615 q 56 636 74 665 q 92 693 108 721 q 124 748 132 766 l 132 766 l 191 766 z m 51 766 l 51 758 q 43 743 30 724 q 16 704 0 683 q -17 661 -35 641 q -53 621 -69 606 l -69 606 l -99 606 l -99 615 q -83 638 -65 666 q -47 693 -31 721 q -16 748 -7 766 l -7 766 l 51 766 z"},"̄":{"ha":0,"x_min":-123,"x_max":116,"o":"m -123 658 l 116 658 l 116 614 l -123 614 l -123 658 z"},"˙":{"ha":154,"x_min":40,"x_max":114,"o":"m 77 731 l 77 731 q 96 731 105 719 q 114 706 114 686 l 114 686 q 114 665 105 653 q 95 641 77 641 l 77 641 q 59 641 50 653 q 40 665 40 686 l 40 686 q 40 706 50 719 q 59 731 77 731 z"},"°":{"ha":381,"x_min":55,"x_max":326,"o":"m 191 456 l 191 456 q 151 456 121 473 q 90 489 73 519 q 55 549 55 590 l 55 590 q 55 631 73 661 q 90 691 121 707 q 152 723 190 723 l 190 723 q 229 723 260 707 q 290 690 308 661 q 326 631 326 589 l 326 589 q 326 549 309 519 q 291 488 260 472 q 229 456 191 456 z m 191 494 l 191 494 q 233 494 259 521 q 284 548 284 590 l 284 590 q 284 633 259 659 q 233 685 190 685 l 190 685 q 146 685 122 659 q 97 632 97 590 l 97 590 q 97 546 123 520 q 149 494 191 494 z"},"A":{"ha":472,"x_min":0,"x_max":472,"o":"m 472 0 l 413 0 l 343 250 l 129 250 l 58 0 l 0 0 l 204 715 l 269 715 l 472 0 z m 330 302 l 258 568 q 255 584 251 600 q 247 615 243 632 q 239 648 236 662 l 236 662 q 233 647 230 632 q 226 616 222 600 q 218 584 214 568 l 214 568 l 142 302 l 330 302 z"},"Á":{"ha":472,"x_min":0,"x_max":472,"o":"m 472 0 l 413 0 l 343 250 l 129 250 l 58 0 l 0 0 l 204 715 l 269 715 l 472 0 z m 330 302 l 258 568 q 255 584 251 600 q 247 615 243 632 q 239 648 236 662 l 236 662 q 233 647 230 632 q 226 616 222 600 q 218 584 214 568 l 214 568 l 142 302 l 330 302 z m 357 947 l 357 939 q 346 922 330 902 q 313 882 295 861 q 276 840 257 821 q 238 802 222 788 l 222 788 l 187 788 l 187 799 q 207 824 226 849 q 245 874 262 899 q 279 924 292 947 l 292 947 l 357 947 z"},"Ă":{"ha":472,"x_min":0,"x_max":472,"o":"m 472 0 l 413 0 l 343 250 l 129 250 l 58 0 l 0 0 l 204 715 l 269 715 l 472 0 z m 330 302 l 258 568 q 255 584 251 600 q 247 615 243 632 q 239 648 236 662 l 236 662 q 233 647 230 632 q 226 616 222 600 q 218 584 214 568 l 214 568 l 142 302 l 330 302 z m 317 910 l 355 910 q 354 873 339 846 q 324 819 298 805 q 271 790 235 790 l 235 790 q 182 790 151 821 q 120 851 117 910 l 117 910 l 155 910 q 157 885 167 868 q 177 851 195 843 q 212 834 236 834 l 236 834 q 260 834 278 843 q 295 852 305 869 q 315 886 317 910 l 317 910 z"},"Â":{"ha":472,"x_min":0,"x_max":472,"o":"m 472 0 l 413 0 l 343 250 l 129 250 l 58 0 l 0 0 l 204 715 l 269 715 l 472 0 z m 330 302 l 258 568 q 255 584 251 600 q 247 615 243 632 q 239 648 236 662 l 236 662 q 233 647 230 632 q 226 616 222 600 q 218 584 214 568 l 214 568 l 142 302 l 330 302 z m 208 947 l 262 947 q 274 924 293 896 q 311 867 330 841 q 349 814 362 797 l 362 797 l 362 788 l 329 788 q 306 811 282 841 q 258 870 235 898 l 235 898 q 213 870 189 840 q 164 809 142 788 l 142 788 l 109 788 l 109 797 q 125 817 144 844 q 162 871 180 898 q 197 925 208 947 l 208 947 z"},"Ä":{"ha":472,"x_min":0,"x_max":472,"o":"m 472 0 l 413 0 l 343 250 l 129 250 l 58 0 l 0 0 l 204 715 l 269 715 l 472 0 z m 330 302 l 258 568 q 255 584 251 600 q 247 615 243 632 q 239 648 236 662 l 236 662 q 233 647 230 632 q 226 616 222 600 q 218 584 214 568 l 214 568 l 142 302 l 330 302 z m 121 851 l 121 851 q 121 871 131 882 q 140 893 155 893 l 155 893 q 170 893 180 882 q 189 871 189 852 l 189 852 q 189 832 180 821 q 170 810 155 810 l 155 810 q 140 810 131 821 q 121 832 121 851 z m 283 852 l 283 852 q 283 872 293 883 q 302 893 317 893 l 317 893 q 333 893 343 882 q 352 871 352 852 l 352 852 q 352 832 343 821 q 333 810 317 810 l 317 810 q 302 810 293 822 q 283 833 283 852 z"},"À":{"ha":472,"x_min":0,"x_max":472,"o":"m 472 0 l 413 0 l 343 250 l 129 250 l 58 0 l 0 0 l 204 715 l 269 715 l 472 0 z m 330 302 l 258 568 q 255 584 251 600 q 247 615 243 632 q 239 648 236 662 l 236 662 q 233 647 230 632 q 226 616 222 600 q 218 584 214 568 l 214 568 l 142 302 l 330 302 z m 139 947 l 204 947 q 218 923 236 896 q 254 869 274 844 q 293 819 310 798 l 310 798 l 310 788 l 275 788 q 259 802 240 821 q 221 840 202 861 q 183 881 167 902 q 150 922 139 939 l 139 939 l 139 947 z"},"Ā":{"ha":472,"x_min":0,"x_max":472,"o":"m 472 0 l 413 0 l 343 250 l 129 250 l 58 0 l 0 0 l 204 715 l 269 715 l 472 0 z m 330 302 l 258 568 q 255 584 251 600 q 247 615 243 632 q 239 648 236 662 l 236 662 q 233 647 230 632 q 226 616 222 600 q 218 584 214 568 l 214 568 l 142 302 l 330 302 z m 116 840 l 355 840 l 355 796 l 116 796 l 116 840 z"},"Ą":{"ha":472,"x_min":0,"x_max":472,"o":"m 472 0 l 413 0 l 343 250 l 129 250 l 58 0 l 0 0 l 204 715 l 269 715 l 472 0 z m 330 302 l 258 568 q 255 584 251 600 q 247 615 243 632 q 239 648 236 662 l 236 662 q 233 647 230 632 q 226 616 222 600 q 218 584 214 568 l 214 568 l 142 302 l 330 302 z m 384 -126 l 384 -126 q 384 -151 396 -165 q 408 -179 431 -179 l 431 -179 q 442 -179 452 -176 q 462 -174 468 -173 l 468 -173 l 468 -212 q 459 -216 448 -218 q 437 -220 422 -220 l 422 -220 q 381 -220 359 -198 q 336 -176 336 -134 l 336 -134 q 336 -108 347 -82 q 357 -57 377 -33 q 396 -9 422 11 l 422 11 l 455 0 q 419 -33 402 -63 q 384 -93 384 -126 z"},"Å":{"ha":472,"x_min":0,"x_max":472,"o":"m 472 0 l 413 0 l 343 250 l 129 250 l 58 0 l 0 0 l 204 715 l 269 715 l 472 0 z m 330 302 l 258 568 q 255 584 251 600 q 247 615 243 632 q 239 648 236 662 l 236 662 q 233 647 230 632 q 226 616 222 600 q 218 584 214 568 l 214 568 l 142 302 l 330 302 z m 236 684 l 236 684 q 193 684 165 710 q 137 735 137 780 l 137 780 q 137 824 165 850 q 192 876 235 876 l 235 876 q 278 876 307 850 q 335 823 335 780 l 335 780 q 335 736 307 710 q 279 684 236 684 z m 236 720 l 236 720 q 263 720 280 737 q 297 753 297 779 l 297 779 q 297 806 281 823 q 264 840 236 840 l 236 840 q 208 840 192 823 q 175 806 175 780 l 175 780 q 175 754 191 737 q 207 720 236 720 z"},"Ã":{"ha":472,"x_min":0,"x_max":472,"o":"m 472 0 l 413 0 l 343 250 l 129 250 l 58 0 l 0 0 l 204 715 l 269 715 l 472 0 z m 330 302 l 258 568 q 255 584 251 600 q 247 615 243 632 q 239 648 236 662 l 236 662 q 233 647 230 632 q 226 616 222 600 q 218 584 214 568 l 214 568 l 142 302 l 330 302 z m 124 793 l 87 793 q 89 818 96 838 q 102 858 113 872 q 123 886 138 894 q 152 901 170 901 l 170 901 q 191 901 208 892 q 225 882 241 870 q 256 857 271 848 q 286 838 302 838 l 302 838 q 321 838 333 854 q 345 870 349 902 l 349 902 l 385 902 q 382 849 360 822 q 337 794 302 794 l 302 794 q 282 794 265 804 q 247 813 231 825 q 215 837 201 847 q 187 856 171 856 l 171 856 q 154 856 141 841 q 128 826 124 793 l 124 793 z"},"Æ":{"ha":662,"x_min":-1,"x_max":618,"o":"m 618 51 l 618 0 l 302 0 l 302 250 l 142 250 l 60 0 l -1 0 l 242 714 l 618 714 l 618 663 l 358 663 l 358 399 l 603 399 l 603 349 l 358 349 l 358 51 l 618 51 z m 279 662 l 159 302 l 302 302 l 302 662 l 279 662 z"},"B":{"ha":507,"x_min":83,"x_max":463,"o":"m 83 714 l 246 714 q 347 714 397 672 q 447 630 447 544 l 447 544 q 447 500 434 465 q 420 430 395 408 q 370 385 333 378 l 333 378 l 333 375 q 377 366 406 344 q 435 321 449 286 q 463 250 463 202 l 463 202 q 463 138 440 93 q 416 48 372 24 q 328 0 266 0 l 266 0 l 83 0 l 83 714 z m 139 398 l 248 398 q 321 398 355 434 q 389 469 389 540 l 389 540 q 389 604 355 635 q 320 665 241 665 l 241 665 l 139 665 l 139 398 z m 251 350 l 139 350 l 139 49 l 259 49 q 330 49 368 88 q 405 127 405 204 l 405 204 q 405 256 387 288 q 368 320 334 335 q 300 350 251 350 l 251 350 z"},"C":{"ha":488,"x_min":55,"x_max":462,"o":"m 323 673 l 323 673 q 269 673 230 648 q 190 623 165 580 q 139 536 126 479 q 113 421 113 357 l 113 357 q 113 262 138 191 q 163 119 210 80 q 257 41 323 41 l 323 41 q 361 41 393 50 q 424 58 449 69 l 449 69 l 449 18 q 423 5 391 -2 q 358 -10 318 -10 l 318 -10 q 235 -10 176 35 q 117 79 86 162 q 55 245 55 358 l 55 358 q 55 434 72 500 q 88 566 121 617 q 154 667 205 696 q 255 724 322 724 l 322 724 q 361 724 396 716 q 430 707 462 690 l 462 690 l 440 642 q 413 658 383 666 q 353 673 323 673 z"},"Ć":{"ha":488,"x_min":55,"x_max":462,"o":"m 323 673 l 323 673 q 269 673 230 648 q 190 623 165 580 q 139 536 126 479 q 113 421 113 357 l 113 357 q 113 262 138 191 q 163 119 210 80 q 257 41 323 41 l 323 41 q 361 41 393 50 q 424 58 449 69 l 449 69 l 449 18 q 423 5 391 -2 q 358 -10 318 -10 l 318 -10 q 235 -10 176 35 q 117 79 86 162 q 55 245 55 358 l 55 358 q 55 434 72 500 q 88 566 121 617 q 154 667 205 696 q 255 724 322 724 l 322 724 q 361 724 396 716 q 430 707 462 690 l 462 690 l 440 642 q 413 658 383 666 q 353 673 323 673 z m 428 947 l 428 939 q 417 922 401 902 q 384 882 366 861 q 347 840 328 821 q 309 802 293 788 l 293 788 l 258 788 l 258 799 q 278 824 297 849 q 316 874 333 899 q 350 924 363 947 l 363 947 l 428 947 z"},"Č":{"ha":488,"x_min":55,"x_max":462,"o":"m 323 673 l 323 673 q 269 673 230 648 q 190 623 165 580 q 139 536 126 479 q 113 421 113 357 l 113 357 q 113 262 138 191 q 163 119 210 80 q 257 41 323 41 l 323 41 q 361 41 393 50 q 424 58 449 69 l 449 69 l 449 18 q 423 5 391 -2 q 358 -10 318 -10 l 318 -10 q 235 -10 176 35 q 117 79 86 162 q 55 245 55 358 l 55 358 q 55 434 72 500 q 88 566 121 617 q 154 667 205 696 q 255 724 322 724 l 322 724 q 361 724 396 716 q 430 707 462 690 l 462 690 l 440 642 q 413 658 383 666 q 353 673 323 673 z m 332 788 l 280 788 q 268 811 251 839 q 233 866 215 893 q 197 919 181 938 l 181 938 l 181 947 l 214 947 q 236 925 261 896 q 285 866 306 837 l 306 837 q 329 867 351 893 q 372 919 398 947 l 398 947 l 432 947 l 432 938 q 416 918 397 892 q 378 865 361 838 q 344 811 332 788 l 332 788 z"},"Ç":{"ha":488,"x_min":55,"x_max":462,"o":"m 323 673 l 323 673 q 269 673 230 648 q 190 623 165 580 q 139 536 126 479 q 113 421 113 357 l 113 357 q 113 262 138 191 q 163 119 210 80 q 257 41 323 41 l 323 41 q 361 41 393 50 q 424 58 449 69 l 449 69 l 449 18 q 423 5 391 -2 q 358 -10 318 -10 l 318 -10 q 235 -10 176 35 q 117 79 86 162 q 55 245 55 358 l 55 358 q 55 434 72 500 q 88 566 121 617 q 154 667 205 696 q 255 724 322 724 l 322 724 q 361 724 396 716 q 430 707 462 690 l 462 690 l 440 642 q 413 658 383 666 q 353 673 323 673 z m 384 -141 l 384 -141 q 384 -187 353 -213 q 321 -240 265 -240 l 265 -240 q 250 -240 237 -238 q 223 -237 213 -234 l 213 -234 l 213 -195 q 224 -198 236 -199 q 248 -201 261 -201 l 261 -201 q 295 -201 316 -186 q 337 -171 337 -142 l 337 -142 q 337 -112 313 -98 q 289 -84 248 -82 l 248 -82 l 285 0 l 324 0 l 298 -57 q 325 -61 345 -72 q 364 -83 374 -100 q 384 -118 384 -141 z"},"Ċ":{"ha":488,"x_min":55,"x_max":462,"o":"m 323 673 l 323 673 q 269 673 230 648 q 190 623 165 580 q 139 536 126 479 q 113 421 113 357 l 113 357 q 113 262 138 191 q 163 119 210 80 q 257 41 323 41 l 323 41 q 361 41 393 50 q 424 58 449 69 l 449 69 l 449 18 q 423 5 391 -2 q 358 -10 318 -10 l 318 -10 q 235 -10 176 35 q 117 79 86 162 q 55 245 55 358 l 55 358 q 55 434 72 500 q 88 566 121 617 q 154 667 205 696 q 255 724 322 724 l 322 724 q 361 724 396 716 q 430 707 462 690 l 462 690 l 440 642 q 413 658 383 666 q 353 673 323 673 z m 306 913 l 306 913 q 325 913 334 901 q 343 888 343 868 l 343 868 q 343 847 334 835 q 324 823 306 823 l 306 823 q 288 823 279 835 q 269 847 269 868 l 269 868 q 269 888 279 901 q 288 913 306 913 z"},"D":{"ha":559,"x_min":83,"x_max":504,"o":"m 504 365 l 504 365 q 504 245 473 164 q 442 82 380 41 q 318 0 225 0 l 225 0 l 83 0 l 83 714 l 234 714 q 324 714 384 675 q 444 635 474 558 q 504 480 504 365 z m 446 362 l 446 362 q 446 461 423 528 q 400 595 352 630 q 304 664 229 664 l 229 664 l 139 664 l 139 50 l 222 50 q 337 50 392 129 q 446 208 446 362 z"},"Ð":{"ha":562,"x_min":25,"x_max":506,"o":"m 86 714 l 236 714 q 326 714 386 675 q 446 635 476 558 q 506 480 506 364 l 506 364 q 506 245 475 164 q 444 82 382 41 q 320 0 227 0 l 227 0 l 86 0 l 86 342 l 25 342 l 25 390 l 86 390 l 86 714 z m 231 664 l 231 664 l 142 664 l 142 390 l 282 390 l 282 342 l 142 342 l 142 50 l 224 50 q 340 50 394 129 q 448 207 448 362 l 448 362 q 448 461 425 528 q 402 595 355 630 q 307 664 231 664 z"},"Ď":{"ha":559,"x_min":83,"x_max":504,"o":"m 504 365 l 504 365 q 504 245 473 164 q 442 82 380 41 q 318 0 225 0 l 225 0 l 83 0 l 83 714 l 234 714 q 324 714 384 675 q 444 635 474 558 q 504 480 504 365 z m 446 362 l 446 362 q 446 461 423 528 q 400 595 352 630 q 304 664 229 664 l 229 664 l 139 664 l 139 50 l 222 50 q 337 50 392 129 q 446 208 446 362 z m 303 788 l 251 788 q 239 811 222 839 q 204 866 186 893 q 168 919 152 938 l 152 938 l 152 947 l 185 947 q 207 925 232 896 q 256 866 277 837 l 277 837 q 300 867 322 893 q 343 919 369 947 l 369 947 l 403 947 l 403 938 q 387 918 368 892 q 349 865 332 838 q 315 811 303 788 l 303 788 z"},"Đ":{"ha":562,"x_min":25,"x_max":506,"o":"m 86 714 l 236 714 q 326 714 386 675 q 446 635 476 558 q 506 480 506 364 l 506 364 q 506 245 475 164 q 444 82 382 41 q 320 0 227 0 l 227 0 l 86 0 l 86 342 l 25 342 l 25 390 l 86 390 l 86 714 z m 231 664 l 231 664 l 142 664 l 142 390 l 282 390 l 282 342 l 142 342 l 142 50 l 224 50 q 340 50 394 129 q 448 207 448 362 l 448 362 q 448 461 425 528 q 402 595 355 630 q 307 664 231 664 z"},"E":{"ha":440,"x_min":83,"x_max":389,"o":"m 389 51 l 389 0 l 83 0 l 83 714 l 389 714 l 389 663 l 139 663 l 139 399 l 375 399 l 375 349 l 139 349 l 139 51 l 389 51 z"},"É":{"ha":440,"x_min":83,"x_max":389,"o":"m 389 51 l 389 0 l 83 0 l 83 714 l 389 714 l 389 663 l 139 663 l 139 399 l 375 399 l 375 349 l 139 349 l 139 51 l 389 51 z m 365 947 l 365 939 q 354 922 338 902 q 321 882 303 861 q 284 840 265 821 q 246 802 230 788 l 230 788 l 195 788 l 195 799 q 215 824 234 849 q 253 874 270 899 q 287 924 300 947 l 300 947 l 365 947 z"},"Ě":{"ha":440,"x_min":83,"x_max":389,"o":"m 389 51 l 389 0 l 83 0 l 83 714 l 389 714 l 389 663 l 139 663 l 139 399 l 375 399 l 375 349 l 139 349 l 139 51 l 389 51 z m 269 788 l 217 788 q 205 811 188 839 q 170 866 152 893 q 134 919 118 938 l 118 938 l 118 947 l 151 947 q 173 925 198 896 q 222 866 243 837 l 243 837 q 266 867 288 893 q 309 919 335 947 l 335 947 l 369 947 l 369 938 q 353 918 334 892 q 315 865 298 838 q 281 811 269 788 l 269 788 z"},"Ê":{"ha":440,"x_min":83,"x_max":389,"o":"m 389 51 l 389 0 l 83 0 l 83 714 l 389 714 l 389 663 l 139 663 l 139 399 l 375 399 l 375 349 l 139 349 l 139 51 l 389 51 z m 215 947 l 269 947 q 281 924 300 896 q 318 867 337 841 q 356 814 369 797 l 369 797 l 369 788 l 336 788 q 313 811 289 841 q 265 870 242 898 l 242 898 q 220 870 196 840 q 171 809 149 788 l 149 788 l 116 788 l 116 797 q 132 817 151 844 q 169 871 187 898 q 204 925 215 947 l 215 947 z"},"Ë":{"ha":440,"x_min":83,"x_max":389,"o":"m 389 51 l 389 0 l 83 0 l 83 714 l 389 714 l 389 663 l 139 663 l 139 399 l 375 399 l 375 349 l 139 349 l 139 51 l 389 51 z m 128 851 l 128 851 q 128 871 138 882 q 147 893 162 893 l 162 893 q 177 893 187 882 q 196 871 196 852 l 196 852 q 196 832 187 821 q 177 810 162 810 l 162 810 q 147 810 138 821 q 128 832 128 851 z m 290 852 l 290 852 q 290 872 300 883 q 309 893 324 893 l 324 893 q 340 893 350 882 q 359 871 359 852 l 359 852 q 359 832 350 821 q 340 810 324 810 l 324 810 q 309 810 300 822 q 290 833 290 852 z"},"Ė":{"ha":440,"x_min":83,"x_max":389,"o":"m 389 51 l 389 0 l 83 0 l 83 714 l 389 714 l 389 663 l 139 663 l 139 399 l 375 399 l 375 349 l 139 349 l 139 51 l 389 51 z m 243 913 l 243 913 q 262 913 271 901 q 280 888 280 868 l 280 868 q 280 847 271 835 q 261 823 243 823 l 243 823 q 225 823 216 835 q 206 847 206 868 l 206 868 q 206 888 216 901 q 225 913 243 913 z"},"È":{"ha":440,"x_min":83,"x_max":389,"o":"m 389 51 l 389 0 l 83 0 l 83 714 l 389 714 l 389 663 l 139 663 l 139 399 l 375 399 l 375 349 l 139 349 l 139 51 l 389 51 z m 146 947 l 211 947 q 225 923 243 896 q 261 869 281 844 q 300 819 317 798 l 317 798 l 317 788 l 282 788 q 266 802 247 821 q 228 840 209 861 q 190 881 174 902 q 157 922 146 939 l 146 939 l 146 947 z"},"Ē":{"ha":440,"x_min":83,"x_max":389,"o":"m 389 51 l 389 0 l 83 0 l 83 714 l 389 714 l 389 663 l 139 663 l 139 399 l 375 399 l 375 349 l 139 349 l 139 51 l 389 51 z m 123 840 l 362 840 l 362 796 l 123 796 l 123 840 z"},"Ę":{"ha":440,"x_min":83,"x_max":389,"o":"m 389 51 l 389 0 l 83 0 l 83 714 l 389 714 l 389 663 l 139 663 l 139 399 l 375 399 l 375 349 l 139 349 l 139 51 l 389 51 z m 288 -126 l 288 -126 q 288 -151 300 -165 q 312 -179 335 -179 l 335 -179 q 346 -179 356 -176 q 366 -174 372 -173 l 372 -173 l 372 -212 q 363 -216 352 -218 q 341 -220 326 -220 l 326 -220 q 285 -220 263 -198 q 240 -176 240 -134 l 240 -134 q 240 -108 251 -82 q 261 -57 281 -33 q 300 -9 326 11 l 326 11 l 359 0 q 323 -33 306 -63 q 288 -93 288 -126 z"},"F":{"ha":408,"x_min":83,"x_max":390,"o":"m 139 317 l 139 0 l 83 0 l 83 714 l 390 714 l 390 663 l 139 663 l 139 368 l 375 368 l 375 317 l 139 317 z"},"G":{"ha":590,"x_min":55,"x_max":528,"o":"m 328 313 l 328 364 l 528 364 l 528 27 q 484 8 436 -1 q 387 -10 337 -10 l 337 -10 q 242 -10 180 37 q 117 83 86 166 q 55 248 55 356 l 55 356 q 55 465 89 548 q 122 631 188 678 q 253 724 350 724 l 350 724 q 396 724 439 714 q 481 703 520 680 l 520 680 l 498 632 q 461 654 424 664 q 387 674 350 674 l 350 674 q 272 674 219 635 q 166 595 140 524 q 113 453 113 356 l 113 356 q 113 262 138 191 q 162 120 214 81 q 265 41 343 41 l 343 41 q 381 41 414 47 q 446 53 473 63 l 473 63 l 473 313 l 328 313 z"},"Ğ":{"ha":590,"x_min":55,"x_max":528,"o":"m 328 313 l 328 364 l 528 364 l 528 27 q 484 8 436 -1 q 387 -10 337 -10 l 337 -10 q 242 -10 180 37 q 117 83 86 166 q 55 248 55 356 l 55 356 q 55 465 89 548 q 122 631 188 678 q 253 724 350 724 l 350 724 q 396 724 439 714 q 481 703 520 680 l 520 680 l 498 632 q 461 654 424 664 q 387 674 350 674 l 350 674 q 272 674 219 635 q 166 595 140 524 q 113 453 113 356 l 113 356 q 113 262 138 191 q 162 120 214 81 q 265 41 343 41 l 343 41 q 381 41 414 47 q 446 53 473 63 l 473 63 l 473 313 l 328 313 z m 412 910 l 450 910 q 449 873 434 846 q 419 819 393 805 q 366 790 330 790 l 330 790 q 277 790 246 821 q 215 851 212 910 l 212 910 l 250 910 q 252 885 262 868 q 272 851 290 843 q 307 834 331 834 l 331 834 q 355 834 373 843 q 390 852 400 869 q 410 886 412 910 l 412 910 z"},"Ģ":{"ha":590,"x_min":55,"x_max":528,"o":"m 328 313 l 328 364 l 528 364 l 528 27 q 484 8 436 -1 q 387 -10 337 -10 l 337 -10 q 242 -10 180 37 q 117 83 86 166 q 55 248 55 356 l 55 356 q 55 465 89 548 q 122 631 188 678 q 253 724 350 724 l 350 724 q 396 724 439 714 q 481 703 520 680 l 520 680 l 498 632 q 461 654 424 664 q 387 674 350 674 l 350 674 q 272 674 219 635 q 166 595 140 524 q 113 453 113 356 l 113 356 q 113 262 138 191 q 162 120 214 81 q 265 41 343 41 l 343 41 q 381 41 414 47 q 446 53 473 63 l 473 63 l 473 313 l 328 313 z m 378 -61 l 378 -70 q 372 -93 362 -120 q 352 -147 340 -173 q 327 -199 313 -221 l 313 -221 l 282 -221 l 282 -211 q 289 -194 298 -166 q 306 -139 313 -110 q 319 -81 321 -61 l 321 -61 l 378 -61 z"},"Ġ":{"ha":590,"x_min":55,"x_max":528,"o":"m 328 313 l 328 364 l 528 364 l 528 27 q 484 8 436 -1 q 387 -10 337 -10 l 337 -10 q 242 -10 180 37 q 117 83 86 166 q 55 248 55 356 l 55 356 q 55 465 89 548 q 122 631 188 678 q 253 724 350 724 l 350 724 q 396 724 439 714 q 481 703 520 680 l 520 680 l 498 632 q 461 654 424 664 q 387 674 350 674 l 350 674 q 272 674 219 635 q 166 595 140 524 q 113 453 113 356 l 113 356 q 113 262 138 191 q 162 120 214 81 q 265 41 343 41 l 343 41 q 381 41 414 47 q 446 53 473 63 l 473 63 l 473 313 l 328 313 z m 332 913 l 332 913 q 351 913 360 901 q 369 888 369 868 l 369 868 q 369 847 360 835 q 350 823 332 823 l 332 823 q 314 823 305 835 q 295 847 295 868 l 295 868 q 295 888 305 901 q 314 913 332 913 z"},"H":{"ha":574,"x_min":83,"x_max":491,"o":"m 491 714 l 491 0 l 435 0 l 435 349 l 139 349 l 139 0 l 83 0 l 83 714 l 139 714 l 139 400 l 435 400 l 435 714 l 491 714 z"},"Ħ":{"ha":575,"x_min":-1,"x_max":575,"o":"m 138 0 l 82 0 l 82 537 l -1 537 l -1 583 l 82 583 l 82 714 l 138 714 l 138 583 l 435 583 l 435 714 l 491 714 l 491 583 l 575 583 l 575 537 l 491 537 l 491 0 l 435 0 l 435 348 l 138 348 l 138 0 z m 139 537 l 139 400 l 435 400 l 435 537 l 139 537 z"},"I":{"ha":269,"x_min":40,"x_max":228,"o":"m 228 34 l 228 0 l 40 0 l 40 34 l 107 45 l 107 669 l 40 680 l 40 714 l 228 714 l 228 680 l 162 669 l 162 45 l 228 34 z"},"Ĳ":{"ha":487,"x_min":40,"x_max":407,"o":"m 228 34 l 228 0 l 40 0 l 40 34 l 107 45 l 107 669 l 40 680 l 40 714 l 228 714 l 228 680 l 162 669 l 162 45 l 228 34 z m 275 -183 l 275 -183 q 255 -183 239 -180 q 222 -177 209 -172 l 209 -172 l 209 -121 q 222 -125 238 -128 q 254 -132 271 -132 l 271 -132 q 300 -132 318 -118 q 336 -104 344 -76 q 352 -48 352 -5 l 352 -5 l 352 714 l 407 714 l 407 -9 q 407 -68 393 -107 q 378 -146 349 -164 q 320 -183 275 -183 z"},"Í":{"ha":269,"x_min":40,"x_max":256,"o":"m 228 34 l 228 0 l 40 0 l 40 34 l 107 45 l 107 669 l 40 680 l 40 714 l 228 714 l 228 680 l 162 669 l 162 45 l 228 34 z m 256 947 l 256 939 q 245 922 229 902 q 212 882 194 861 q 175 840 156 821 q 137 802 121 788 l 121 788 l 86 788 l 86 799 q 106 824 125 849 q 144 874 161 899 q 178 924 191 947 l 191 947 l 256 947 z"}}}
